{
.appVersion = "1141";
DisplayStrings = (
"Â",
"",
"/Ahookabove",
"/hookabovecomb.case",
"L/caroncomb.alt/Lcaron",
"/Ohookabove",
"É",
"/mediumBlackSquare",
"/liraTurkish",
"/peso",
"/peseta",
"/caroncomb.alt/Lcaron",
"",
"Ã",
"/ringcomb.case/Aringacute",
C,
"/Dcaron",
"Ð",
"/Dcroat",
"Z/DZcaron",
"z/Dzcaron",
"Æ",
"/Eogonek",
"/Aogonek",
"/Scommaaccent",
"/Ubreve",
"/Tcommaaccent",
"/Ohorngrave",
"/Ohornhookabove",
"/Ocircumflexgrave",
"/Ocircumflexdotbelow",
"/Ocircumflexacute",
"/Ocircumflexhookabove",
"/Ocircumflextilde",
"/Ohorntilde",
"/Ucaron",
"/Udieresismacron",
"/Uhookabove",
"/Uhornacute",
"/Uhorngrave",
"/Ytilde",
"/Yhookabove",
"/Uhornhookabove",
"/Uhorntilde"
);
classes = (
{
code = "o ograve oacute ocircumflex otilde odieresis oslash oe";
name = .oL;
},
{
code = "Y Yacute";
name = .Y;
},
{
automatic = 1;
code = "O Ograve Oacute Ocircumflex Otilde Odieresis Oslash";
name = .OR;
},
{
code = "I Igrave Iacute Itilde Icircumflex Idieresis";
name = .I;
},
{
code = "A Agrave Aacute Acircumflex Atilde Adieresis Aring";
name = .A;
},
{
code = "r rcaron rcommaaccent";
name = .r;
},
{
code = "e ae egrave eacute ecircumflex edieresis";
name = .eR;
},
{
code = "a a agrave aacute acircumflex adieresis atilde aring ae";
name = .aL;
},
{
code = "R Racute Rcaron Rcommaaccent";
name = .R;
},
{
code = "j ij jcircumflex";
name = .jR;
},
{
code = "c ccedilla";
name = .c;
},
{
code = "k kcommaaccent kgreenlandic";
name = .k;
},
{
code = "o ograve oacute ocircumflex otilde odieresis oslash";
name = .oR;
},
{
code = "u ugrave uacute ucircumflex udieresis";
name = .u;
},
{
code = "a a agrave aacute acircumflex adieresis atilde aring";
name = .aR;
},
{
code = "i dotlessi itilde ij igrave iacute icircumflex idieresis";
name = .iL;
},
{
code = "U Ugrave Uacute Ucircumflex Udieresis";
name = .U;
},
{
code = "E Egrave Eacute Ecircumflex Edieresis";
name = .EL;
},
{
code = "n nacute ntilde";
name = .n;
},
{
code = "N Nacute Ntilde";
name = .N;
},
{

glyphs = (
{
color = 4;
glyphname = A;
lastChange = "2018-05-15 21:05:52 +0000";
layers = (
{
anchors = (
{
name = btm;
position = "{299, 0}";
},
{
name = top;
position = "{297, 830}";
}
);
layerId = "B61D43DE-5272-4FF4-A680-608B6BF5ED9E";
paths = (
{
closed = 1;
nodes = (
"135 0 LINE",
"276 383 LINE",
"309 499 LINE",
"274 499 LINE",
"309 383 LINE",
"455 0 LINE",
"594 0 LINE",
"293 724 LINE",
"-7 0 LINE"
);
},
{
closed = 1;
nodes = (
"449 104 LINE",
"444 198 LINE",
"145 198 LINE",
"141 104 LINE"
);
}
);
width = 586;
}
);
leftKerningGroup = A;
rightKerningGroup = A;
unicode = 0041;
userData = {
com.typemytype.robofont.mark = (
0.656,
1,
0.6,
1
);
};
},
{
color = 4;
glyphname = Aogonek;
lastChange = "2018-05-16 03:47:45 +0000";
layers = (
{
components = (
{
name = A;
}
);
layerId = "B61D43DE-5272-4FF4-A680-608B6BF5ED9E";
paths = (
{
closed = 1;
nodes = (
"341 -198 OFFCURVE",
"396 -250 OFFCURVE",
"501 -250 CURVE SMOOTH",
"557 -250 OFFCURVE",
"599 -234 OFFCURVE",
"611 -213 CURVE",
"585 -288 LINE",
"585 -68 LINE",
"631 -99 LINE",
"595 -140 OFFCURVE",
"550 -149 OFFCURVE",
"517 -149 CURVE SMOOTH",
"478 -149 OFFCURVE",
"455 -135 OFFCURVE",
"455 -101 CURVE SMOOTH",
"455 -59 OFFCURVE",
"514 -18 OFFCURVE",
"585 0 CURVE",
"532 33 LINE",
"475 6 LINE",
"380 -18 OFFCURVE",
"343 -77 OFFCURVE",
"342 -126 CURVE"
);
}
);
width = 586;
}
);
leftKerningGroup = A;
rightKerningGroup = A;
unicode = 0104;
userData = {
com.typemytype.robofont.mark = (
0.6,
0.986,
1,
1
);
};
},
{
color = 4;
glyphname = AE;
lastChange = "2018-05-16 03:46:55 +0000";
layers = (
{
anchors = (
{
name = top;
position = "{538, 830}";
}
);
layerId = "B61D43DE-5272-4FF4-A680-608B6BF5ED9E";
paths = (
{
closed = 1;
nodes = (
"147 0 LINE",
"417 513 LINE",
"431 697 LINE",
"394 697 LINE",
"5 0 LINE"
);
},
{
closed = 1;
nodes = (
"801 0 LINE",
"801 110 LINE",
"530 110 LINE",
"546 91 LINE",
"546 360 LINE",
"528 343 LINE",
"746 343 LINE",
"746 449 LINE",
"528 449 LINE",
"546 433 LINE",
"546 610 LINE",
"530 596 LINE",
"781 596 LINE",
"781 697 LINE",
"414 697 LINE",
"414 0 LINE"
);
},
{
closed = 1;
nodes = (
"527 125 LINE",
"527 208 LINE",
"146 208 LINE",
"146 125 LINE"
);
}
);
width = 841;
}
);
leftKerningGroup = A;
rightKerningGroup = E;
unicode = 00C6;
userData = {
com.typemytype.robofont.mark = (
0.656,
1,
0.6,
1
);
};
},
{
color = 4;
glyphname = B;
lastChange = "2018-05-15 18:14:03 +0000";
layers = (
{
anchors = (
{
name = top;
position = "{305, 830}";
}
);
layerId = "B61D43DE-5272-4FF4-A680-608B6BF5ED9E";
paths = (
{
closed = 1;
nodes = (
"276 0 LINE",
"451 0 OFFCURVE",
"537 78 OFFCURVE",
"537 201 CURVE SMOOTH",
"537 309 OFFCURVE",
"482 375 OFFCURVE",
"362 375 CURVE",
"350 354 LINE",
"460 354 OFFCURVE",
"502 441 OFFCURVE",
"502 511 CURVE SMOOTH",
"502 629 OFFCURVE",
"417 697 OFFCURVE",
"267 697 CURVE",
"81 697 LINE",
"81 0 LINE"
);
},
{
closed = 1;
nodes = (
"207 614 LINE",
"189 598 LINE",
"267 598 LINE SMOOTH",
"324 598 OFFCURVE",
"378 579 OFFCURVE",
"378 507 CURVE SMOOTH",
"378 463 OFFCURVE",
"356 405 OFFCURVE",
"288 405 CURVE",
"188 405 LINE",
"207 387 LINE"
);
},
{
closed = 1;
nodes = (
"207 83 LINE",
"207 324 LINE",
"188 312 LINE",
"288 312 LINE SMOOTH",
"350 312 OFFCURVE",
"405 299 OFFCURVE",
"405 208 CURVE SMOOTH",
"405 118 OFFCURVE",
"354 101 OFFCURVE",
"294 101 CURVE",
"189 101 LINE"
);
}
);
width = 563;
}
);
leftKerningGroup = H;
rightKerningGroup = B;
unicode = 0042;
userData = {
com.typemytype.robofont.mark = (
0.656,
1,
0.6,
1
);
};
},
{
color = 4;
glyphname = C;
lastChange = "2018-05-16 03:45:39 +0000";
layers = (
{
anchors = (
{
name = btm;
position = "{318, 0}";
},
{
name = top;
position = "{339, 830}";
}
);
layerId = "B61D43DE-5272-4FF4-A680-608B6BF5ED9E";
paths = (
{
closed = 1;
nodes = (
"167 710 OFFCURVE",
"37 586 OFFCURVE",
"37 358 CURVE SMOOTH",
"37 104 OFFCURVE",
"173 -12 OFFCURVE",
"318 -12 CURVE SMOOTH",
"453 -12 OFFCURVE",
"500 43 OFFCURVE",
"522 60 CURVE",
"535 -4 LINE",
"420 204 LINE",
"467 160 LINE",
"468 157 OFFCURVE",
"415 95 OFFCURVE",
"326 95 CURVE SMOOTH",
"244 95 OFFCURVE",
"176 191 OFFCURVE",
"176 365 CURVE SMOOTH",
"176 498 OFFCURVE",
"223 605 OFFCURVE",
"325 605 CURVE SMOOTH",
"390 605 OFFCURVE",
"435 561 OFFCURVE",
"450 542 CURVE",
"506 644 LINE",
"479 668 OFFCURVE",
"430 710 OFFCURVE",
"322 710 CURVE SMOOTH"
);
}
);
width = 538;
}
);
leftKerningGroup = O;
rightKerningGroup = C;
unicode = 0043;
userData = {
com.typemytype.robofont.mark = (
0.656,
1,
0.6,
1
);
};
},
{
color = 4;
glyphname = D;
lastChange = "2018-05-15 18:14:03 +0000";
layers = (
{
anchors = (
{
name = top;
position = "{323, 830}";
}
);
layerId = "B61D43DE-5272-4FF4-A680-608B6BF5ED9E";
paths = (
{
closed = 1;
nodes = (
"260 0 LINE",
"465 0 OFFCURVE",
"577 139 OFFCURVE",
"577 357 CURVE SMOOTH",
"577 584 OFFCURVE",
"463 697 OFFCURVE",
"261 697 CURVE",
"81 697 LINE",
"81 0 LINE"
);
},
{
closed = 1;
nodes = (
"210 88 LINE",
"210 618 LINE",
"191 597 LINE",
"257 597 LINE",
"401 597 OFFCURVE",
"447 480 OFFCURVE",
"447 354 CURVE SMOOTH",
"447 232 OFFCURVE",
"403 110 OFFCURVE",
"257 110 CURVE",
"193 110 LINE"
);
}
);
width = 601;
}
);
leftKerningGroup = H;
rightKerningGroup = O;
unicode = 0044;
userData = {
com.typemytype.robofont.mark = (
0.656,
1,
0.6,
1
);
};
},
{
color = 4;
glyphname = Eth;
lastChange = "2018-05-16 03:46:44 +0000";
layers = (
{
components = (
{
name = D;
transform = "{1, 0, 0, 1, -5, 0}";
}
);
layerId = "B61D43DE-5272-4FF4-A680-608B6BF5ED9E";
paths = (
{
closed = 1;
nodes = (
"333 316 LINE",
"333 401 LINE",
"16 401 LINE",
"16 316 LINE"
);
}
);
width = 593;
}
);
leftKerningGroup = H;
rightKerningGroup = O;
unicode = 00D0;
userData = {
com.typemytype.robofont.mark = (
0.656,
1,
0.6,
1
);
};
},
{
color = 4;
glyphname = Dcroat;
lastChange = "2018-05-16 03:46:44 +0000";
layers = (
{
components = (
{
name = D;
transform = "{1, 0, 0, 1, -5, 0}";
}
);
layerId = "B61D43DE-5272-4FF4-A680-608B6BF5ED9E";
paths = (
{
closed = 1;
nodes = (
"333 316 LINE",
"333 401 LINE",
"16 401 LINE",
"16 316 LINE"
);
}
);
width = 593;
}
);
leftKerningGroup = D;
rightKerningGroup = O;
unicode = 0110;
userData = {
com.typemytype.robofont.mark = (
0.6,
0.986,
1,
1
);
};
},
{
color = 4;
glyphname = E;
lastChange = "2018-05-15 18:14:03 +0000";
layers = (
{
anchors = (
{
name = btm;
position = "{263, 0}";
},
{
name = top;
position = "{271, 830}";
}
);
layerId = "B61D43DE-5272-4FF4-A680-608B6BF5ED9E";
paths = (
{
closed = 1;
nodes = (
"465 0 LINE",
"465 110 LINE",
"194 110 LINE",
"210 91 LINE",
"210 336 LINE",
"192 319 LINE",
"396 319 LINE",
"396 425 LINE",
"192 425 LINE",
"210 408 LINE",
"210 605 LINE",
"194 591 LINE",
"445 591 LINE",
"445 697 LINE",
"81 697 LINE",
"81 0 LINE"
);
}
);
width = 506;
}
);
leftKerningGroup = H;
rightKerningGroup = E;
unicode = 0045;
userData = {
com.typemytype.robofont.mark = (
0.656,
1,
0.6,
1
);
};
},
{
color = 5;
glyphname = Eogonek;
lastChange = "2018-05-16 02:52:09 +0000";
layers = (
{
components = (
{
name = E;
transform = "{1, 0, 0, 1, -5, 0}";
}
);
layerId = "B61D43DE-5272-4FF4-A680-608B6BF5ED9E";
paths = (
{
closed = 1;
nodes = (
"216 -198 OFFCURVE",
"271 -250 OFFCURVE",
"376 -250 CURVE SMOOTH",
"432 -250 OFFCURVE",
"474 -234 OFFCURVE",
"486 -213 CURVE",
"460 -288 LINE",
"460 -68 LINE",
"506 -99 LINE",
"470 -140 OFFCURVE",
"425 -149 OFFCURVE",
"392 -149 CURVE SMOOTH",
"353 -149 OFFCURVE",
"330 -135 OFFCURVE",
"330 -101 CURVE SMOOTH",
"330 -59 OFFCURVE",
"389 -18 OFFCURVE",
"460 0 CURVE",
"407 33 LINE",
"350 6 LINE",
"255 -18 OFFCURVE",
"218 -77 OFFCURVE",
"217 -126 CURVE"
);
}
);
width = 500;
}
);
leftKerningGroup = H;
rightKerningGroup = E;
unicode = 0118;
userData = {
com.typemytype.robofont.mark = (
0.6,
0.986,
1,
1
);
};
},
{
color = 4;
glyphname = F;
lastChange = "2018-05-15 18:14:03 +0000";
layers = (
{
anchors = (
{
name = top;
position = "{261, 830}";
}
);
layerId = "B61D43DE-5272-4FF4-A680-608B6BF5ED9E";
paths = (
{
closed = 1;
nodes = (
"209 0 LINE",
"209 313 LINE",
"191 298 LINE",
"415 298 LINE",
"415 404 LINE",
"191 404 LINE",
"209 386 LINE",
"209 609 LINE",
"193 591 LINE",
"445 591 LINE",
"445 697 LINE",
"81 697 LINE",
"81 0 LINE"
);
}
);
width = 461;
}
);
leftKerningGroup = H;
rightKerningGroup = F;
unicode = 0046;
userData = {
com.typemytype.robofont.mark = (
0.656,
1,
0.6,
1
);
};
},
{
color = 4;
glyphname = G;
lastChange = "2018-05-16 02:39:51 +0000";
layers = (
{
anchors = (
{
name = top;
position = "{362, 830}";
}
);
layerId = "B61D43DE-5272-4FF4-A680-608B6BF5ED9E";
paths = (
{
closed = 1;
nodes = (
"173 714 OFFCURVE",
"37 580 OFFCURVE",
"37 360 CURVE SMOOTH",
"37 151 OFFCURVE",
"127 -18 OFFCURVE",
"330 -18 CURVE SMOOTH",
"535 -18 OFFCURVE",
"583 121 OFFCURVE",
"583 243 CURVE",
"583 374 LINE",
"329 374 LINE",
"329 264 LINE",
"512 264 LINE",
"458 297 LINE",
"458 288 OFFCURVE",
"459 230 OFFCURVE",
"459 222 CURVE SMOOTH",
"459 129 OFFCURVE",
"423 90 OFFCURVE",
"333 90 CURVE SMOOTH",
"234 90 OFFCURVE",
"173 200 OFFCURVE",
"173 360 CURVE SMOOTH",
"173 486 OFFCURVE",
"231 604 OFFCURVE",
"345 604 CURVE SMOOTH",
"448 604 OFFCURVE",
"478 561 OFFCURVE",
"493 541 CURVE",
"549 647 LINE",
"523 672 OFFCURVE",
"478 714 OFFCURVE",
"346 714 CURVE SMOOTH"
);
}
);
width = 618;
}
);
leftKerningGroup = O;
rightKerningGroup = G;
unicode = 0047;
userData = {
com.typemytype.robofont.mark = (
0.656,
1,
0.6,
1
);
};
},
{
color = 4;
glyphname = H;
lastChange = "2018-05-15 18:15:42 +0000";
layers = (
{
anchors = (
{
name = top;
position = "{325, 830}";
}
);
layerId = "B61D43DE-5272-4FF4-A680-608B6BF5ED9E";
paths = (
{
closed = 1;
nodes = (
"210 0 LINE",
"210 310 LINE",
"193 296 LINE",
"456 296 LINE",
"440 310 LINE",
"440 0 LINE",
"570 0 LINE",
"570 697 LINE",
"440 697 LINE",
"440 385 LINE",
"455 403 LINE",
"193 403 LINE",
"210 386 LINE",
"210 697 LINE",
"81 697 LINE",
"81 0 LINE"
);
}
);
width = 650;
}
);
leftKerningGroup = H;
rightKerningGroup = H;
unicode = 0048;
userData = {
com.typemytype.robofont.mark = (
0.656,
1,
0.6,
1
);
};
},
{
color = 4;
glyphname = Hbar;
lastChange = "2018-05-16 04:04:14 +0000";
layers = (
{
layerId = "B61D43DE-5272-4FF4-A680-608B6BF5ED9E";
paths = (
{
closed = 1;
nodes = (
"215 0 LINE",
"215 280 LINE",
"198 266 LINE",
"447 266 LINE",
"431 280 LINE",
"431 0 LINE",
"570 0 LINE",
"570 697 LINE",
"431 697 LINE",
"431 343 LINE",
"446 360 LINE",
"198 360 LINE",
"215 344 LINE",
"215 697 LINE",
"76 697 LINE",
"76 0 LINE"
);
},
{
closed = 1;
nodes = (
"631 499 LINE",
"631 583 LINE",
"14 583 LINE",
"14 499 LINE"
);
}
);
width = 646;
}
);
leftKerningGroup = H;
rightKerningGroup = H;
unicode = 0126;
userData = {
com.typemytype.robofont.mark = (
0.6,
0.986,
1,
1
);
};
},
{
color = 4;
glyphname = I;
lastChange = "2018-05-15 18:15:45 +0000";
layers = (
{
anchors = (
{
name = btm;
position = "{143, 0}";
},
{
name = top;
position = "{144, 830}";
}
);
layerId = "B61D43DE-5272-4FF4-A680-608B6BF5ED9E";
paths = (
{
closed = 1;
nodes = (
"208 0 LINE",
"208 697 LINE",
"78 697 LINE",
"78 0 LINE"
);
}
);
width = 286;
}
);
leftKerningGroup = I;
rightKerningGroup = I;
unicode = 0049;
userData = {
com.typemytype.robofont.mark = (
0.656,
1,
0.6,
1
);
};
},
{
color = 5;
glyphname = Iogonek;
lastChange = "2018-05-16 03:00:59 +0000";
layers = (
{
components = (
{
name = I;
}
);
layerId = "B61D43DE-5272-4FF4-A680-608B6BF5ED9E";
paths = (
{
closed = 1;
nodes = (
"-3 -198 OFFCURVE",
"52 -250 OFFCURVE",
"157 -250 CURVE SMOOTH",
"213 -250 OFFCURVE",
"255 -234 OFFCURVE",
"267 -213 CURVE",
"241 -288 LINE",
"241 -68 LINE",
"287 -99 LINE",
"251 -140 OFFCURVE",
"206 -149 OFFCURVE",
"173 -149 CURVE SMOOTH",
"134 -149 OFFCURVE",
"111 -135 OFFCURVE",
"111 -101 CURVE SMOOTH",
"111 -59 OFFCURVE",
"132 -18 OFFCURVE",
"203 0 CURVE",
"150 33 LINE",
"93 6 LINE",
"14 -31 OFFCURVE",
"-1 -77 OFFCURVE",
"-2 -126 CURVE"
);
}
);
width = 286;
}
);
leftKerningGroup = I;
rightKerningGroup = I;
unicode = 012E;
userData = {
com.typemytype.robofont.mark = (
0.6,
0.986,
1,
1
);
};
},
{
color = 4;
glyphname = J;
lastChange = "2018-05-16 03:01:10 +0000";
layers = (
{
anchors = (
{
name = top;
position = "{262, 830}";
}
);
layerId = "B61D43DE-5272-4FF4-A680-608B6BF5ED9E";
paths = (
{
closed = 1;
nodes = (
"17 0 OFFCURVE",
"83 -15 OFFCURVE",
"119 -15 CURVE SMOOTH",
"277 -15 OFFCURVE",
"327 85 OFFCURVE",
"327 209 CURVE SMOOTH",
"327 697 LINE",
"197 697 LINE",
"197 197 LINE SMOOTH",
"197 102 OFFCURVE",
"152 96 OFFCURVE",
"113 96 CURVE SMOOTH",
"87 96 OFFCURVE",
"58 111 OFFCURVE",
"41 136 CURVE",
"-7 17 LINE"
);
}
);
width = 400;
}
);
leftKerningGroup = J;
rightKerningGroup = U;
unicode = 004A;
userData = {
com.typemytype.robofont.mark = (
0.656,
1,
0.6,
1
);
};
},
{
color = 4;
glyphname = K;
lastChange = "2018-05-16 03:01:10 +0000";
layers = (
{
anchors = (
{
name = btm;
position = "{308, 0}";
},
{
name = top;
position = "{302, 830}";
}
);
layerId = "B61D43DE-5272-4FF4-A680-608B6BF5ED9E";
paths = (
{
closed = 1;
nodes = (
"433 0 LINE",
"593 0 LINE",
"322 375 LINE",
"325 330 LINE",
"577 697 LINE",
"430 697 LINE",
"201 342 LINE"
);
},
{
closed = 1;
nodes = (
"210 0 LINE",
"210 697 LINE",
"81 697 LINE",
"81 0 LINE"
);
}
);
width = 593;
}
);
leftKerningGroup = H;
rightKerningGroup = K;
unicode = 004B;
userData = {
com.typemytype.robofont.mark = (
0.656,
1,
0.6,
1
);
};
},
{
color = 4;
glyphname = L;
lastChange = "2018-05-16 03:09:06 +0000";
layers = (
{
anchors = (
{
name = btm;
position = "{238, 0}";
},
{
name = car;
position = "{329, 830}";
},
{
name = top;
position = "{150, 830}";
}
);
layerId = "B61D43DE-5272-4FF4-A680-608B6BF5ED9E";
paths = (
{
closed = 1;
nodes = (
"416 0 LINE",
"416 110 LINE",
"195 110 LINE",
"210 87 LINE",
"210 697 LINE",
"81 697 LINE",
"81 0 LINE"
);
}
);
width = 442;
}
);
leftKerningGroup = H;
rightKerningGroup = L;
unicode = 004C;
userData = {
com.typemytype.robofont.mark = (
0.656,
1,
0.6,
1
);
};
},
{
color = 4;
glyphname = Lslash;
lastChange = "2018-05-15 18:20:13 +0000";
layers = (
{
components = (
{
name = L;
transform = "{1, 0, 0, 1, -5, 0}";
}
);
layerId = "B61D43DE-5272-4FF4-A680-608B6BF5ED9E";
paths = (
{
closed = 1;
nodes = (
"350 417 LINE",
"350 509 LINE",
"0 364 LINE",
"0 272 LINE"
);
}
);
width = 428;
}
);
leftKerningGroup = H;
rightKerningGroup = L;
unicode = 0141;
userData = {
com.typemytype.robofont.mark = (
0.6,
0.986,
1,
1
);
};
},
{
color = 4;
glyphname = M;
lastChange = "2018-05-15 18:19:58 +0000";
layers = (
{
anchors = (
{
name = top;
position = "{372, 830}";
}
);
layerId = "B61D43DE-5272-4FF4-A680-608B6BF5ED9E";
paths = (
{
closed = 1;
nodes = (
"207 0 LINE",
"207 299 LINE",
"198 500 LINE",
"181 441 LINE",
"235 363 LINE",
"372 202 LINE",
"509 363 LINE",
"563 440 LINE",
"546 500 LINE",
"538 299 LINE",
"538 0 LINE",
"664 0 LINE",
"664 717 LINE",
"358 359 LINE",
"388 359 LINE",
"81 717 LINE",
"81 0 LINE"
);
}
);
width = 744;
}
);
leftKerningGroup = M;
rightKerningGroup = M;
unicode = 004D;
userData = {
com.typemytype.robofont.guides = (
{
angle = 0;
isGlobal = 0;
magnetic = 5;
x = 0;
y = 729;
},
{
angle = 90;
isGlobal = 0;
magnetic = 5;
x = 764;
y = 0;
}
);
com.typemytype.robofont.mark = (
0.656,
1,
0.6,
1
);
};
},
{
color = 4;
glyphname = N;
lastChange = "2018-05-16 03:04:34 +0000";
layers = (
{
anchors = (
{
name = btm;
position = "{345, 0}";
},
{
name = top;
position = "{316, 830}";
}
);
layerId = "B61D43DE-5272-4FF4-A680-608B6BF5ED9E";
paths = (
{
closed = 1;
nodes = (
"207 0 LINE",
"207 321 LINE",
"197 504 LINE",
"128 486 LINE",
"230 365 LINE",
"574 -20 LINE",
"574 697 LINE",
"448 697 LINE",
"448 356 LINE",
"458 189 LINE",
"521 205 LINE",
"421 325 LINE",
"81 715 LINE",
"81 0 LINE"
);
}
);
width = 654;
}
);
leftKerningGroup = H;
rightKerningGroup = H;
unicode = 004E;
userData = {
com.typemytype.robofont.mark = (
0.656,
1,
0.6,
1
);
};
},
{
color = 4;
glyphname = Eng;
lastChange = "2018-05-16 03:07:38 +0000";
layers = (
{
layerId = "B61D43DE-5272-4FF4-A680-608B6BF5ED9E";
paths = (
{
closed = 1;
nodes = (
"203 0 LINE",
"203 504 LINE",
"124 476 LINE",
"569 -44 LINE",
"569 697 LINE",
"441 697 LINE",
"441 189 LINE",
"516 186 LINE",
"76 715 LINE",
"76 0 LINE"
);
},
{
closed = 1;
nodes = (
"441 -39 LINE",
"441 -123 OFFCURVE",
"412 -145 OFFCURVE",
"367 -145 CURVE SMOOTH",
"325 -145 OFFCURVE",
"252 -114 OFFCURVE",
"240 -88 CURVE",
"289 -55 LINE",
"211 -282 LINE",
"203 -196 LINE",
"217 -226 OFFCURVE",
"281 -255 OFFCURVE",
"389 -255 CURVE SMOOTH",
"488 -255 OFFCURVE",
"569 -196 OFFCURVE",
"569 -44 CURVE",
"534 62 LINE",
"441 107 LINE"
);
}
);
width = 645;
}
);
leftKerningGroup = Eng;
rightKerningGroup = Eng;
unicode = 014A;
userData = {
com.typemytype.robofont.mark = (
0.6,
0.986,
1,
1
);
};
},
{
color = 4;
glyphname = O;
lastChange = "2018-05-15 18:19:35 +0000";
layers = (
{
anchors = (
{
name = btm;
position = "{330, 0}";
},
{
name = top;
position = "{329, 830}";
}
);
layerId = "B61D43DE-5272-4FF4-A680-608B6BF5ED9E";
paths = (
{
closed = 1;
nodes = (
"39 129 OFFCURVE",
"141 -13 OFFCURVE",
"330 -13 CURVE SMOOTH",
"516 -13 OFFCURVE",
"619 129 OFFCURVE",
"619 348 CURVE SMOOTH",
"619 562 OFFCURVE",
"522 709 OFFCURVE",
"327 709 CURVE SMOOTH",
"140 709 OFFCURVE",
"39 565 OFFCURVE",
"39 348 CURVE SMOOTH"
);
},
{
closed = 1;
nodes = (
"173 518 OFFCURVE",
"230 607 OFFCURVE",
"327 607 CURVE SMOOTH",
"426 607 OFFCURVE",
"486 518 OFFCURVE",
"486 351 CURVE SMOOTH",
"486 177 OFFCURVE",
"417 92 OFFCURVE",
"330 92 CURVE SMOOTH",
"236 92 OFFCURVE",
"173 176 OFFCURVE",
"173 350 CURVE SMOOTH"
);
}
);
width = 658;
}
);
leftKerningGroup = O;
rightKerningGroup = O;
unicode = 004F;
userData = {
com.typemytype.robofont.mark = (
0.656,
1,
0.6,
1
);
};
},
{
color = 4;
glyphname = Ohorn;
lastChange = "2018-05-15 18:19:28 +0000";
layers = (
{
anchors = (
{
name = btm;
position = "{330, 0}";
},
{
name = top;
position = "{329, 830}";
}
);
layerId = "B61D43DE-5272-4FF4-A680-608B6BF5ED9E";
paths = (
{
closed = 1;
nodes = (
"39 129 OFFCURVE",
"141 -13 OFFCURVE",
"330 -13 CURVE SMOOTH",
"516 -13 OFFCURVE",
"619 129 OFFCURVE",
"619 348 CURVE SMOOTH",
"619 562 OFFCURVE",
"522 709 OFFCURVE",
"327 709 CURVE SMOOTH",
"140 709 OFFCURVE",
"39 565 OFFCURVE",
"39 348 CURVE SMOOTH"
);
},
{
closed = 1;
nodes = (
"173 518 OFFCURVE",
"230 607 OFFCURVE",
"327 607 CURVE SMOOTH",
"426 607 OFFCURVE",
"486 518 OFFCURVE",
"486 351 CURVE SMOOTH",
"486 177 OFFCURVE",
"417 92 OFFCURVE",
"330 92 CURVE SMOOTH",
"236 92 OFFCURVE",
"173 176 OFFCURVE",
"173 350 CURVE SMOOTH"
);
},
{
closed = 1;
nodes = (
"550 598 LINE",
"586 598 OFFCURVE",
"646 659 OFFCURVE",
"646 709 CURVE SMOOTH",
"646 750 OFFCURVE",
"644 765 OFFCURVE",
"639 781 CURVE",
"545 781 LINE",
"551 765 OFFCURVE",
"553 751 OFFCURVE",
"553 724 CURVE SMOOTH",
"553 677 OFFCURVE",
"483 663 OFFCURVE",
"466 663 CURVE"
);
}
);
width = 658;
}
);
leftKerningGroup = O;
rightKerningGroup = O;
unicode = 01A0;
userData = {
com.typemytype.robofont.mark = (
0.6,
0.609,
1,
1
);
};
},
{
color = 0;
glyphname = Oslash;
lastChange = "2018-05-16 03:10:40 +0000";
layers = (
{
anchors = (
{
name = btm;
position = "{325.089, 0}";
},
{
name = top;
position = "{324.102, 830.078}";
}
);
layerId = "B61D43DE-5272-4FF4-A680-608B6BF5ED9E";
paths = (
{
closed = 1;
nodes = (
"127 -60 LINE",
"199 62 LINE",
"212 88 LINE",
"477 600 LINE",
"498 618 LINE",
"560 729 LINE",
"500 765 LINE",
"440 661 LINE",
"425 619 LINE",
"173 123 LINE",
"152 119 LINE",
"68 -22 LINE"
);
},
{
closed = 1;
nodes = (
"34 129 OFFCURVE",
"136 -13 OFFCURVE",
"325 -13 CURVE SMOOTH",
"511 -13 OFFCURVE",
"614 129 OFFCURVE",
"614 348 CURVE SMOOTH",
"614 562 OFFCURVE",
"517 709 OFFCURVE",
"322 709 CURVE SMOOTH",
"135 709 OFFCURVE",
"34 565 OFFCURVE",
"34 348 CURVE SMOOTH"
);
},
{
closed = 1;
nodes = (
"168 518 OFFCURVE",
"225 607 OFFCURVE",
"322 607 CURVE SMOOTH",
"421 607 OFFCURVE",
"481 518 OFFCURVE",
"481 351 CURVE SMOOTH",
"481 177 OFFCURVE",
"412 92 OFFCURVE",
"325 92 CURVE SMOOTH",
"231 92 OFFCURVE",
"168 176 OFFCURVE",
"168 350 CURVE SMOOTH"
);
}
);
width = 648;
}
);
leftKerningGroup = O;
rightKerningGroup = O;
unicode = 00D8;
userData = {
com.typemytype.robofont.mark = (
0.656,
1,
0.6,
1
);
};
},
{
color = 4;
glyphname = OE;
lastChange = "2018-05-16 03:58:11 +0000";
layers = (
{
components = (
{
name = E;
transform = "{1, 0, 0, 1, 392, 0}";
}
);
layerId = "B61D43DE-5272-4FF4-A680-608B6BF5ED9E";
paths = (
{
closed = 1;
nodes = (
"42 129 OFFCURVE",
"128 -18 OFFCURVE",
"326 -18 CURVE SMOOTH",
"519 -18 OFFCURVE",
"578 129 OFFCURVE",
"578 348 CURVE SMOOTH",
"578 562 OFFCURVE",
"526 714 OFFCURVE",
"322 714 CURVE SMOOTH",
"127 714 OFFCURVE",
"42 565 OFFCURVE",
"42 348 CURVE SMOOTH"
);
},
{
closed = 1;
nodes = (
"178 508 OFFCURVE",
"225 609 OFFCURVE",
"322 609 CURVE SMOOTH",
"422 609 OFFCURVE",
"470 508 OFFCURVE",
"470 351 CURVE SMOOTH",
"470 187 OFFCURVE",
"414 89 OFFCURVE",
"325 89 CURVE SMOOTH",
"230 89 OFFCURVE",
"178 186 OFFCURVE",
"178 350 CURVE SMOOTH"
);
}
);
width = 896;
}
);
leftKerningGroup = O;
rightKerningGroup = E;
unicode = 0152;
userData = {
com.typemytype.robofont.mark = (
0.656,
1,
0.6,
1
);
};
},
{
color = 4;
glyphname = P;
lastChange = "2018-05-15 18:20:54 +0000";
layers = (
{
anchors = (
{
name = top;
position = "{299, 830}";
}
);
layerId = "B61D43DE-5272-4FF4-A680-608B6BF5ED9E";
paths = (
{
closed = 1;
nodes = (
"210 0 LINE",
"210 226 LINE",
"195 175 LINE",
"272 175 LINE",
"449 175 OFFCURVE",
"524 310 OFFCURVE",
"524 447 CURVE SMOOTH",
"524 636 OFFCURVE",
"410 697 OFFCURVE",
"268 697 CURVE SMOOTH",
"81 697 LINE",
"81 0 LINE"
);
},
{
closed = 1;
nodes = (
"210 265 LINE",
"210 614 LINE",
"195 596 LINE",
"265 596 LINE SMOOTH",
"365 596 OFFCURVE",
"395 542 OFFCURVE",
"395 440 CURVE SMOOTH",
"395 340 OFFCURVE",
"356 277 OFFCURVE",
"268 277 CURVE SMOOTH",
"192 277 LINE"
);
}
);
width = 542;
}
);
leftKerningGroup = H;
rightKerningGroup = P;
unicode = 0050;
userData = {
com.typemytype.robofont.mark = (
0.656,
1,
0.6,
1
);
};
},
{
color = 4;
glyphname = Thorn;
lastChange = "2018-05-15 18:20:54 +0000";
layers = (
{
layerId = "B61D43DE-5272-4FF4-A680-608B6BF5ED9E";
paths = (
{
closed = 1;
nodes = (
"210 0 LINE",
"210 137 LINE",
"195 86 LINE",
"257 86 LINE SMOOTH",
"461 86 OFFCURVE",
"537 226 OFFCURVE",
"537 354 CURVE SMOOTH",
"537 534 OFFCURVE",
"410 608 OFFCURVE",
"253 608 CURVE SMOOTH",
"81 608 LINE",
"81 0 LINE"
);
},
{
closed = 1;
nodes = (
"210 176 LINE",
"210 525 LINE",
"195 507 LINE",
"260 507 LINE SMOOTH",
"372 507 OFFCURVE",
"408 446 OFFCURVE",
"408 347 CURVE SMOOTH",
"408 250 OFFCURVE",
"372 188 OFFCURVE",
"260 188 CURVE SMOOTH",
"192 188 LINE"
);
},
{
closed = 1;
nodes = (
"210 697 LINE",
"81 697 LINE",
"81 608 LINE",
"210 513 LINE"
);
}
);
width = 555;
}
);
leftKerningGroup = H;
rightKerningGroup = Thorn;
unicode = 00DE;
userData = {
com.typemytype.robofont.mark = (
0.656,
1,
0.6,
1
);
};
},
{
color = 4;
glyphname = Q;
lastChange = "2018-05-15 18:21:37 +0000";
layers = (
{
anchors = (
{
name = top;
position = "{347, 830}";
}
);
components = (
{
name = O;
}
);
layerId = "B61D43DE-5272-4FF4-A680-608B6BF5ED9E";
paths = (
{
closed = 1;
nodes = (
"646 -72 LINE",
"647 50 LINE",
"389 50 LINE",
"362 0 LINE"
);
}
);
width = 658;
}
);
leftKerningGroup = O;
rightKerningGroup = O;
unicode = 0051;
userData = {
com.typemytype.robofont.mark = (
0.656,
1,
0.6,
1
);
};
},
{
color = 4;
glyphname = R;
lastChange = "2018-05-15 18:22:08 +0000";
layers = (
{
anchors = (
{
name = btm;
position = "{291, 0}";
},
{
name = top;
position = "{307, 830}";
}
);
layerId = "B61D43DE-5272-4FF4-A680-608B6BF5ED9E";
paths = (
{
closed = 1;
nodes = (
"349 300 OFFCURVE",
"395 360 OFFCURVE",
"395 448 CURVE",
"395 538 OFFCURVE",
"358 597 OFFCURVE",
"258 597 CURVE SMOOTH",
"190 597 LINE",
"208 613 LINE",
"208 289 LINE",
"188 300 LINE",
"261 300 LINE"
);
},
{
closed = 1;
nodes = (
"208 0 LINE",
"81 0 LINE",
"81 697 LINE",
"268 697 LINE SMOOTH",
"410 697 OFFCURVE",
"523 621 OFFCURVE",
"523 454 CURVE SMOOTH",
"523 333 OFFCURVE",
"462 204 OFFCURVE",
"272 215 CURVE",
"346 244 LINE",
"542 0 LINE",
"387 0 LINE",
"203 240 LINE",
"208 249 LINE"
);
}
);
width = 574;
}
);
leftKerningGroup = H;
rightKerningGroup = R;
unicode = 0052;
userData = {
com.typemytype.robofont.mark = (
0.656,
1,
0.6,
1
);
};
},
{
color = 4;
glyphname = S;
lastChange = "2018-05-15 18:26:58 +0000";
layers = (
{
anchors = (
{
name = btm;
position = "{259, 0}";
},
{
name = top;
position = "{269, 830}";
}
);
layerId = "B61D43DE-5272-4FF4-A680-608B6BF5ED9E";
paths = (
{
closed = 1;
nodes = (
"79 29 OFFCURVE",
"157 -11 OFFCURVE",
"251 -11 CURVE SMOOTH",
"384 -11 OFFCURVE",
"465 55 OFFCURVE",
"469 183 CURVE SMOOTH",
"473 301 OFFCURVE",
"389 350 OFFCURVE",
"293 408 CURVE SMOOTH",
"237 444 OFFCURVE",
"191 470 OFFCURVE",
"191 529 CURVE SMOOTH",
"191 566 OFFCURVE",
"220 603 OFFCURVE",
"269 603 CURVE SMOOTH",
"333 603 OFFCURVE",
"374 562 OFFCURVE",
"389 542 CURVE",
"445 644 LINE",
"418 668 OFFCURVE",
"369 709 OFFCURVE",
"261 709 CURVE SMOOTH",
"133 709 OFFCURVE",
"63 624 OFFCURVE",
"61 527 CURVE SMOOTH",
"57 399 OFFCURVE",
"140 352 OFFCURVE",
"230 299 CURVE SMOOTH",
"297 258 OFFCURVE",
"338 233 OFFCURVE",
"338 180 CURVE SMOOTH",
"338 125 OFFCURVE",
"295 97 OFFCURVE",
"248 97 CURVE SMOOTH",
"180 97 OFFCURVE",
"119 141 OFFCURVE",
"96 170 CURVE",
"45 65 LINE"
);
}
);
width = 508;
}
);
leftKerningGroup = S;
rightKerningGroup = S;
unicode = 0053;
userData = {
com.typemytype.robofont.mark = (
0.656,
1,
0.6,
1
);
};
},
{
color = 0;
glyphname = uni1E9E;
lastChange = "2018-05-15 18:32:03 +0000";
layers = (
{
layerId = "B61D43DE-5272-4FF4-A680-608B6BF5ED9E";
paths = (
{
closed = 1;
nodes = (
"276 5 OFFCURVE",
"316 -17 OFFCURVE",
"387 -17 CURVE SMOOTH",
"515 -17 OFFCURVE",
"584 85 OFFCURVE",
"584 224 CURVE SMOOTH",
"584 337 OFFCURVE",
"513 356 OFFCURVE",
"393 368 CURVE",
"393 350 LINE",
"470 350 OFFCURVE",
"549 553 OFFCURVE",
"565 610 CURVE",
"565 674 OFFCURVE",
"501 717 OFFCURVE",
"353 717 CURVE SMOOTH",
"258 717 OFFCURVE",
"93 674 OFFCURVE",
"93 508 CURVE SMOOTH",
"93 -83 LINE",
"221 -83 LINE",
"221 519 LINE SMOOTH",
"221 565 OFFCURVE",
"257 619 OFFCURVE",
"317 619 CURVE SMOOTH",
"356 619 OFFCURVE",
"421 632 OFFCURVE",
"448 580 CURVE",
"408 538 OFFCURVE",
"345 381 OFFCURVE",
"303 381 CURVE",
"303 311 LINE",
"401 311 OFFCURVE",
"448 305 OFFCURVE",
"448 222 CURVE SMOOTH",
"448 141 OFFCURVE",
"428 77 OFFCURVE",
"366 77 CURVE SMOOTH",
"331 77 OFFCURVE",
"299 94 OFFCURVE",
"291 102 CURVE",
"257 19 LINE"
);
}
);
width = 590;
}
);
leftKerningGroup = uni1E9E;
rightKerningGroup = uni1E9E;
unicode = 1E9E;
userData = {
com.typemytype.robofont.mark = (
0.6,
0.986,
1,
1
);
};
},
{
color = 0;
glyphname = uni018F;
lastChange = "2018-05-15 18:32:08 +0000";
layers = (
{
anchors = (
{
name = top;
position = "{320, 830}";
}
);
layerId = "B61D43DE-5272-4FF4-A680-608B6BF5ED9E";
paths = (
{
closed = 1;
nodes = (
"383 599 OFFCURVE",
"444 510 OFFCURVE",
"444 360 CURVE SMOOTH",
"444 199 OFFCURVE",
"395 89 OFFCURVE",
"283 89 CURVE SMOOTH",
"201 89 OFFCURVE",
"164 141 OFFCURVE",
"164 237 CURVE SMOOTH",
"164 242 OFFCURVE",
"165 277 OFFCURVE",
"165 283 CURVE",
"110 254 LINE",
"520 254 LINE",
"520 359 LINE",
"39 359 LINE",
"39 290 LINE",
"39 71 OFFCURVE",
"131 -18 OFFCURVE",
"286 -18 CURVE SMOOTH",
"481 -18 OFFCURVE",
"584 131 OFFCURVE",
"584 360 CURVE SMOOTH",
"584 585 OFFCURVE",
"476 714 OFFCURVE",
"295 714 CURVE SMOOTH",
"175 714 OFFCURVE",
"103 668 OFFCURVE",
"72 646 CURVE",
"128 543 LINE",
"183 582 OFFCURVE",
"223 599 OFFCURVE",
"287 599 CURVE SMOOTH"
);
}
);
width = 618;
}
);
leftKerningGroup = uni018F;
rightKerningGroup = uni018F;
unicode = 018F;
userData = {
com.typemytype.robofont.mark = (
0.6,
0.986,
1,
1
);
};
},
{
color = 4;
glyphname = T;
lastChange = "2018-05-15 18:32:24 +0000";
layers = (
{
anchors = (
{
name = btm;
position = "{244, 0}";
},
{
name = top;
position = "{244, 830}";
}
);
layerId = "B61D43DE-5272-4FF4-A680-608B6BF5ED9E";
paths = (
{
closed = 1;
nodes = (
"310 0 LINE",
"310 607 LINE",
"294 584 LINE",
"469 584 LINE",
"469 697 LINE",
"18 697 LINE",
"18 584 LINE",
"193 584 LINE",
"180 607 LINE",
"180 0 LINE"
);
}
);
width = 487;
}
);
leftKerningGroup = T;
rightKerningGroup = T;
unicode = 0054;
userData = {
com.typemytype.robofont.mark = (
0.656,
1,
0.6,
1
);
};
},
{
color = 4;
glyphname = Tbar;
lastChange = "2018-05-16 03:57:58 +0000";
layers = (
{
components = (
{
name = T;
transform = "{1, 0, 0, 1, -2, 0}";
}
);
layerId = "B61D43DE-5272-4FF4-A680-608B6BF5ED9E";
paths = (
{
closed = 1;
nodes = (
"436 316 LINE",
"436 401 LINE",
"69 401 LINE",
"69 316 LINE"
);
}
);
width = 482;
}
);
leftKerningGroup = T;
rightKerningGroup = T;
unicode = 0166;
userData = {
com.typemytype.robofont.mark = (
0.6,
0.986,
1,
1
);
};
},
{
color = 4;
glyphname = U;
lastChange = "2018-05-15 18:32:57 +0000";
layers = (
{
anchors = (
{
name = btm;
position = "{316, 0}";
},
{
name = top;
position = "{314, 830}";
}
);
layerId = "B61D43DE-5272-4FF4-A680-608B6BF5ED9E";
paths = (
{
closed = 1;
nodes = (
"70 49 OFFCURVE",
"181 -18 OFFCURVE",
"318 -18 CURVE SMOOTH",
"451 -18 OFFCURVE",
"559 49 OFFCURVE",
"559 249 CURVE SMOOTH",
"559 697 LINE",
"429 697 LINE",
"429 235 LINE SMOOTH",
"429 116 OFFCURVE",
"365 90 OFFCURVE",
"316 90 CURVE SMOOTH",
"269 90 OFFCURVE",
"200 117 OFFCURVE",
"200 235 CURVE SMOOTH",
"200 697 LINE",
"70 697 LINE",
"70 249 LINE"
);
}
);
width = 629;
}
);
leftKerningGroup = U;
rightKerningGroup = U;
unicode = 0055;
userData = {
com.typemytype.robofont.mark = (
0.656,
1,
0.6,
1
);
};
},
{
color = 0;
glyphname = Uhorn;
lastChange = "2018-05-15 18:33:36 +0000";
layers = (
{
anchors = (
{
name = btm;
position = "{316, 0}";
},
{
name = top;
position = "{314, 830}";
}
);
layerId = "B61D43DE-5272-4FF4-A680-608B6BF5ED9E";
paths = (
{
closed = 1;
nodes = (
"550 598 LINE",
"586 598 OFFCURVE",
"646 659 OFFCURVE",
"646 709 CURVE SMOOTH",
"646 750 OFFCURVE",
"644 765 OFFCURVE",
"639 781 CURVE",
"545 781 LINE",
"551 765 OFFCURVE",
"553 751 OFFCURVE",
"553 724 CURVE SMOOTH",
"553 677 OFFCURVE",
"483 663 OFFCURVE",
"466 663 CURVE"
);
},
{
closed = 1;
nodes = (
"70 49 OFFCURVE",
"181 -18 OFFCURVE",
"318 -18 CURVE SMOOTH",
"451 -18 OFFCURVE",
"559 49 OFFCURVE",
"559 249 CURVE SMOOTH",
"559 697 LINE",
"429 697 LINE",
"429 235 LINE SMOOTH",
"429 116 OFFCURVE",
"365 90 OFFCURVE",
"316 90 CURVE SMOOTH",
"269 90 OFFCURVE",
"200 117 OFFCURVE",
"200 235 CURVE SMOOTH",
"200 697 LINE",
"70 697 LINE",
"70 249 LINE"
);
}
);
width = 629;
}
);
leftKerningGroup = U;
rightKerningGroup = U;
unicode = 01AF;
userData = {
com.typemytype.robofont.mark = (
0.6,
0.609,
1,
1
);
};
},
{
color = 0;
glyphname = Uogonek;
lastChange = "2018-05-16 04:03:52 +0000";
layers = (
{
components = (
{
name = U;
transform = "{1, 0, 0, 1, -2, 0}";
}
);
layerId = "B61D43DE-5272-4FF4-A680-608B6BF5ED9E";
paths = (
{
closed = 1;
nodes = (
"194 -196 OFFCURVE",
"251 -248 OFFCURVE",
"348 -250 CURVE SMOOTH",
"390 -250 OFFCURVE",
"441 -239 OFFCURVE",
"458 -225 CURVE",
"441 -143 LINE",
"416 -157 OFFCURVE",
"376 -163 OFFCURVE",
"354 -163 CURVE SMOOTH",
"314 -162 OFFCURVE",
"293 -139 OFFCURVE",
"292 -104 CURVE SMOOTH",
"292 -63 OFFCURVE",
"348 -35 OFFCURVE",
"458 29 CURVE",
"379 33 LINE",
"309 0 LINE",
"231 -31 OFFCURVE",
"197 -75 OFFCURVE",
"196 -125 CURVE SMOOTH"
);
}
);
width = 624;
}
);
leftKerningGroup = U;
rightKerningGroup = U;
unicode = 0172;
userData = {
com.typemytype.robofont.mark = (
0.6,
0.986,
1,
1
);
};
},
{
color = 4;
glyphname = V;
lastChange = "2018-05-15 18:34:03 +0000";
layers = (
{
anchors = (
{
name = top;
position = "{274, 830}";
}
);
layerId = "B61D43DE-5272-4FF4-A680-608B6BF5ED9E";
paths = (
{
closed = 1;
nodes = (
"559 697 LINE",
"420 697 LINE",
"258 235 LINE",
"297 235 LINE",
"131 697 LINE",
"-10 697 LINE",
"278 -22 LINE"
);
}
);
width = 549;
}
);
leftKerningGroup = V;
rightKerningGroup = V;
unicode = 0056;
userData = {
com.typemytype.robofont.mark = (
0.656,
1,
0.6,
1
);
};
},
{
color = 4;
glyphname = W;
lastChange = "2018-05-15 18:34:03 +0000";
layers = (
{
anchors = (
{
name = top;
position = "{400, 830}";
}
);
layerId = "B61D43DE-5272-4FF4-A680-608B6BF5ED9E";
paths = (
{
closed = 1;
nodes = (
"274 213 LINE",
"128 697 LINE",
"-10 697 LINE",
"231 -22 LINE",
"418 443 LINE",
"383 443 LINE",
"573 -22 LINE",
"811 697 LINE",
"674 697 LINE",
"534 206 LINE",
"592 206 LINE",
"403 714 LINE",
"225 225 LINE"
);
}
);
width = 801;
}
);
leftKerningGroup = W;
rightKerningGroup = W;
unicode = 0057;
userData = {
com.typemytype.robofont.guides = (
{
angle = 0;
isGlobal = 0;
magnetic = 5;
x = 0;
y = 615;
}
);
com.typemytype.robofont.mark = (
0.656,
1,
0.6,
1
);
};
},
{
color = 4;
glyphname = X;
lastChange = "2018-05-15 18:34:03 +0000";
layers = (
{
anchors = (
{
name = top;
position = "{278, 830}";
}
);
layerId = "B61D43DE-5272-4FF4-A680-608B6BF5ED9E";
paths = (
{
closed = 1;
nodes = (
"161 0 LINE",
"286 295 LINE",
"260 295 LINE",
"395 0 LINE",
"552 0 LINE",
"356 363 LINE",
"357 331 LINE",
"547 697 LINE",
"400 697 LINE",
"267 402 LINE",
"296 402 LINE",
"158 697 LINE",
"8 697 LINE",
"200 337 LINE",
"199 380 LINE",
"5 0 LINE"
);
}
);
width = 556;
}
);
leftKerningGroup = X;
rightKerningGroup = X;
unicode = 0058;
userData = {
com.typemytype.robofont.mark = (
0.656,
1,
0.6,
1
);
};
},
{
color = 4;
glyphname = Y;
lastChange = "2018-05-15 18:34:28 +0000";
layers = (
{
anchors = (
{
name = btm;
position = "{273, 0}";
},
{
name = top;
position = "{283, 830}";
}
);
layerId = "B61D43DE-5272-4FF4-A680-608B6BF5ED9E";
paths = (
{
closed = 1;
nodes = (
"335 0 LINE",
"335 332 LINE",
"203 332 LINE",
"203 0 LINE"
);
},
{
closed = 1;
nodes = (
"554 697 LINE",
"415 697 LINE",
"256 354 LINE",
"294 354 LINE",
"127 697 LINE",
"-15 697 LINE",
"273 155 LINE"
);
}
);
width = 539;
}
);
leftKerningGroup = Y;
rightKerningGroup = Y;
unicode = 0059;
userData = {
com.typemytype.robofont.mark = (
0.656,
1,
0.6,
1
);
};
},
{
color = 4;
glyphname = Z;
lastChange = "2018-05-16 03:46:24 +0000";
layers = (
{
anchors = (
{
name = btm;
position = "{254, 0}";
},
{
name = top;
position = "{280, 830}";
}
);
layerId = "B61D43DE-5272-4FF4-A680-608B6BF5ED9E";
paths = (
{
closed = 1;
nodes = (
"485 0 LINE",
"485 103 LINE",
"158 103 LINE",
"202 44 LINE",
"496 697 LINE",
"63 697 LINE",
"63 594 LINE",
"333 594 LINE",
"328 643 LINE",
"31 0 LINE"
);
}
);
width = 524;
}
);
leftKerningGroup = Z;
rightKerningGroup = Z;
unicode = 005A;
userData = {
com.typemytype.robofont.mark = (
0.656,
1,
0.6,
1
);
};
},
{
glyphname = a;
lastChange = "2018-05-15 18:14:03 +0000";
layers = (
{
anchors = (
{
name = top;
position = "{270, 830}";
}
);
layerId = "B61D43DE-5272-4FF4-A680-608B6BF5ED9E";
paths = (
{
closed = 1;
nodes = (
"46 90 OFFCURVE",
"122 -15 OFFCURVE",
"244 -15 CURVE SMOOTH",
"314 -15 OFFCURVE",
"358 25 OFFCURVE",
"378 63 CURVE",
"378 0 LINE",
"498 0 LINE",
"498 498 LINE",
"378 498 LINE",
"378 492 OFFCURVE",
"378 442 OFFCURVE",
"378 435 CURVE",
"358 470 OFFCURVE",
"314 510 OFFCURVE",
"245 510 CURVE SMOOTH",
"112 510 OFFCURVE",
"46 412 OFFCURVE",
"46 248 CURVE SMOOTH"
);
},
{
closed = 1;
nodes = (
"177 371 OFFCURVE",
"229 409 OFFCURVE",
"276 409 CURVE SMOOTH",
"337 409 OFFCURVE",
"366 350 OFFCURVE",
"366 246 CURVE SMOOTH",
"366 132 OFFCURVE",
"321 85 OFFCURVE",
"273 85 CURVE SMOOTH",
"218 85 OFFCURVE",
"177 138 OFFCURVE",
"177 248 CURVE SMOOTH"
);
}
);
width = 574;
}
);
leftKerningGroup = a;
rightKerningGroup = n;
unicode = 0061;
userData = {
com.typemytype.robofont.mark = (
0.656,
1,
0.6,
1
);
};
},
{
glyphname = aogonek;
lastChange = "2018-05-15 18:14:03 +0000";
layers = (
{
components = (
{
name = a;
transform = "{1, 0, 0, 1, 7, 0}";
}
);
layerId = "B61D43DE-5272-4FF4-A680-608B6BF5ED9E";
paths = (
{
closed = 1;
nodes = (
"272 -201 OFFCURVE",
"324 -248 OFFCURVE",
"420 -250 CURVE SMOOTH",
"462 -250 OFFCURVE",
"513 -239 OFFCURVE",
"530 -225 CURVE",
"514 -152 LINE",
"488 -167 OFFCURVE",
"449 -173 OFFCURVE",
"427 -172 CURVE SMOOTH",
"386 -172 OFFCURVE",
"362 -148 OFFCURVE",
"365 -114 CURVE SMOOTH",
"369 -58 OFFCURVE",
"434 -18 OFFCURVE",
"505 0 CURVE",
"452 33 LINE",
"381 10 LINE",
"303 -31 OFFCURVE",
"274 -80 OFFCURVE",
"273 -129 CURVE"
);
}
);
width = 577;
}
);
leftKerningGroup = a;
rightKerningGroup = n;
unicode = 0105;
userData = {
com.typemytype.robofont.mark = (
0.6,
0.986,
1,
1
);
};
},
{
glyphname = ae;
lastChange = "2018-05-15 18:14:03 +0000";
layers = (
{
anchors = (
{
name = top;
position = "{428, 830}";
}
);
layerId = "B61D43DE-5272-4FF4-A680-608B6BF5ED9E";
paths = (
{
closed = 1;
nodes = (
"46 105 OFFCURVE",
"122 -15 OFFCURVE",
"244 -15 CURVE SMOOTH",
"302 -15 OFFCURVE",
"355 25 OFFCURVE",
"375 78 CURVE",
"375 0 LINE",
"486 0 LINE",
"486 498 LINE",
"375 498 LINE",
"376 493 OFFCURVE",
"375 431 OFFCURVE",
"375 425 CURVE",
"355 485 OFFCURVE",
"292 510 OFFCURVE",
"245 510 CURVE SMOOTH",
"112 510 OFFCURVE",
"46 397 OFFCURVE",
"46 248 CURVE SMOOTH"
);
},
{
closed = 1;
nodes = (
"175 366 OFFCURVE",
"229 409 OFFCURVE",
"276 409 CURVE SMOOTH",
"335 409 OFFCURVE",
"370 345 OFFCURVE",
"370 246 CURVE SMOOTH",
"370 137 OFFCURVE",
"319 85 OFFCURVE",
"273 85 CURVE SMOOTH",
"218 85 OFFCURVE",
"175 143 OFFCURVE",
"175 248 CURVE SMOOTH"
);
},
{
closed = 1;
nodes = (
"690 -18 OFFCURVE",
"744 11 OFFCURVE",
"771 29 CURVE",
"724 124 LINE",
"701 98 OFFCURVE",
"654 77 OFFCURVE",
"612 77 CURVE",
"531 77 OFFCURVE",
"494 129 OFFCURVE",
"490 208 CURVE",
"790 208 LINE",
"791 223 OFFCURVE",
"791 241 OFFCURVE",
"791 255 CURVE SMOOTH",
"791 394 OFFCURVE",
"736 510 OFFCURVE",
"587 510 CURVE SMOOTH",
"457 510 OFFCURVE",
"396 388 OFFCURVE",
"396 243 CURVE SMOOTH",
"396 105 OFFCURVE",
"443 -18 OFFCURVE",
"591 -18 CURVE SMOOTH"
);
},
{
closed = 1;
nodes = (
"495 357 OFFCURVE",
"520 415 OFFCURVE",
"587 415 CURVE SMOOTH",
"628 415 OFFCURVE",
"665 381 OFFCURVE",
"665 287 CURVE",
"491 286 LINE"
);
}
);
width = 839;
}
);
leftKerningGroup = a;
rightKerningGroup = e;
unicode = 00E6;
userData = {
com.typemytype.robofont.mark = (
0.656,
1,
0.6,
1
);
};
},
{
glyphname = b;
lastChange = "2018-05-15 18:14:03 +0000";
layers = (
{
anchors = (
{
name = top;
position = "{375, 830}";
}
);
layerId = "B61D43DE-5272-4FF4-A680-608B6BF5ED9E";
paths = (
{
closed = 1;
nodes = (
"194 0 LINE",
"194 38 LINE",
"193 74 LINE",
"215 14 OFFCURVE",
"269 -15 OFFCURVE",
"325 -15 CURVE",
"435 -15 OFFCURVE",
"521 72 OFFCURVE",
"521 251 CURVE SMOOTH",
"521 430 OFFCURVE",
"458 511 OFFCURVE",
"334 511 CURVE SMOOTH",
"280 511 OFFCURVE",
"220 479 OFFCURVE",
"196 429 CURVE",
"199 482 LINE",
"199 770 LINE",
"76 770 LINE",
"76 0 LINE"
);
},
{
closed = 1;
nodes = (
"199 337 OFFCURVE",
"232 409 OFFCURVE",
"294 409 CURVE SMOOTH",
"345 409 OFFCURVE",
"391 363 OFFCURVE",
"391 251 CURVE SMOOTH",
"391 130 OFFCURVE",
"338 85 OFFCURVE",
"289 85 CURVE SMOOTH",
"231 85 OFFCURVE",
"199 149 OFFCURVE",
"199 243 CURVE SMOOTH"
);
}
);
width = 567;
}
);
leftKerningGroup = h;
rightKerningGroup = o;
unicode = 0062;
userData = {
com.typemytype.robofont.mark = (
0.656,
1,
0.6,
1
);
};
},
{
glyphname = c;
lastChange = "2018-05-15 18:14:03 +0000";
layers = (
{
anchors = (
{
name = btm;
position = "{245, -83}";
},
{
name = top;
position = "{245, 830}";
}
);
layerId = "B61D43DE-5272-4FF4-A680-608B6BF5ED9E";
paths = (
{
closed = 1;
nodes = (
"46 108 OFFCURVE",
"114 -18 OFFCURVE",
"273 -18 CURVE SMOOTH",
"354 -18 OFFCURVE",
"411 18 OFFCURVE",
"430 38 CURVE",
"392 125 LINE",
"373 104 OFFCURVE",
"335 86 OFFCURVE",
"287 86 CURVE SMOOTH",
"214 86 OFFCURVE",
"180 145 OFFCURVE",
"180 246 CURVE SMOOTH",
"180 337 OFFCURVE",
"213 403 OFFCURVE",
"287 403 CURVE SMOOTH",
"321 403 OFFCURVE",
"354 384 OFFCURVE",
"383 354 CURVE",
"424 460 LINE",
"380 502 OFFCURVE",
"328 510 OFFCURVE",
"271 510 CURVE SMOOTH",
"121 510 OFFCURVE",
"46 385 OFFCURVE",
"46 247 CURVE SMOOTH"
);
}
);
width = 451;
}
);
leftKerningGroup = o;
rightKerningGroup = c;
unicode = 0063;
userData = {
com.typemytype.robofont.mark = (
0.656,
1,
0.6,
1
);
};
},
{
glyphname = d;
lastChange = "2018-05-15 18:14:03 +0000";
layers = (
{
anchors = (
{
name = top;
position = "{201, 830}";
}
);
layerId = "B61D43DE-5272-4FF4-A680-608B6BF5ED9E";
paths = (
{
closed = 1;
nodes = (
"46 90 OFFCURVE",
"123 -15 OFFCURVE",
"244 -15 CURVE SMOOTH",
"314 -15 OFFCURVE",
"357 25 OFFCURVE",
"379 68 CURVE",
"377 33 LINE",
"377 0 LINE",
"492 0 LINE",
"492 770 LINE",
"369 770 LINE",
"369 485 LINE",
"376 436 LINE",
"357 470 OFFCURVE",
"314 510 OFFCURVE",
"246 510 CURVE SMOOTH",
"113 510 OFFCURVE",
"46 412 OFFCURVE",
"46 248 CURVE SMOOTH"
);
},
{
closed = 1;
nodes = (
"178 370 OFFCURVE",
"230 409 OFFCURVE",
"277 409 CURVE SMOOTH",
"337 409 OFFCURVE",
"365 350 OFFCURVE",
"365 246 CURVE SMOOTH",
"365 132 OFFCURVE",
"322 85 OFFCURVE",
"274 85 CURVE SMOOTH",
"219 85 OFFCURVE",
"178 138 OFFCURVE",
"178 249 CURVE SMOOTH"
);
}
);
width = 568;
}
);
leftKerningGroup = o;
rightKerningGroup = l;
unicode = 0064;
userData = {
com.typemytype.robofont.mark = (
0.656,
1,
0.6,
1
);
};
},
{
glyphname = eth;
lastChange = "2018-05-15 18:14:03 +0000";
layers = (
{
layerId = "B61D43DE-5272-4FF4-A680-608B6BF5ED9E";
paths = (
{
closed = 1;
nodes = (
"297 660 LINE",
"324 692 LINE",
"382 774 LINE",
"312 819 LINE",
"253 738 LINE",
"222 695 LINE",
"156 605 LINE",
"224 562 LINE"
);
},
{
closed = 1;
nodes = (
"49 94 OFFCURVE",
"152 -17 OFFCURVE",
"274 -17 CURVE SMOOTH",
"408 -17 OFFCURVE",
"514 71 OFFCURVE",
"514 296 CURVE SMOOTH",
"514 473 OFFCURVE",
"429 648 OFFCURVE",
"304 721 CURVE SMOOTH",
"291 729 OFFCURVE",
"277 737 OFFCURVE",
"263 744 CURVE SMOOTH",
"221 767 OFFCURVE",
"175 783 OFFCURVE",
"128 785 CURVE",
"106 711 LINE",
"147 708 OFFCURVE",
"187 693 OFFCURVE",
"225 667 CURVE SMOOTH",
"237 661 OFFCURVE",
"247 652 OFFCURVE",
"258 646 CURVE SMOOTH",
"321 605 OFFCURVE",
"370 529 OFFCURVE",
"378 433 CURVE",
"392 449 LINE",
"357 489 OFFCURVE",
"317 511 OFFCURVE",
"263 511 CURVE SMOOTH",
"120 511 OFFCURVE",
"49 395 OFFCURVE",
"49 242 CURVE SMOOTH"
);
},
{
closed = 1;
nodes = (
"183 337 OFFCURVE",
"217 409 OFFCURVE",
"282 409 CURVE SMOOTH",
"337 409 OFFCURVE",
"369 359 OFFCURVE",
"378 315 CURVE",
"381 294 OFFCURVE",
"381 276 OFFCURVE",
"381 251 CURVE SMOOTH",
"381 157 OFFCURVE",
"347 85 OFFCURVE",
"282 85 CURVE SMOOTH",
"224 85 OFFCURVE",
"183 150 OFFCURVE",
"183 248 CURVE SMOOTH"
);
}
);
width = 558;
}
);
leftKerningGroup = eth;
rightKerningGroup = eth;
unicode = 00F0;
userData = {
com.typemytype.robofont.mark = (
0.656,
1,
0.6,
1
);
};
},
{
glyphname = dcroat;
lastChange = "2018-05-15 18:14:03 +0000";
layers = (
{
components = (
{
name = d;
transform = "{1, 0, 0, 1, 9, 0}";
}
);
layerId = "B61D43DE-5272-4FF4-A680-608B6BF5ED9E";
paths = (
{
closed = 1;
nodes = (
"553 618 LINE",
"554 679 LINE",
"308 679 LINE",
"308 618 LINE"
);
}
);
width = 581;
}
);
leftKerningGroup = o;
rightKerningGroup = l;
unicode = 0111;
userData = {
com.typemytype.robofont.mark = (
0.6,
0.986,
1,
1
);
};
},
{
glyphname = e;
lastChange = "2018-05-15 18:14:03 +0000";
layers = (
{
anchors = (
{
name = top;
position = "{278, 830}";
}
);
layerId = "B61D43DE-5272-4FF4-A680-608B6BF5ED9E";
paths = (
{
closed = 1;
nodes = (
"380 -18 OFFCURVE",
"435 11 OFFCURVE",
"462 29 CURVE",
"422 124 LINE",
"399 98 OFFCURVE",
"344 77 OFFCURVE",
"303 77 CURVE",
"222 77 OFFCURVE",
"183 129 OFFCURVE",
"179 208 CURVE",
"480 208 LINE",
"481 223 OFFCURVE",
"481 241 OFFCURVE",
"481 255 CURVE SMOOTH",
"481 413 OFFCURVE",
"429 510 OFFCURVE",
"280 510 CURVE SMOOTH",
"130 510 OFFCURVE",
"48 388 OFFCURVE",
"48 243 CURVE SMOOTH",
"48 105 OFFCURVE",
"114 -18 OFFCURVE",
"282 -18 CURVE SMOOTH"
);
},
{
closed = 1;
nodes = (
"182 357 OFFCURVE",
"215 415 OFFCURVE",
"283 415 CURVE SMOOTH",
"324 415 OFFCURVE",
"355 392 OFFCURVE",
"355 287 CURVE",
"178 286 LINE"
);
}
);
width = 525;
}
);
leftKerningGroup = o;
rightKerningGroup = e;
unicode = 0065;
userData = {
com.typemytype.robofont.guides = (
{
angle = 0;
isGlobal = 0;
magnetic = 5;
x = 0;
y = 869;
}
);
com.typemytype.robofont.mark = (
0.656,
1,
0.6,
1
);
};
},
{
glyphname = eogonek;
lastChange = "2018-05-15 18:14:03 +0000";
layers = (
{
components = (
{
name = e;
transform = "{1, 0, 0, 1, 1, 0}";
}
);
layerId = "B61D43DE-5272-4FF4-A680-608B6BF5ED9E";
paths = (
{
closed = 1;
nodes = (
"200 -196 OFFCURVE",
"257 -248 OFFCURVE",
"354 -250 CURVE SMOOTH",
"395 -250 OFFCURVE",
"446 -239 OFFCURVE",
"463 -225 CURVE",
"447 -143 LINE",
"421 -157 OFFCURVE",
"382 -163 OFFCURVE",
"360 -163 CURVE SMOOTH",
"319 -162 OFFCURVE",
"298 -139 OFFCURVE",
"298 -104 CURVE SMOOTH",
"297 -63 OFFCURVE",
"354 -35 OFFCURVE",
"463 29 CURVE",
"385 33 LINE",
"314 0 LINE",
"236 -31 OFFCURVE",
"202 -75 OFFCURVE",
"201 -125 CURVE SMOOTH"
);
}
);
width = 530;
}
);
leftKerningGroup = o;
rightKerningGroup = e;
unicode = 0119;
userData = {
com.typemytype.robofont.mark = (
0.6,
0.986,
1,
1
);
};
},
{
glyphname = uni0259;
lastChange = "2018-05-15 18:14:03 +0000";
layers = (
{
anchors = (
{
name = top;
position = "{279, 830}";
}
);
layerId = "B61D43DE-5272-4FF4-A680-608B6BF5ED9E";
paths = (
{
closed = 1;
nodes = (
"149 510 OFFCURVE",
"95 481 OFFCURVE",
"68 463 CURVE",
"116 369 LINE",
"138 395 OFFCURVE",
"186 415 OFFCURVE",
"227 416 CURVE",
"308 416 OFFCURVE",
"347 363 OFFCURVE",
"351 284 CURVE",
"50 284 LINE",
"49 269 OFFCURVE",
"49 251 OFFCURVE",
"49 237 CURVE SMOOTH",
"49 79 OFFCURVE",
"101 -18 OFFCURVE",
"250 -18 CURVE SMOOTH",
"399 -18 OFFCURVE",
"482 104 OFFCURVE",
"482 250 CURVE SMOOTH",
"482 387 OFFCURVE",
"416 510 OFFCURVE",
"248 510 CURVE"
);
},
{
closed = 1;
nodes = (
"348 135 OFFCURVE",
"320 78 OFFCURVE",
"252 78 CURVE SMOOTH",
"211 78 OFFCURVE",
"174 111 OFFCURVE",
"174 206 CURVE",
"352 206 LINE"
);
}
);
width = 530;
}
);
leftKerningGroup = uni0259;
rightKerningGroup = uni0259;
unicode = 0259;
userData = {
com.typemytype.robofont.guides = (
{
angle = 0;
isGlobal = 0;
magnetic = 5;
x = 0;
y = 869;
}
);
com.typemytype.robofont.mark = (
0.6,
0.986,
1,
1
);
};
},
{
glyphname = f;
lastChange = "2018-05-15 18:14:03 +0000";
layers = (
{
anchors = (
{
name = top;
position = "{193, 1030}";
}
);
layerId = "B61D43DE-5272-4FF4-A680-608B6BF5ED9E";
paths = (
{
closed = 1;
nodes = (
"217 0 LINE",
"217 403 LINE",
"330 403 LINE",
"330 498 LINE",
"217 498 LINE",
"217 592 LINE SMOOTH",
"217 659 OFFCURVE",
"255 682 OFFCURVE",
"292 682 CURVE SMOOTH",
"313 682 OFFCURVE",
"349 673 OFFCURVE",
"364 654 CURVE",
"364 763 LINE",
"358 769 OFFCURVE",
"322 785 OFFCURVE",
"261 785 CURVE SMOOTH",
"194 785 OFFCURVE",
"92 753 OFFCURVE",
"92 599 CURVE SMOOTH",
"92 498 LINE",
"25 498 LINE",
"25 403 LINE",
"92 403 LINE",
"92 0 LINE"
);
}
);
width = 349;
}
);
leftKerningGroup = f;
rightKerningGroup = f;
unicode = 0066;
userData = {
com.typemytype.robofont.mark = (
0.656,
1,
0.6,
1
);
};
},
{
glyphname = g;
lastChange = "2018-05-15 18:14:03 +0000";
layers = (
{
anchors = (
{
name = top;
position = "{278, 830}";
}
);
layerId = "B61D43DE-5272-4FF4-A680-608B6BF5ED9E";
paths = (
{
closed = 1;
nodes = (
"379 0 LINE",
"377 -116 OFFCURVE",
"340 -154 OFFCURVE",
"248 -154 CURVE SMOOTH",
"201 -154 OFFCURVE",
"147 -129 OFFCURVE",
"117 -81 CURVE",
"84 -198 LINE",
"111 -221 OFFCURVE",
"162 -254 OFFCURVE",
"254 -254 CURVE SMOOTH",
"435 -254 OFFCURVE",
"501 -158 OFFCURVE",
"501 8 CURVE SMOOTH",
"501 498 LINE",
"394 498 LINE",
"388 399 LINE",
"410 414 LINE",
"390 464 OFFCURVE",
"337 511 OFFCURVE",
"259 511 CURVE SMOOTH",
"138 511 OFFCURVE",
"50 432 OFFCURVE",
"50 248 CURVE SMOOTH",
"50 67 OFFCURVE",
"148 -17 OFFCURVE",
"248 -17 CURVE SMOOTH",
"329 -17 OFFCURVE",
"370 28 OFFCURVE",
"389 87 CURVE",
"379 87 LINE"
);
},
{
closed = 1;
nodes = (
"185 368 OFFCURVE",
"232 409 OFFCURVE",
"283 409 CURVE SMOOTH",
"344 409 OFFCURVE",
"379 345 OFFCURVE",
"379 250 CURVE SMOOTH",
"379 136 OFFCURVE",
"340 86 OFFCURVE",
"282 86 CURVE SMOOTH",
"225 86 OFFCURVE",
"185 141 OFFCURVE",
"185 249 CURVE SMOOTH"
);
}
);
width = 578;
}
);
leftKerningGroup = g;
rightKerningGroup = g;
unicode = 0067;
userData = {
com.typemytype.robofont.mark = (
0.656,
1,
0.6,
1
);
};
},
{
glyphname = h;
lastChange = "2018-05-15 18:14:03 +0000";
layers = (
{
anchors = (
{
name = top;
position = "{282, 830}";
}
);
layerId = "B61D43DE-5272-4FF4-A680-608B6BF5ED9E";
paths = (
{
closed = 1;
nodes = (
"199 0 LINE",
"199 316 LINE SMOOTH",
"199 371 OFFCURVE",
"242 409 OFFCURVE",
"289 409 CURVE SMOOTH",
"336 409 OFFCURVE",
"364 371 OFFCURVE",
"364 316 CURVE SMOOTH",
"364 0 LINE",
"492 0 LINE",
"492 329 LINE SMOOTH",
"492 442 OFFCURVE",
"443 510 OFFCURVE",
"343 510 CURVE SMOOTH",
"250 510 OFFCURVE",
"199 455 OFFCURVE",
"176 408 CURVE",
"192 388 LINE",
"199 492 LINE",
"199 770 LINE",
"76 770 LINE",
"76 0 LINE"
);
}
);
width = 562;
}
);
leftKerningGroup = h;
rightKerningGroup = n;
unicode = 0068;
userData = {
com.typemytype.robofont.mark = (
0.656,
1,
0.6,
1
);
};
},
{
glyphname = hbar;
lastChange = "2018-05-15 18:14:03 +0000";
layers = (
{
components = (
{
name = h;
transform = "{1, 0, 0, 1, 4, 0}";
}
);
layerId = "B61D43DE-5272-4FF4-A680-608B6BF5ED9E";
paths = (
{
closed = 1;
nodes = (
"307 597 LINE",
"307 657 LINE",
"12 657 LINE",
"12 597 LINE"
);
}
);
width = 569;
}
);
leftKerningGroup = h;
rightKerningGroup = n;
unicode = 0127;
userData = {
com.typemytype.robofont.mark = (
0.6,
0.986,
1,
1
);
};
},
{
glyphname = i;
lastChange = "2018-05-15 18:36:04 +0000";
layers = (
{
anchors = (
{
name = _top;
position = "{139.75, 832.078}";
},
{
name = top;
position = "{140, 832}";
}
);
layerId = "B61D43DE-5272-4FF4-A680-608B6BF5ED9E";
paths = (
{
closed = 1;
nodes = (
"209 0 LINE",
"209 498 LINE",
"76 498 LINE",
"76 0 LINE"
);
},
{
closed = 1;
nodes = (
"207 606 LINE",
"207 739 LINE",
"70 739 LINE",
"70 606 LINE"
);
}
);
width = 279;
}
);
leftKerningGroup = idotless;
rightKerningGroup = idotless;
unicode = 0069;
userData = {
com.typemytype.robofont.mark = (
0.656,
1,
0.6,
1
);
};
},
{
glyphname = idotless;
lastChange = "2018-05-15 19:08:39 +0000";
layers = (
{
anchors = (
{
name = btm;
position = "{143, 0}";
},
{
name = top;
position = "{140, 832}";
}
);
layerId = "B61D43DE-5272-4FF4-A680-608B6BF5ED9E";
paths = (
{
closed = 1;
nodes = (
"209 0 LINE",
"209 498 LINE",
"76 498 LINE",
"76 0 LINE"
);
}
);
width = 285;
}
);
leftKerningGroup = idotless;
rightKerningGroup = idotless;
unicode = 0131;
userData = {
com.typemytype.robofont.mark = (
0.656,
1,
0.6,
1
);
};
},
{
glyphname = iogonek;
lastChange = "2018-05-15 18:14:03 +0000";
layers = (
{
layerId = "B61D43DE-5272-4FF4-A680-608B6BF5ED9E";
paths = (
{
closed = 1;
nodes = (
"-23 -201 OFFCURVE",
"28 -248 OFFCURVE",
"125 -250 CURVE SMOOTH",
"167 -250 OFFCURVE",
"218 -239 OFFCURVE",
"234 -225 CURVE",
"218 -152 LINE",
"192 -167 OFFCURVE",
"153 -173 OFFCURVE",
"131 -172 CURVE SMOOTH",
"91 -172 OFFCURVE",
"66 -148 OFFCURVE",
"69 -114 CURVE SMOOTH",
"74 -58 OFFCURVE",
"138 -18 OFFCURVE",
"209 0 CURVE",
"156 33 LINE",
"85 10 LINE",
"8 -31 OFFCURVE",
"-21 -80 OFFCURVE",
"-22 -129 CURVE"
);
}
);
width = 281;
}
);
leftKerningGroup = i;
rightKerningGroup = i;
unicode = 012F;
userData = {
com.typemytype.robofont.mark = (
0.6,
0.986,
1,
1
);
};
},
{
glyphname = j;
lastChange = "2018-05-15 18:36:18 +0000";
layers = (
{
anchors = (
{
name = _top;
position = "{140.75, 830.078}";
},
{
name = top;
position = "{136.695, 832.031}";
}
);
layerId = "B61D43DE-5272-4FF4-A680-608B6BF5ED9E";
paths = (
{
closed = 1;
nodes = (
"76 -112 OFFCURVE",
"67 -167 OFFCURVE",
"24 -167 CURVE SMOOTH",
"-1 -167 OFFCURVE",
"-40 -153 OFFCURVE",
"-65 -137 CURVE",
"-81 -235 LINE",
"-50 -246 OFFCURVE",
"-1 -252 OFFCURVE",
"26 -252 CURVE SMOOTH",
"133 -252 OFFCURVE",
"199 -211 OFFCURVE",
"202 -71 CURVE",
"202 498 LINE",
"76 498 LINE",
"76 -66 LINE"
);
},
{
closed = 1;
nodes = (
"208 604 LINE",
"208 737 LINE",
"71 737 LINE",
"71 604 LINE"
);
}
);
width = 278;
}
);
leftKerningGroup = dotaccent;
rightKerningGroup = dotlessj;
unicode = 006A;
userData = {
com.typemytype.robofont.mark = (
0.656,
1,
0.6,
1
);
};
},
{
glyphname = dotlessj;
lastChange = "2018-05-15 18:14:03 +0000";
layers = (
{
anchors = (
{
name = top;
position = "{138, 832}";
}
);
layerId = "B61D43DE-5272-4FF4-A680-608B6BF5ED9E";
paths = (
{
closed = 1;
nodes = (
"77 -112 OFFCURVE",
"68 -167 OFFCURVE",
"25 -167 CURVE SMOOTH",
"0 -167 OFFCURVE",
"-39 -153 OFFCURVE",
"-64 -137 CURVE",
"-80 -235 LINE",
"-49 -246 OFFCURVE",
"0 -252 OFFCURVE",
"27 -252 CURVE SMOOTH",
"134 -252 OFFCURVE",
"200 -211 OFFCURVE",
"203 -71 CURVE",
"203 498 LINE",
"77 498 LINE",
"77 -66 LINE"
);
}
);
width = 281;
}
);
leftKerningGroup = j;
rightKerningGroup = j;
unicode = 0237;
},
{
glyphname = k;
lastChange = "2018-05-15 18:14:03 +0000";
layers = (
{
anchors = (
{
name = btm;
position = "{289, -83}";
},
{
name = top;
position = "{289, 830}";
}
);
layerId = "B61D43DE-5272-4FF4-A680-608B6BF5ED9E";
paths = (
{
closed = 1;
nodes = (
"198 0 LINE",
"198 113 LINE",
"194 227 LINE",
"356 0 LINE",
"509 0 LINE",
"311 269 LINE",
"485 498 LINE",
"341 498 LINE",
"194 284 LINE",
"198 387 LINE",
"198 770 LINE",
"76 770 LINE",
"76 0 LINE"
);
}
);
width = 503;
}
);
leftKerningGroup = h;
rightKerningGroup = k;
unicode = 006B;
userData = {
com.typemytype.robofont.mark = (
0.656,
1,
0.6,
1
);
};
},
{
glyphname = kgreenlandic;
lastChange = "2018-05-15 18:14:03 +0000";
layers = (
{
layerId = "B61D43DE-5272-4FF4-A680-608B6BF5ED9E";
paths = (
{
closed = 1;
nodes = (
"215 0 LINE",
"215 189 LINE",
"358 0 LINE",
"524 0 LINE",
"323 262 LINE",
"505 498 LINE",
"346 498 LINE",
"215 309 LINE",
"215 498 LINE",
"80 498 LINE",
"80 0 LINE"
);
}
);
width = 511;
}
);
leftKerningGroup = h;
rightKerningGroup = k;
unicode = 0138;
userData = {
com.typemytype.robofont.mark = (
0.6,
0.986,
1,
1
);
};
},
{
glyphname = l;
lastChange = "2018-05-15 18:14:03 +0000";
layers = (
{
anchors = (
{
name = btm;
position = "{135, -83}";
},
{
name = top;
position = "{140, 830}";
}
);
layerId = "B61D43DE-5272-4FF4-A680-608B6BF5ED9E";
paths = (
{
closed = 1;
nodes = (
"203 0 LINE",
"203 770 LINE",
"77 770 LINE",
"77 0 LINE"
);
}
);
width = 280;
}
);
leftKerningGroup = h;
rightKerningGroup = l;
unicode = 006C;
userData = {
com.typemytype.robofont.mark = (
0.656,
1,
0.6,
1
);
};
},
{
glyphname = lacute;
lastChange = "2018-05-16 03:44:52 +0000";
layers = (
{
components = (
{
name = acutecomb.case;
transform = "{1, 0, 0, 1, 143, 13}";
}
);
layerId = "B61D43DE-5272-4FF4-A680-608B6BF5ED9E";
paths = (
{
closed = 1;
nodes = (
"210 0 LINE",
"210 697 LINE",
"75 697 LINE",
"75 0 LINE"
);
}
);
width = 286;
}
);
leftKerningGroup = h;
rightKerningGroup = l;
unicode = 013A;
userData = {
com.typemytype.robofont.mark = (
0.6,
0.986,
1,
1
);
};
},
{
glyphname = lcaron;
lastChange = "2018-05-15 18:14:03 +0000";
layers = (
{
components = (
{
name = l;
}
);
layerId = "B61D43DE-5272-4FF4-A680-608B6BF5ED9E";
paths = (
{
closed = 1;
nodes = (
"354 518 LINE",
"361 535 OFFCURVE",
"388 586 OFFCURVE",
"388 699 CURVE SMOOTH",
"388 718 OFFCURVE",
"387 749 OFFCURVE",
"384 770 CURVE",
"278 770 LINE",
"281 743 OFFCURVE",
"282 729 OFFCURVE",
"282 671 CURVE SMOOTH",
"282 614 OFFCURVE",
"275 546 OFFCURVE",
"266 518 CURVE"
);
}
);
width = 359;
}
);
leftKerningGroup = h;
rightKerningGroup = l;
unicode = 013E;
userData = {
com.typemytype.robofont.mark = (
0.6,
0.986,
1,
1
);
};
},
{
glyphname = ldot;
lastChange = "2018-05-15 18:14:03 +0000";
layers = (
{
components = (
{
name = l;
}
);
layerId = "B61D43DE-5272-4FF4-A680-608B6BF5ED9E";
paths = (
{
closed = 1;
nodes = (
"417 333 LINE",
"417 463 LINE",
"284 463 LINE",
"284 333 LINE"
);
}
);
width = 421;
}
);
leftKerningGroup = h;
rightKerningGroup = l;
unicode = 0140;
userData = {
com.typemytype.robofont.mark = (
0.6,
0.986,
1,
1
);
};
},
{
glyphname = lslash;
lastChange = "2018-05-15 18:14:03 +0000";
layers = (
{
components = (
{
name = l;
}
);
layerId = "B61D43DE-5272-4FF4-A680-608B6BF5ED9E";
paths = (
{
closed = 1;
nodes = (
"284 425 LINE",
"284 516 LINE",
"2 384 LINE",
"2 293 LINE"
);
}
);
width = 281;
}
);
leftKerningGroup = lslash;
rightKerningGroup = lslash;
unicode = 0142;
userData = {
com.typemytype.robofont.mark = (
0.6,
0.986,
1,
1
);
};
},
{
glyphname = m;
lastChange = "2018-05-15 18:14:03 +0000";
layers = (
{
anchors = (
{
name = top;
position = "{444, 830}";
}
);
layerId = "B61D43DE-5272-4FF4-A680-608B6BF5ED9E";
paths = (
{
closed = 1;
nodes = (
"492 371 OFFCURVE",
"537 409 OFFCURVE",
"584 409 CURVE SMOOTH",
"632 409 OFFCURVE",
"652 371 OFFCURVE",
"652 316 CURVE SMOOTH",
"652 0 LINE",
"779 0 LINE",
"779 329 LINE SMOOTH",
"779 442 OFFCURVE",
"730 510 OFFCURVE",
"630 510 CURVE SMOOTH",
"537 510 OFFCURVE",
"493 458 OFFCURVE",
"469 413 CURVE",
"466 370 LINE",
"492 316 LINE"
);
},
{
closed = 1;
nodes = (
"204 0 LINE",
"204 316 LINE SMOOTH",
"204 371 OFFCURVE",
"244 411 OFFCURVE",
"292 411 CURVE SMOOTH",
"339 411 OFFCURVE",
"364 371 OFFCURVE",
"364 316 CURVE SMOOTH",
"364 0 LINE",
"492 0 LINE",
"492 326 LINE SMOOTH",
"492 440 OFFCURVE",
"442 510 OFFCURVE",
"341 510 CURVE SMOOTH",
"248 510 OFFCURVE",
"204 455 OFFCURVE",
"180 408 CURVE",
"196 388 LINE",
"191 498 LINE",
"76 498 LINE",
"76 0 LINE"
);
}
);
width = 849;
}
);
leftKerningGroup = n;
rightKerningGroup = n;
unicode = 006D;
userData = {
com.typemytype.robofont.mark = (
0.656,
1,
0.6,
1
);
};
},
{
glyphname = n;
lastChange = "2018-05-15 18:14:03 +0000";
layers = (
{
anchors = (
{
name = btm;
position = "{283, -83}";
},
{
name = top;
position = "{316, 830}";
}
);
layerId = "B61D43DE-5272-4FF4-A680-608B6BF5ED9E";
paths = (
{
closed = 1;
nodes = (
"204 0 LINE",
"204 318 LINE SMOOTH",
"204 373 OFFCURVE",
"245 411 OFFCURVE",
"292 411 CURVE SMOOTH",
"340 411 OFFCURVE",
"363 373 OFFCURVE",
"363 318 CURVE SMOOTH",
"363 0 LINE",
"491 0 LINE",
"491 329 LINE SMOOTH",
"491 442 OFFCURVE",
"442 510 OFFCURVE",
"341 510 CURVE SMOOTH",
"249 510 OFFCURVE",
"204 455 OFFCURVE",
"180 408 CURVE",
"196 388 LINE",
"192 498 LINE",
"76 498 LINE",
"76 0 LINE"
);
}
);
width = 561;
}
);
leftKerningGroup = n;
rightKerningGroup = n;
unicode = 006E;
userData = {
com.typemytype.robofont.mark = (
0.656,
1,
0.6,
1
);
};
},
{
glyphname = eng;
lastChange = "2018-05-15 18:14:03 +0000";
layers = (
{
layerId = "B61D43DE-5272-4FF4-A680-608B6BF5ED9E";
paths = (
{
closed = 1;
nodes = (
"504 442 OFFCURVE",
"451 510 OFFCURVE",
"350 510 CURVE SMOOTH",
"257 510 OFFCURVE",
"212 458 OFFCURVE",
"189 413 CURVE",
"205 393 LINE",
"201 498 LINE",
"80 498 LINE",
"80 0 LINE",
"212 0 LINE",
"212 318 LINE SMOOTH",
"212 373 OFFCURVE",
"252 411 OFFCURVE",
"300 411 CURVE SMOOTH",
"347 411 OFFCURVE",
"372 373 OFFCURVE",
"372 318 CURVE SMOOTH",
"372 -70 LINE",
"371 -117 OFFCURVE",
"362 -171 OFFCURVE",
"321 -171 CURVE SMOOTH",
"295 -171 OFFCURVE",
"257 -158 OFFCURVE",
"231 -142 CURVE",
"215 -240 LINE",
"245 -250 OFFCURVE",
"294 -256 OFFCURVE",
"322 -256 CURVE SMOOTH",
"430 -256 OFFCURVE",
"501 -215 OFFCURVE",
"504 -75 CURVE",
"504 329 LINE"
);
}
);
width = 576;
}
);
leftKerningGroup = n;
rightKerningGroup = j;
unicode = 014B;
userData = {
com.typemytype.robofont.mark = (
0.6,
0.986,
1,
1
);
};
},
{
glyphname = o;
lastChange = "2018-05-15 19:08:49 +0000";
layers = (
{
anchors = (
{
name = btm;
position = "{278, 0}";
},
{
name = top;
position = "{278, 830}";
}
);
layerId = "B61D43DE-5272-4FF4-A680-608B6BF5ED9E";
paths = (
{
closed = 1;
nodes = (
"183 361 OFFCURVE",
"217 416 OFFCURVE",
"280 416 CURVE SMOOTH",
"342 416 OFFCURVE",
"373 352 OFFCURVE",
"373 246 CURVE SMOOTH",
"373 140 OFFCURVE",
"342 74 OFFCURVE",
"280 74 CURVE SMOOTH",
"217 74 OFFCURVE",
"183 131 OFFCURVE",
"183 246 CURVE SMOOTH"
);
},
{
closed = 1;
nodes = (
"48 83 OFFCURVE",
"133 -18 OFFCURVE",
"280 -18 CURVE SMOOTH",
"427 -18 OFFCURVE",
"508 88 OFFCURVE",
"508 246 CURVE SMOOTH",
"508 404 OFFCURVE",
"427 510 OFFCURVE",
"280 510 CURVE SMOOTH",
"133 510 OFFCURVE",
"48 410 OFFCURVE",
"48 246 CURVE SMOOTH"
);
}
);
width = 556;
}
);
leftKerningGroup = o;
rightKerningGroup = o;
unicode = 006F;
userData = {
com.typemytype.robofont.mark = (
0.656,
1,
0.6,
1
);
};
},
{
glyphname = oslash;
lastChange = "2018-05-15 18:14:03 +0000";
layers = (
{
components = (
{
name = o;
transform = "{1, 0, 0, 1, -1, 0}";
}
);
layerId = "B61D43DE-5272-4FF4-A680-608B6BF5ED9E";
paths = (
{
closed = 1;
nodes = (
"108 -61 LINE",
"187 62 LINE",
"201 88 LINE",
"394 395 LINE",
"429 412 LINE",
"500 524 LINE",
"441 562 LINE",
"372 456 LINE",
"346 414 LINE",
"170 123 LINE",
"139 119 LINE",
"49 -21 LINE"
);
}
);
width = 553;
}
);
leftKerningGroup = o;
rightKerningGroup = o;
unicode = 00F8;
userData = {
com.typemytype.robofont.mark = (
0.656,
1,
0.6,
1
);
};
},
{
glyphname = oe;
lastChange = "2018-05-15 18:14:03 +0000";
layers = (
{
layerId = "B61D43DE-5272-4FF4-A680-608B6BF5ED9E";
paths = (
{
closed = 1;
nodes = (
"710 -18 OFFCURVE",
"764 11 OFFCURVE",
"792 29 CURVE",
"744 124 LINE",
"721 98 OFFCURVE",
"674 77 OFFCURVE",
"632 77 CURVE",
"551 77 OFFCURVE",
"514 129 OFFCURVE",
"510 208 CURVE",
"810 208 LINE",
"811 223 OFFCURVE",
"811 241 OFFCURVE",
"811 255 CURVE SMOOTH",
"811 394 OFFCURVE",
"756 510 OFFCURVE",
"607 510 CURVE SMOOTH",
"458 510 OFFCURVE",
"392 393 OFFCURVE",
"392 243 CURVE SMOOTH",
"392 100 OFFCURVE",
"443 -18 OFFCURVE",
"611 -18 CURVE SMOOTH"
);
},
{
closed = 1;
nodes = (
"515 357 OFFCURVE",
"540 415 OFFCURVE",
"607 415 CURVE SMOOTH",
"648 415 OFFCURVE",
"684 381 OFFCURVE",
"684 287 CURVE",
"511 286 LINE"
);
},
{
closed = 1;
nodes = (
"182 361 OFFCURVE",
"213 415 OFFCURVE",
"279 415 CURVE SMOOTH",
"345 415 OFFCURVE",
"373 352 OFFCURVE",
"373 246 CURVE SMOOTH",
"373 140 OFFCURVE",
"345 77 OFFCURVE",
"279 77 CURVE SMOOTH",
"213 77 OFFCURVE",
"182 131 OFFCURVE",
"182 246 CURVE SMOOTH"
);
},
{
closed = 1;
nodes = (
"46 83 OFFCURVE",
"125 -18 OFFCURVE",
"280 -18 CURVE SMOOTH",
"420 -18 OFFCURVE",
"477 88 OFFCURVE",
"477 246 CURVE SMOOTH",
"477 404 OFFCURVE",
"425 510 OFFCURVE",
"280 510 CURVE SMOOTH",
"125 510 OFFCURVE",
"46 410 OFFCURVE",
"46 246 CURVE SMOOTH"
);
}
);
width = 857;
}
);
leftKerningGroup = o;
rightKerningGroup = e;
unicode = 0153;
userData = {
com.typemytype.robofont.mark = (
0.656,
1,
0.6,
1
);
};
},
{
glyphname = p;
lastChange = "2018-05-15 18:14:03 +0000";
layers = (
{
anchors = (
{
name = top;
position = "{326, 830}";
}
);
layerId = "B61D43DE-5272-4FF4-A680-608B6BF5ED9E";
paths = (
{
closed = 1;
nodes = (
"199 498 LINE",
"76 498 LINE",
"76 -238 LINE",
"199 -238 LINE",
"199 5 LINE",
"198 54 LINE",
"217 17 OFFCURVE",
"261 -18 OFFCURVE",
"319 -18 CURVE SMOOTH",
"430 -18 OFFCURVE",
"520 77 OFFCURVE",
"520 251 CURVE SMOOTH",
"520 420 OFFCURVE",
"439 511 OFFCURVE",
"325 511 CURVE SMOOTH",
"266 511 OFFCURVE",
"211 466 OFFCURVE",
"188 418 CURVE",
"198 418 LINE"
);
},
{
closed = 1;
nodes = (
"199 337 OFFCURVE",
"231 409 OFFCURVE",
"293 409 CURVE SMOOTH",
"344 409 OFFCURVE",
"386 369 OFFCURVE",
"386 251 CURVE SMOOTH",
"386 130 OFFCURVE",
"337 85 OFFCURVE",
"288 85 CURVE SMOOTH",
"230 85 OFFCURVE",
"199 149 OFFCURVE",
"199 243 CURVE SMOOTH"
);
}
);
width = 566;
}
);
leftKerningGroup = p;
rightKerningGroup = o;
unicode = 0070;
userData = {
com.typemytype.robofont.mark = (
0.656,
1,
0.6,
1
);
};
},
{
glyphname = thorn;
lastChange = "2018-05-15 18:14:03 +0000";
layers = (
{
anchors = (
{
name = top;
position = "{307, 830}";
}
);
components = (
{
name = b;
transform = "{1, 0, 0, 1, 9, 0}";
}
);
layerId = "B61D43DE-5272-4FF4-A680-608B6BF5ED9E";
paths = (
{
closed = 1;
nodes = (
"82 60 LINE",
"82 -238 LINE",
"208 -238 LINE",
"208 0 LINE",
"180 58 LINE"
);
}
);
width = 586;
}
);
leftKerningGroup = h;
rightKerningGroup = o;
unicode = 00FE;
userData = {
com.typemytype.robofont.mark = (
0.656,
1,
0.6,
1
);
};
},
{
glyphname = q;
lastChange = "2018-05-15 18:14:03 +0000";
layers = (
{
anchors = (
{
name = top;
position = "{273, 830}";
}
);
layerId = "B61D43DE-5272-4FF4-A680-608B6BF5ED9E";
paths = (
{
closed = 1;
nodes = (
"368 -238 LINE",
"493 -238 LINE",
"493 498 LINE",
"375 498 LINE",
"374 398 LINE",
"397 406 LINE",
"379 461 OFFCURVE",
"327 511 OFFCURVE",
"253 511 CURVE SMOOTH",
"137 511 OFFCURVE",
"46 433 OFFCURVE",
"46 248 CURVE SMOOTH",
"46 82 OFFCURVE",
"132 -17 OFFCURVE",
"241 -17 CURVE SMOOTH",
"303 -17 OFFCURVE",
"356 12 OFFCURVE",
"378 77 CURVE",
"374 77 LINE",
"368 5 LINE"
);
},
{
closed = 1;
nodes = (
"174 373 OFFCURVE",
"233 409 OFFCURVE",
"278 409 CURVE SMOOTH",
"340 409 OFFCURVE",
"369 344 OFFCURVE",
"369 250 CURVE SMOOTH",
"369 135 OFFCURVE",
"336 86 OFFCURVE",
"277 86 CURVE SMOOTH",
"222 86 OFFCURVE",
"174 140 OFFCURVE",
"174 248 CURVE SMOOTH"
);
}
);
width = 569;
}
);
leftKerningGroup = o;
rightKerningGroup = q;
unicode = 0071;
userData = {
com.typemytype.robofont.mark = (
0.656,
1,
0.6,
1
);
};
},
{
glyphname = r;
lastChange = "2018-05-15 18:14:03 +0000";
layers = (
{
anchors = (
{
name = btm;
position = "{141, -83}";
},
{
name = top;
position = "{269, 830}";
}
);
layerId = "B61D43DE-5272-4FF4-A680-608B6BF5ED9E";
paths = (
{
closed = 1;
nodes = (
"196 0 LINE",
"196 306 LINE SMOOTH",
"196 327 OFFCURVE",
"218 400 OFFCURVE",
"279 400 CURVE SMOOTH",
"318 400 OFFCURVE",
"338 374 OFFCURVE",
"338 300 CURVE",
"444 342 LINE",
"444 417 OFFCURVE",
"422 510 OFFCURVE",
"331 510 CURVE SMOOTH",
"261 510 OFFCURVE",
"210 463 OFFCURVE",
"194 434 CURVE",
"188 498 LINE",
"69 498 LINE",
"69 0 LINE"
);
}
);
width = 451;
}
);
leftKerningGroup = n;
rightKerningGroup = r;
unicode = 0072;
userData = {
com.typemytype.robofont.mark = (
0.656,
1,
0.6,
1
);
};
},
{
glyphname = s;
lastChange = "2018-05-15 18:14:03 +0000";
layers = (
{
anchors = (
{
name = btm;
position = "{217, -83}";
},
{
name = top;
position = "{230, 830}";
}
);
layerId = "B61D43DE-5272-4FF4-A680-608B6BF5ED9E";
paths = (
{
closed = 1;
nodes = (
"51 24 OFFCURVE",
"120 -18 OFFCURVE",
"217 -18 CURVE SMOOTH",
"355 -18 OFFCURVE",
"410 67 OFFCURVE",
"410 149 CURVE SMOOTH",
"410 218 OFFCURVE",
"361 256 OFFCURVE",
"290 289 CURVE SMOOTH",
"232 313 OFFCURVE",
"179 330 OFFCURVE",
"179 367 CURVE SMOOTH",
"179 396 OFFCURVE",
"196 414 OFFCURVE",
"256 414 CURVE SMOOTH",
"293 414 OFFCURVE",
"335 396 OFFCURVE",
"361 376 CURVE",
"395 466 LINE",
"377 484 OFFCURVE",
"316 510 OFFCURVE",
"239 510 CURVE SMOOTH",
"118 510 OFFCURVE",
"54 449 OFFCURVE",
"54 359 CURVE SMOOTH",
"54 266 OFFCURVE",
"135 228 OFFCURVE",
"185 205 CURVE SMOOTH",
"251 176 OFFCURVE",
"285 163 OFFCURVE",
"285 131 CURVE SMOOTH",
"285 96 OFFCURVE",
"252 77 OFFCURVE",
"205 77 CURVE SMOOTH",
"136 77 OFFCURVE",
"102 107 OFFCURVE",
"73 131 CURVE",
"36 42 LINE"
);
}
);
width = 448;
}
);
leftKerningGroup = s;
rightKerningGroup = s;
unicode = 0073;
userData = {
com.typemytype.robofont.mark = (
0.656,
1,
0.6,
1
);
};
},
{
glyphname = germandbls;
lastChange = "2018-05-15 18:14:03 +0000";
layers = (
{
layerId = "B61D43DE-5272-4FF4-A680-608B6BF5ED9E";
paths = (
{
closed = 1;
nodes = (
"276 5 OFFCURVE",
"316 -17 OFFCURVE",
"387 -17 CURVE SMOOTH",
"515 -17 OFFCURVE",
"584 85 OFFCURVE",
"584 224 CURVE SMOOTH",
"584 337 OFFCURVE",
"513 424 OFFCURVE",
"393 436 CURVE",
"393 418 LINE",
"470 418 OFFCURVE",
"513 507 OFFCURVE",
"513 601 CURVE SMOOTH",
"513 703 OFFCURVE",
"456 785 OFFCURVE",
"308 785 CURVE SMOOTH",
"213 785 OFFCURVE",
"93 742 OFFCURVE",
"93 577 CURVE SMOOTH",
"93 -83 LINE",
"221 -83 LINE",
"221 587 LINE SMOOTH",
"221 634 OFFCURVE",
"242 687 OFFCURVE",
"302 687 CURVE SMOOTH",
"342 687 OFFCURVE",
"383 665 OFFCURVE",
"383 586 CURVE SMOOTH",
"383 489 OFFCURVE",
"345 449 OFFCURVE",
"303 449 CURVE",
"303 379 LINE",
"401 379 OFFCURVE",
"448 305 OFFCURVE",
"448 222 CURVE SMOOTH",
"448 141 OFFCURVE",
"418 77 OFFCURVE",
"356 77 CURVE SMOOTH",
"321 77 OFFCURVE",
"299 94 OFFCURVE",
"291 102 CURVE",
"257 19 LINE"
);
},
{
closed = 1;
nodes = (
"26 414 LINE",
"113 414 LINE",
"113 414 OFFCURVE",
"113 498 OFFCURVE",
"113 498 CURVE",
"26 498 LINE"
);
}
);
width = 590;
}
);
leftKerningGroup = h;
rightKerningGroup = germandbls;
unicode = 00DF;
userData = {
com.typemytype.robofont.mark = (
0.656,
1,
0.6,
1
);
};
},
{
glyphname = t;
lastChange = "2018-05-15 18:14:03 +0000";
layers = (
{
anchors = (
{
name = btm;
position = "{194, -83}";
},
{
name = top;
position = "{156, 974}";
}
);
layerId = "B61D43DE-5272-4FF4-A680-608B6BF5ED9E";
paths = (
{
closed = 1;
nodes = (
"85 43 OFFCURVE",
"121 -15 OFFCURVE",
"234 -15 CURVE SMOOTH",
"267 -15 OFFCURVE",
"335 0 OFFCURVE",
"366 22 CURVE",
"342 123 LINE",
"323 107 OFFCURVE",
"286 88 OFFCURVE",
"257 88 CURVE SMOOTH",
"228 88 OFFCURVE",
"211 107 OFFCURVE",
"211 165 CURVE SMOOTH",
"211 403 LINE",
"334 403 LINE",
"334 498 LINE",
"211 498 LINE",
"211 650 LINE",
"85 603 LINE",
"85 498 LINE",
"25 498 LINE",
"25 403 LINE",
"85 403 LINE",
"85 162 LINE SMOOTH"
);
}
);
width = 389;
}
);
leftKerningGroup = t;
rightKerningGroup = t;
unicode = 0074;
userData = {
com.typemytype.robofont.mark = (
0.656,
1,
0.6,
1
);
};
},
{
glyphname = tbar;
lastChange = "2018-05-15 18:14:03 +0000";
layers = (
{
components = (
{
name = t;
transform = "{1, 0, 0, 1, -2, 0}";
}
);
layerId = "B61D43DE-5272-4FF4-A680-608B6BF5ED9E";
paths = (
{
closed = 1;
nodes = (
"364 243 LINE",
"364 324 LINE",
"16 324 LINE",
"16 243 LINE"
);
}
);
width = 384;
}
);
leftKerningGroup = t;
rightKerningGroup = t;
unicode = 0167;
userData = {
com.typemytype.robofont.mark = (
0.6,
0.986,
1,
1
);
};
},
{
glyphname = u;
lastChange = "2018-05-15 18:37:37 +0000";
layers = (
{
anchors = (
{
name = btm;
position = "{283, 0}";
},
{
name = top;
position = "{316, 830}";
}
);
layerId = "B61D43DE-5272-4FF4-A680-608B6BF5ED9E";
paths = (
{
closed = 1;
nodes = (
"354 498 LINE",
"354 180 LINE SMOOTH",
"354 125 OFFCURVE",
"313 87 OFFCURVE",
"266 87 CURVE SMOOTH",
"218 87 OFFCURVE",
"195 125 OFFCURVE",
"195 180 CURVE SMOOTH",
"195 498 LINE",
"67 498 LINE",
"67 169 LINE SMOOTH",
"67 56 OFFCURVE",
"116 -12 OFFCURVE",
"217 -12 CURVE SMOOTH",
"310 -12 OFFCURVE",
"354 43 OFFCURVE",
"378 90 CURVE",
"362 110 LINE",
"366 0 LINE",
"482 0 LINE",
"482 498 LINE"
);
}
);
width = 561;
}
);
leftKerningGroup = u;
rightKerningGroup = u;
unicode = 0075;
userData = {
com.typemytype.robofont.mark = (
0.656,
1,
0.6,
1
);
};
},
{
glyphname = uogonek;
lastChange = "2018-05-15 18:14:03 +0000";
layers = (
{
components = (
{
name = u;
transform = "{1, 0, 0, 1, -8, 0}";
}
);
layerId = "B61D43DE-5272-4FF4-A680-608B6BF5ED9E";
paths = (
{
closed = 1;
nodes = (
"160 -196 OFFCURVE",
"217 -248 OFFCURVE",
"314 -250 CURVE SMOOTH",
"355 -250 OFFCURVE",
"407 -239 OFFCURVE",
"423 -225 CURVE",
"407 -143 LINE",
"381 -157 OFFCURVE",
"342 -163 OFFCURVE",
"320 -163 CURVE SMOOTH",
"280 -162 OFFCURVE",
"259 -139 OFFCURVE",
"258 -104 CURVE SMOOTH",
"258 -63 OFFCURVE",
"314 -35 OFFCURVE",
"423 29 CURVE",
"345 33 LINE",
"274 0 LINE",
"197 -31 OFFCURVE",
"163 -75 OFFCURVE",
"162 -125 CURVE SMOOTH"
);
}
);
width = 555;
}
);
leftKerningGroup = u;
rightKerningGroup = u;
unicode = 0173;
userData = {
com.typemytype.robofont.mark = (
0.6,
0.986,
1,
1
);
};
},
{
glyphname = v;
lastChange = "2018-05-15 18:14:03 +0000";
layers = (
{
anchors = (
{
name = top;
position = "{235, 830}";
}
);
layerId = "B61D43DE-5272-4FF4-A680-608B6BF5ED9E";
paths = (
{
closed = 1;
nodes = (
"285 0 LINE",
"477 498 LINE",
"345 498 LINE",
"262 249 LINE",
"242 167 LINE",
"220 249 LINE",
"134 498 LINE",
"-6 498 LINE",
"196 0 LINE"
);
}
);
width = 471;
}
);
leftKerningGroup = v;
rightKerningGroup = v;
unicode = 0076;
userData = {
com.typemytype.robofont.mark = (
0.656,
1,
0.6,
1
);
};
},
{
glyphname = w;
lastChange = "2018-05-15 18:14:03 +0000";
layers = (
{
anchors = (
{
name = top;
position = "{358, 830}";
}
);
layerId = "B61D43DE-5272-4FF4-A680-608B6BF5ED9E";
paths = (
{
closed = 1;
nodes = (
"270 0 LINE",
"344 271 LINE",
"375 439 LINE",
"342 439 LINE",
"375 271 LINE",
"456 0 LINE",
"557 0 LINE",
"714 498 LINE",
"586 498 LINE",
"531 271 LINE",
"484 54 LINE",
"539 54 LINE",
"487 271 LINE",
"421 498 LINE",
"307 498 LINE",
"246 271 LINE",
"198 61 LINE",
"252 61 LINE",
"201 271 LINE",
"143 498 LINE",
"11 498 LINE",
"170 0 LINE"
);
}
);
width = 714;
}
);
leftKerningGroup = w;
rightKerningGroup = w;
unicode = 0077;
userData = {
com.typemytype.robofont.guides = (
{
angle = 0;
isGlobal = 0;
magnetic = 5;
x = 0;
y = 554;
},
{
angle = 90;
isGlobal = 0;
magnetic = 5;
x = -66;
y = 0;
}
);
com.typemytype.robofont.mark = (
0.656,
1,
0.6,
1
);
};
},
{
glyphname = x;
lastChange = "2018-05-15 18:14:03 +0000";
layers = (
{
anchors = (
{
name = top;
position = "{235, 830}";
}
);
layerId = "B61D43DE-5272-4FF4-A680-608B6BF5ED9E";
paths = (
{
closed = 1;
nodes = (
"150 0 LINE",
"212 134 LINE",
"230 179 LINE",
"252 134 LINE",
"324 0 LINE",
"465 0 LINE",
"357 190 LINE",
"321 250 LINE",
"357 313 LINE",
"457 498 LINE",
"324 498 LINE",
"265 372 LINE",
"239 314 LINE",
"214 372 LINE",
"154 498 LINE",
"12 498 LINE",
"114 309 LINE",
"152 245 LINE",
"115 184 LINE",
"12 0 LINE"
);
}
);
width = 475;
}
);
leftKerningGroup = x;
rightKerningGroup = x;
unicode = 0078;
userData = {
com.typemytype.robofont.guides = (
{
angle = 90;
isGlobal = 0;
magnetic = 5;
x = 233;
y = 0;
},
{
angle = 90;
isGlobal = 0;
magnetic = 5;
x = 731;
y = 0;
}
);
com.typemytype.robofont.mark = (
0.656,
1,
0.6,
1
);
};
},
{
glyphname = y;
lastChange = "2018-05-15 18:37:46 +0000";
layers = (
{
anchors = (
{
name = btm;
position = "{404, 0}";
},
{
name = top;
position = "{245, 830}";
}
);
layerId = "B61D43DE-5272-4FF4-A680-608B6BF5ED9E";
paths = (
{
closed = 1;
nodes = (
"67 -238 LINE",
"208 -238 LINE",
"491 498 LINE",
"345 498 LINE",
"271 239 LINE",
"257 177 LINE",
"241 235 LINE",
"142 498 LINE",
"-6 498 LINE",
"190 47 LINE"
);
}
);
width = 485;
}
);
leftKerningGroup = y;
rightKerningGroup = y;
unicode = 0079;
userData = {
com.typemytype.robofont.mark = (
0.656,
1,
0.6,
1
);
};
},
{
glyphname = z;
lastChange = "2018-05-16 03:46:37 +0000";
layers = (
{
anchors = (
{
name = top;
position = "{243, 830}";
}
);
layerId = "B61D43DE-5272-4FF4-A680-608B6BF5ED9E";
paths = (
{
closed = 1;
nodes = (
"411 0 LINE",
"411 91 LINE",
"168 91 LINE",
"183 49 LINE",
"431 498 LINE",
"55 498 LINE",
"55 403 LINE",
"266 403 LINE",
"266 452 LINE",
"13 0 LINE"
);
}
);
width = 444;
}
);
leftKerningGroup = z;
rightKerningGroup = z;
unicode = 007A;
userData = {
com.typemytype.robofont.mark = (
0.656,
1,
0.6,
1
);
};
},
{
glyphname = ordfeminine;
lastChange = "2018-05-15 18:14:03 +0000";
layers = (
{
layerId = "B61D43DE-5272-4FF4-A680-608B6BF5ED9E";
paths = (
{
closed = 1;
nodes = (
"306 421 OFFCURVE",
"360 518 OFFCURVE",
"341 536 CURVE SMOOTH",
"324 543 LINE",
"324 525 OFFCURVE",
"320 444 OFFCURVE",
"320 428 CURVE",
"430 428 LINE",
"430 812 LINE",
"320 812 LINE",
"320 793 OFFCURVE",
"324 715 OFFCURVE",
"324 696 CURVE",
"342 718 LINE",
"330 762 OFFCURVE",
"298 827 OFFCURVE",
"210 827 CURVE SMOOTH",
"109 827 OFFCURVE",
"44 749 OFFCURVE",
"44 621 CURVE SMOOTH",
"44 498 OFFCURVE",
"119 421 OFFCURVE",
"211 421 CURVE SMOOTH"
);
},
{
closed = 1;
nodes = (
"186 495 OFFCURVE",
"156 550 OFFCURVE",
"156 625 CURVE SMOOTH",
"156 702 OFFCURVE",
"189 750 OFFCURVE",
"229 750 CURVE SMOOTH",
"280 750 OFFCURVE",
"305 695 OFFCURVE",
"305 623 CURVE SMOOTH",
"305 546 OFFCURVE",
"273 495 OFFCURVE",
"229 495 CURVE SMOOTH"
);
}
);
width = 542;
}
);
leftKerningGroup = ordfeminine;
rightKerningGroup = ordfeminine;
unicode = 00AA;
userData = {
com.typemytype.robofont.mark = (
0.656,
1,
0.6,
1
);
};
},
{
glyphname = ordmasculine;
lastChange = "2018-05-15 18:14:03 +0000";
layers = (
{
layerId = "B61D43DE-5272-4FF4-A680-608B6BF5ED9E";
paths = (
{
closed = 1;
nodes = (
"370 421 OFFCURVE",
"428 518 OFFCURVE",
"428 626 CURVE SMOOTH",
"428 731 OFFCURVE",
"373 825 OFFCURVE",
"243 825 CURVE SMOOTH",
"116 825 OFFCURVE",
"56 732 OFFCURVE",
"56 624 CURVE SMOOTH",
"56 521 OFFCURVE",
"115 421 OFFCURVE",
"243 421 CURVE SMOOTH"
);
},
{
closed = 1;
nodes = (
"195 495 OFFCURVE",
"172 555 OFFCURVE",
"172 627 CURVE SMOOTH",
"172 704 OFFCURVE",
"199 750 OFFCURVE",
"243 750 CURVE SMOOTH",
"292 750 OFFCURVE",
"313 698 OFFCURVE",
"313 627 CURVE SMOOTH",
"313 548 OFFCURVE",
"287 495 OFFCURVE",
"243 495 CURVE SMOOTH"
);
}
);
width = 503;
}
);
leftKerningGroup = ordmasculine;
rightKerningGroup = ordmasculine;
unicode = 00BA;
userData = {
com.typemytype.robofont.mark = (
0.656,
1,
0.6,
1
);
};
},
{
glyphname = Deltagreek;
lastChange = "2018-05-15 18:14:03 +0000";
layers = (
{
layerId = "B61D43DE-5272-4FF4-A680-608B6BF5ED9E";
paths = (
{
closed = 1;
nodes = (
"83 0 LINE",
"694 0 LINE",
"712 35 LINE",
"407 714 LINE",
"373 714 LINE",
"66 35 LINE"
);
},
{
closed = 1;
nodes = (
"389 503 LINE",
"557 101 LINE",
"213 101 LINE"
);
}
);
width = 785;
}
);
leftKerningGroup = Deltagreek;
rightKerningGroup = Deltagreek;
unicode = 0394;
},
{
glyphname = Omegagreek;
lastChange = "2018-05-15 18:14:03 +0000";
layers = (
{
layerId = "B61D43DE-5272-4FF4-A680-608B6BF5ED9E";
paths = (
{
closed = 1;
nodes = (
"207 714 OFFCURVE",
"63 577 OFFCURVE",
"63 388 CURVE SMOOTH",
"63 208 OFFCURVE",
"191 125 OFFCURVE",
"229 100 CURVE",
"49 115 LINE",
"49 0 LINE",
"339 0 LINE",
"339 94 LINE",
"275 163 OFFCURVE",
"183 248 OFFCURVE",
"183 373 CURVE SMOOTH",
"183 477 OFFCURVE",
"245 592 OFFCURVE",
"392 592 CURVE SMOOTH",
"538 592 OFFCURVE",
"600 471 OFFCURVE",
"600 373 CURVE SMOOTH",
"600 248 OFFCURVE",
"508 163 OFFCURVE",
"444 94 CURVE",
"444 0 LINE",
"734 0 LINE",
"734 115 LINE",
"554 100 LINE",
"592 125 OFFCURVE",
"720 208 OFFCURVE",
"720 388 CURVE SMOOTH",
"720 574 OFFCURVE",
"580 714 OFFCURVE",
"393 714 CURVE SMOOTH"
);
}
);
width = 783;
}
);
leftKerningGroup = Omegagreek;
rightKerningGroup = Omegagreek;
unicode = 03A9;
},
{
glyphname = mu;
lastChange = "2018-05-15 18:14:03 +0000";
layers = (
{
layerId = "B61D43DE-5272-4FF4-A680-608B6BF5ED9E";
paths = (
{
closed = 1;
nodes = (
"185 -250 LINE",
"161 71 LINE",
"179 29 OFFCURVE",
"215 -11 OFFCURVE",
"269 -11 CURVE SMOOTH",
"316 -11 OFFCURVE",
"351 19 OFFCURVE",
"362 71 CURVE",
"360 0 LINE",
"491 0 LINE",
"491 492 LINE",
"355 492 LINE",
"355 186 LINE",
"355 94 OFFCURVE",
"318 86 OFFCURVE",
"276 86 CURVE SMOOTH",
"229 86 OFFCURVE",
"198 138 OFFCURVE",
"198 208 CURVE",
"198 492 LINE",
"59 492 LINE",
"59 -250 LINE"
);
}
);
width = 550;
}
);
leftKerningGroup = p;
rightKerningGroup = u;
unicode = 03BC;
},
{
glyphname = pi;
lastChange = "2018-05-15 18:14:03 +0000";
layers = (
{
layerId = "B61D43DE-5272-4FF4-A680-608B6BF5ED9E";
paths = (
{
closed = 1;
nodes = (
"111 415 OFFCURVE",
"128 445 OFFCURVE",
"199 445 CURVE SMOOTH",
"574 445 LINE SMOOTH",
"654 445 OFFCURVE",
"677 462 OFFCURVE",
"677 462 CURVE",
"652 547 LINE",
"652 547 OFFCURVE",
"612 547 OFFCURVE",
"519 547 CURVE SMOOTH",
"202 547 LINE SMOOTH",
"80 547 OFFCURVE",
"47 460 OFFCURVE",
"47 419 CURVE",
"98 378 LINE"
);
},
{
closed = 1;
nodes = (
"295 -15 OFFCURVE",
"309 178 OFFCURVE",
"315 309 CURVE SMOOTH",
"326 531 LINE",
"242 531 LINE",
"176 0 LINE",
"293 0 LINE"
);
},
{
closed = 1;
nodes = (
"409 61 OFFCURVE",
"421 -10 OFFCURVE",
"505 -9 CURVE SMOOTH",
"612 -9 OFFCURVE",
"664 72 OFFCURVE",
"675 184 CURVE",
"614 184 LINE",
"606 127 OFFCURVE",
"584 83 OFFCURVE",
"548 83 CURVE SMOOTH",
"527 83 OFFCURVE",
"515 101 OFFCURVE",
"520 183 CURVE",
"520 531 LINE",
"440 531 LINE",
"414 155 LINE"
);
}
);
width = 759;
}
);
leftKerningGroup = pi;
rightKerningGroup = pi;
unicode = 03C0;
userData = {
com.typemytype.robofont.mark = (
1,
0.741,
0.6,
1
);
};
},
{
glyphname = zero;
lastChange = "2018-05-15 18:14:03 +0000";
layers = (
{
layerId = "B61D43DE-5272-4FF4-A680-608B6BF5ED9E";
paths = (
{
closed = 1;
nodes = (
"202 89 OFFCURVE",
"172 202 OFFCURVE",
"172 348 CURVE SMOOTH",
"172 502 OFFCURVE",
"203 609 OFFCURVE",
"288 609 CURVE SMOOTH",
"372 609 OFFCURVE",
"403 502 OFFCURVE",
"403 348 CURVE SMOOTH",
"403 202 OFFCURVE",
"374 89 OFFCURVE",
"288 89 CURVE SMOOTH"
);
},
{
closed = 1;
nodes = (
"474 -18 OFFCURVE",
"548 133 OFFCURVE",
"548 347 CURVE SMOOTH",
"548 596 OFFCURVE",
"453 714 OFFCURVE",
"292 714 CURVE SMOOTH",
"131 714 OFFCURVE",
"36 596 OFFCURVE",
"36 347 CURVE SMOOTH",
"36 133 OFFCURVE",
"110 -18 OFFCURVE",
"292 -18 CURVE SMOOTH"
);
}
);
width = 582;
}
);
leftKerningGroup = zero;
rightKerningGroup = zero;
unicode = 0030;
userData = {
com.typemytype.robofont.mark = (
0.656,
1,
0.6,
1
);
};
},
{
glyphname = one;
lastChange = "2018-05-15 18:14:03 +0000";
layers = (
{
layerId = "B61D43DE-5272-4FF4-A680-608B6BF5ED9E";
paths = (
{
closed = 1;
nodes = (
"224 0 LINE",
"224 715 LINE",
"89 645 LINE",
"89 0 LINE"
);
}
);
width = 313;
}
);
leftKerningGroup = one;
rightKerningGroup = one;
unicode = 0031;
userData = {
com.typemytype.robofont.mark = (
0.656,
1,
0.6,
1
);
};
},
{
glyphname = two;
lastChange = "2018-05-15 18:14:03 +0000";
layers = (
{
layerId = "B61D43DE-5272-4FF4-A680-608B6BF5ED9E";
paths = (
{
closed = 1;
nodes = (
"512 110 LINE",
"199 110 LINE",
"199 188 OFFCURVE",
"292 221 OFFCURVE",
"352 260 CURVE SMOOTH",
"440 317 OFFCURVE",
"510 386 OFFCURVE",
"510 503 CURVE SMOOTH",
"510 592 OFFCURVE",
"458 714 OFFCURVE",
"283 714 CURVE SMOOTH",
"135 714 OFFCURVE",
"55 628 OFFCURVE",
"43 524 CURVE",
"154 470 LINE",
"161 533 OFFCURVE",
"191 609 OFFCURVE",
"276 609 CURVE SMOOTH",
"350 609 OFFCURVE",
"374 555 OFFCURVE",
"374 499 CURVE SMOOTH",
"374 402 OFFCURVE",
"273 354 OFFCURVE",
"199 309 CURVE SMOOTH",
"76 234 OFFCURVE",
"56 155 OFFCURVE",
"56 64 CURVE SMOOTH",
"56 43 OFFCURVE",
"59 21 OFFCURVE",
"63 0 CURVE",
"512 0 LINE"
);
}
);
width = 561;
}
);
leftKerningGroup = two;
rightKerningGroup = two;
unicode = 0032;
userData = {
com.typemytype.robofont.mark = (
0.656,
1,
0.6,
1
);
};
},
{
glyphname = three;
lastChange = "2018-05-15 18:14:03 +0000";
layers = (
{
layerId = "B61D43DE-5272-4FF4-A680-608B6BF5ED9E";
paths = (
{
closed = 1;
nodes = (
"96 3 OFFCURVE",
"169 -15 OFFCURVE",
"245 -15 CURVE SMOOTH",
"388 -15 OFFCURVE",
"504 64 OFFCURVE",
"504 196 CURVE SMOOTH",
"504 280 OFFCURVE",
"456 339 OFFCURVE",
"371 360 CURVE",
"445 379 OFFCURVE",
"487 444 OFFCURVE",
"487 520 CURVE SMOOTH",
"487 634 OFFCURVE",
"399 714 OFFCURVE",
"261 714 CURVE SMOOTH",
"177 714 OFFCURVE",
"89 687 OFFCURVE",
"48 651 CURVE",
"88 554 LINE",
"124 594 OFFCURVE",
"180 609 OFFCURVE",
"229 609 CURVE SMOOTH",
"301 609 OFFCURVE",
"342 566 OFFCURVE",
"342 500 CURVE SMOOTH",
"342 439 OFFCURVE",
"298 409 OFFCURVE",
"216 409 CURVE",
"216 409 OFFCURVE",
"172 410 OFFCURVE",
"172 409 CURVE",
"172 310 LINE",
"171 311 OFFCURVE",
"213 312 OFFCURVE",
"214 312 CURVE SMOOTH",
"291 314 OFFCURVE",
"363 285 OFFCURVE",
"363 200 CURVE SMOOTH",
"363 136 OFFCURVE",
"322 96 OFFCURVE",
"232 96 CURVE SMOOTH",
"179 96 OFFCURVE",
"117 113 OFFCURVE",
"79 150 CURVE",
"40 43 LINE"
);
}
);
width = 545;
}
);
leftKerningGroup = three;
rightKerningGroup = three;
unicode = 0033;
userData = {
com.typemytype.robofont.mark = (
0.656,
1,
0.6,
1
);
};
},
{
glyphname = four;
lastChange = "2018-05-15 18:14:03 +0000";
layers = (
{
layerId = "B61D43DE-5272-4FF4-A680-608B6BF5ED9E";
paths = (
{
closed = 1;
nodes = (
"482 0 LINE",
"482 527 LINE",
"360 527 LINE",
"340 158 LINE",
"340 0 LINE"
);
},
{
closed = 1;
nodes = (
"573 144 LINE",
"573 239 LINE",
"185 239 LINE",
"303 697 LINE",
"157 697 LINE",
"22 144 LINE"
);
}
);
width = 599;
}
);
leftKerningGroup = four;
rightKerningGroup = four;
unicode = 0034;
userData = {
com.typemytype.robofont.mark = (
0.656,
1,
0.6,
1
);
};
},
{
glyphname = five;
lastChange = "2018-05-15 18:14:03 +0000";
layers = (
{
layerId = "B61D43DE-5272-4FF4-A680-608B6BF5ED9E";
paths = (
{
closed = 1;
nodes = (
"94 -1 OFFCURVE",
"169 -13 OFFCURVE",
"230 -13 CURVE SMOOTH",
"393 -13 OFFCURVE",
"505 75 OFFCURVE",
"505 231 CURVE SMOOTH",
"505 348 OFFCURVE",
"430 454 OFFCURVE",
"289 454 CURVE SMOOTH",
"253 454 OFFCURVE",
"224 451 OFFCURVE",
"193 442 CURVE",
"207 591 LINE",
"463 591 LINE",
"463 697 LINE",
"89 697 LINE",
"76 324 LINE",
"97 337 OFFCURVE",
"162 356 OFFCURVE",
"218 356 CURVE SMOOTH",
"315 356 OFFCURVE",
"370 305 OFFCURVE",
"370 226 CURVE SMOOTH",
"370 107 OFFCURVE",
"277 88 OFFCURVE",
"213 88 CURVE SMOOTH",
"166 88 OFFCURVE",
"111 109 OFFCURVE",
"82 136 CURVE",
"45 32 LINE"
);
}
);
width = 546;
}
);
leftKerningGroup = five;
rightKerningGroup = five;
unicode = 0035;
userData = {
com.typemytype.robofont.mark = (
0.656,
1,
0.6,
1
);
};
},
{
glyphname = six;
lastChange = "2018-05-15 18:14:03 +0000";
layers = (
{
layerId = "B61D43DE-5272-4FF4-A680-608B6BF5ED9E";
paths = (
{
closed = 1;
nodes = (
"53 73 OFFCURVE",
"205 -15 OFFCURVE",
"324 -15 CURVE SMOOTH",
"478 -15 OFFCURVE",
"580 83 OFFCURVE",
"580 237 CURVE SMOOTH",
"580 358 OFFCURVE",
"503 457 OFFCURVE",
"368 457 CURVE SMOOTH",
"295 457 OFFCURVE",
"226 427 OFFCURVE",
"190 358 CURVE",
"190 369 OFFCURVE",
"190 381 OFFCURVE",
"191 395 CURVE SMOOTH",
"201 498 OFFCURVE",
"246 609 OFFCURVE",
"350 609 CURVE SMOOTH",
"387 609 OFFCURVE",
"449 602 OFFCURVE",
"480 567 CURVE",
"529 663 LINE",
"497 694 OFFCURVE",
"440 714 OFFCURVE",
"346 714 CURVE SMOOTH",
"170 714 OFFCURVE",
"53 570 OFFCURVE",
"53 336 CURVE SMOOTH"
);
},
{
closed = 1;
nodes = (
"206 215 OFFCURVE",
"205 226 OFFCURVE",
"205 236 CURVE",
"209 301 OFFCURVE",
"275 355 OFFCURVE",
"338 355 CURVE SMOOTH",
"410 355 OFFCURVE",
"444 303 OFFCURVE",
"444 225 CURVE SMOOTH",
"444 139 OFFCURVE",
"390 88 OFFCURVE",
"327 88 CURVE SMOOTH",
"265 88 OFFCURVE",
"227 140 OFFCURVE",
"209 203 CURVE SMOOTH"
);
}
);
width = 623;
}
);
leftKerningGroup = six;
rightKerningGroup = six;
unicode = 0036;
userData = {
com.typemytype.robofont.mark = (
0.656,
1,
0.6,
1
);
};
},
{
glyphname = seven;
lastChange = "2018-05-15 18:14:03 +0000";
layers = (
{
layerId = "B61D43DE-5272-4FF4-A680-608B6BF5ED9E";
paths = (
{
closed = 1;
nodes = (
"266 0 LINE",
"315 158 OFFCURVE",
"458 563 OFFCURVE",
"485 648 CURVE",
"455 697 LINE",
"35 697 LINE",
"35 589 LINE",
"341 589 LINE",
"121 0 LINE"
);
}
);
width = 527;
}
);
leftKerningGroup = seven;
rightKerningGroup = seven;
unicode = 0037;
userData = {
com.typemytype.robofont.mark = (
0.656,
1,
0.6,
1
);
};
},
{
glyphname = eight;
lastChange = "2018-05-15 18:14:03 +0000";
layers = (
{
layerId = "B61D43DE-5272-4FF4-A680-608B6BF5ED9E";
paths = (
{
closed = 1;
nodes = (
"208 589 OFFCURVE",
"245 622 OFFCURVE",
"312 622 CURVE SMOOTH",
"379 622 OFFCURVE",
"412 589 OFFCURVE",
"412 524 CURVE SMOOTH",
"412 452 OFFCURVE",
"364 412 OFFCURVE",
"312 412 CURVE SMOOTH",
"260 412 OFFCURVE",
"208 452 OFFCURVE",
"208 524 CURVE SMOOTH"
);
},
{
closed = 1;
nodes = (
"77 400 OFFCURVE",
"174 339 OFFCURVE",
"311 339 CURVE SMOOTH",
"438 339 OFFCURVE",
"542 400 OFFCURVE",
"542 533 CURVE SMOOTH",
"542 665 OFFCURVE",
"426 714 OFFCURVE",
"311 714 CURVE SMOOTH",
"195 714 OFFCURVE",
"77 665 OFFCURVE",
"77 533 CURVE SMOOTH"
);
},
{
closed = 1;
nodes = (
"357 310 OFFCURVE",
"430 283 OFFCURVE",
"430 193 CURVE SMOOTH",
"430 119 OFFCURVE",
"386 83 OFFCURVE",
"310 83 CURVE SMOOTH",
"233 83 OFFCURVE",
"189 119 OFFCURVE",
"189 193 CURVE SMOOTH",
"189 283 OFFCURVE",
"262 310 OFFCURVE",
"310 310 CURVE SMOOTH"
);
},
{
closed = 1;
nodes = (
"435 -18 OFFCURVE",
"572 40 OFFCURVE",
"572 191 CURVE SMOOTH",
"572 321 OFFCURVE",
"454 384 OFFCURVE",
"310 384 CURVE SMOOTH",
"165 384 OFFCURVE",
"47 321 OFFCURVE",
"47 191 CURVE SMOOTH",
"47 40 OFFCURVE",
"184 -18 OFFCURVE",
"310 -18 CURVE SMOOTH"
);
}
);
width = 619;
}
);
leftKerningGroup = eight;
rightKerningGroup = eight;
unicode = 0038;
userData = {
com.typemytype.robofont.mark = (
0.656,
1,
0.6,
1
);
};
},
{
glyphname = nine;
lastChange = "2018-05-15 18:14:03 +0000";
layers = (
{
layerId = "B61D43DE-5272-4FF4-A680-608B6BF5ED9E";
paths = (
{
closed = 1;
nodes = (
"573 629 OFFCURVE",
"431 714 OFFCURVE",
"303 714 CURVE SMOOTH",
"149 714 OFFCURVE",
"46 617 OFFCURVE",
"46 463 CURVE SMOOTH",
"46 341 OFFCURVE",
"124 243 OFFCURVE",
"259 243 CURVE SMOOTH",
"331 243 OFFCURVE",
"400 272 OFFCURVE",
"436 341 CURVE",
"437 331 OFFCURVE",
"436 319 OFFCURVE",
"435 305 CURVE SMOOTH",
"429 202 OFFCURVE",
"381 90 OFFCURVE",
"262 90 CURVE SMOOTH",
"229 90 OFFCURVE",
"170 103 OFFCURVE",
"141 133 CURVE",
"92 37 LINE",
"122 10 OFFCURVE",
"179 -15 OFFCURVE",
"266 -15 CURVE SMOOTH",
"456 -15 OFFCURVE",
"573 127 OFFCURVE",
"573 362 CURVE"
);
},
{
closed = 1;
nodes = (
"421 485 OFFCURVE",
"421 474 OFFCURVE",
"421 463 CURVE",
"417 399 OFFCURVE",
"351 344 OFFCURVE",
"288 344 CURVE SMOOTH",
"216 344 OFFCURVE",
"182 397 OFFCURVE",
"182 475 CURVE SMOOTH",
"182 561 OFFCURVE",
"237 611 OFFCURVE",
"300 611 CURVE SMOOTH",
"361 611 OFFCURVE",
"404 560 OFFCURVE",
"417 497 CURVE"
);
}
);
width = 623;
}
);
leftKerningGroup = nine;
rightKerningGroup = nine;
unicode = 0039;
userData = {
com.typemytype.robofont.mark = (
0.656,
1,
0.6,
1
);
};
},
{
glyphname = zero.lf;
lastChange = "2018-05-15 18:14:03 +0000";
layers = (
{
layerId = "B61D43DE-5272-4FF4-A680-608B6BF5ED9E";
paths = (
{
closed = 1;
nodes = (
"202 89 OFFCURVE",
"172 202 OFFCURVE",
"172 348 CURVE SMOOTH",
"172 502 OFFCURVE",
"203 609 OFFCURVE",
"288 609 CURVE SMOOTH",
"372 609 OFFCURVE",
"403 502 OFFCURVE",
"403 348 CURVE SMOOTH",
"403 202 OFFCURVE",
"374 89 OFFCURVE",
"288 89 CURVE SMOOTH"
);
},
{
closed = 1;
nodes = (
"474 -18 OFFCURVE",
"548 133 OFFCURVE",
"548 347 CURVE SMOOTH",
"548 596 OFFCURVE",
"453 714 OFFCURVE",
"292 714 CURVE SMOOTH",
"131 714 OFFCURVE",
"36 596 OFFCURVE",
"36 347 CURVE SMOOTH",
"36 133 OFFCURVE",
"110 -18 OFFCURVE",
"292 -18 CURVE SMOOTH"
);
}
);
width = 582;
}
);
leftKerningGroup = zero.lf;
rightKerningGroup = zero.lf;
userData = {
com.typemytype.robofont.mark = (
0.6,
0.609,
1,
1
);
};
},
{
glyphname = one.lf;
lastChange = "2018-05-15 18:14:03 +0000";
layers = (
{
layerId = "B61D43DE-5272-4FF4-A680-608B6BF5ED9E";
paths = (
{
closed = 1;
nodes = (
"224 0 LINE",
"224 715 LINE",
"89 645 LINE",
"89 0 LINE"
);
}
);
width = 313;
}
);
leftKerningGroup = one.lf;
rightKerningGroup = one.lf;
userData = {
com.typemytype.robofont.mark = (
0.6,
0.609,
1,
1
);
};
},
{
glyphname = two.lf;
lastChange = "2018-05-15 18:14:03 +0000";
layers = (
{
layerId = "B61D43DE-5272-4FF4-A680-608B6BF5ED9E";
paths = (
{
closed = 1;
nodes = (
"512 110 LINE",
"199 110 LINE",
"199 188 OFFCURVE",
"292 221 OFFCURVE",
"352 260 CURVE SMOOTH",
"440 317 OFFCURVE",
"510 386 OFFCURVE",
"510 503 CURVE SMOOTH",
"510 592 OFFCURVE",
"458 714 OFFCURVE",
"283 714 CURVE SMOOTH",
"135 714 OFFCURVE",
"55 628 OFFCURVE",
"43 524 CURVE",
"154 470 LINE",
"161 533 OFFCURVE",
"191 609 OFFCURVE",
"276 609 CURVE SMOOTH",
"350 609 OFFCURVE",
"374 555 OFFCURVE",
"374 499 CURVE SMOOTH",
"374 402 OFFCURVE",
"273 354 OFFCURVE",
"199 309 CURVE SMOOTH",
"76 234 OFFCURVE",
"56 155 OFFCURVE",
"56 64 CURVE SMOOTH",
"56 43 OFFCURVE",
"59 21 OFFCURVE",
"63 0 CURVE",
"512 0 LINE"
);
}
);
width = 561;
}
);
leftKerningGroup = two.lf;
rightKerningGroup = two.lf;
userData = {
com.typemytype.robofont.mark = (
0.6,
0.609,
1,
1
);
};
},
{
glyphname = three.lf;
lastChange = "2018-05-15 18:14:03 +0000";
layers = (
{
layerId = "B61D43DE-5272-4FF4-A680-608B6BF5ED9E";
paths = (
{
closed = 1;
nodes = (
"96 3 OFFCURVE",
"169 -15 OFFCURVE",
"245 -15 CURVE SMOOTH",
"388 -15 OFFCURVE",
"504 64 OFFCURVE",
"504 196 CURVE SMOOTH",
"504 280 OFFCURVE",
"456 339 OFFCURVE",
"371 360 CURVE",
"445 379 OFFCURVE",
"487 444 OFFCURVE",
"487 520 CURVE SMOOTH",
"487 634 OFFCURVE",
"399 714 OFFCURVE",
"261 714 CURVE SMOOTH",
"177 714 OFFCURVE",
"89 687 OFFCURVE",
"48 651 CURVE",
"88 554 LINE",
"124 594 OFFCURVE",
"180 609 OFFCURVE",
"229 609 CURVE SMOOTH",
"301 609 OFFCURVE",
"342 566 OFFCURVE",
"342 500 CURVE SMOOTH",
"342 439 OFFCURVE",
"298 409 OFFCURVE",
"216 409 CURVE",
"216 409 OFFCURVE",
"172 410 OFFCURVE",
"172 409 CURVE",
"172 310 LINE",
"171 311 OFFCURVE",
"213 312 OFFCURVE",
"214 312 CURVE SMOOTH",
"291 314 OFFCURVE",
"363 285 OFFCURVE",
"363 200 CURVE SMOOTH",
"363 136 OFFCURVE",
"322 96 OFFCURVE",
"232 96 CURVE SMOOTH",
"179 96 OFFCURVE",
"117 113 OFFCURVE",
"79 150 CURVE",
"40 43 LINE"
);
}
);
width = 545;
}
);
leftKerningGroup = three.lf;
rightKerningGroup = three.lf;
userData = {
com.typemytype.robofont.mark = (
0.6,
0.609,
1,
1
);
};
},
{
glyphname = four.lf;
lastChange = "2018-05-15 18:14:03 +0000";
layers = (
{
layerId = "B61D43DE-5272-4FF4-A680-608B6BF5ED9E";
paths = (
{
closed = 1;
nodes = (
"482 0 LINE",
"482 527 LINE",
"360 527 LINE",
"340 158 LINE",
"340 0 LINE"
);
},
{
closed = 1;
nodes = (
"573 144 LINE",
"573 239 LINE",
"185 239 LINE",
"303 697 LINE",
"157 697 LINE",
"22 144 LINE"
);
}
);
width = 599;
}
);
leftKerningGroup = four.lf;
rightKerningGroup = four.lf;
userData = {
com.typemytype.robofont.mark = (
0.6,
0.609,
1,
1
);
};
},
{
glyphname = five.lf;
lastChange = "2018-05-15 18:14:03 +0000";
layers = (
{
layerId = "B61D43DE-5272-4FF4-A680-608B6BF5ED9E";
paths = (
{
closed = 1;
nodes = (
"94 -1 OFFCURVE",
"169 -13 OFFCURVE",
"230 -13 CURVE SMOOTH",
"393 -13 OFFCURVE",
"505 75 OFFCURVE",
"505 231 CURVE SMOOTH",
"505 348 OFFCURVE",
"430 454 OFFCURVE",
"289 454 CURVE SMOOTH",
"253 454 OFFCURVE",
"224 451 OFFCURVE",
"193 442 CURVE",
"207 591 LINE",
"463 591 LINE",
"463 697 LINE",
"89 697 LINE",
"76 324 LINE",
"97 337 OFFCURVE",
"162 356 OFFCURVE",
"218 356 CURVE SMOOTH",
"315 356 OFFCURVE",
"370 305 OFFCURVE",
"370 226 CURVE SMOOTH",
"370 107 OFFCURVE",
"277 88 OFFCURVE",
"213 88 CURVE SMOOTH",
"166 88 OFFCURVE",
"111 109 OFFCURVE",
"82 136 CURVE",
"45 32 LINE"
);
}
);
width = 546;
}
);
leftKerningGroup = five.lf;
rightKerningGroup = five.lf;
userData = {
com.typemytype.robofont.mark = (
0.6,
0.609,
1,
1
);
};
},
{
glyphname = six.lf;
lastChange = "2018-05-15 18:14:03 +0000";
layers = (
{
layerId = "B61D43DE-5272-4FF4-A680-608B6BF5ED9E";
paths = (
{
closed = 1;
nodes = (
"53 73 OFFCURVE",
"205 -15 OFFCURVE",
"324 -15 CURVE SMOOTH",
"478 -15 OFFCURVE",
"580 83 OFFCURVE",
"580 237 CURVE SMOOTH",
"580 358 OFFCURVE",
"503 457 OFFCURVE",
"368 457 CURVE SMOOTH",
"295 457 OFFCURVE",
"226 427 OFFCURVE",
"190 358 CURVE",
"190 369 OFFCURVE",
"190 381 OFFCURVE",
"191 395 CURVE SMOOTH",
"201 498 OFFCURVE",
"246 609 OFFCURVE",
"350 609 CURVE SMOOTH",
"387 609 OFFCURVE",
"449 602 OFFCURVE",
"480 567 CURVE",
"529 663 LINE",
"497 694 OFFCURVE",
"440 714 OFFCURVE",
"346 714 CURVE SMOOTH",
"170 714 OFFCURVE",
"53 570 OFFCURVE",
"53 336 CURVE SMOOTH"
);
},
{
closed = 1;
nodes = (
"206 215 OFFCURVE",
"205 226 OFFCURVE",
"205 236 CURVE",
"209 301 OFFCURVE",
"275 355 OFFCURVE",
"338 355 CURVE SMOOTH",
"410 355 OFFCURVE",
"444 303 OFFCURVE",
"444 225 CURVE SMOOTH",
"444 139 OFFCURVE",
"390 88 OFFCURVE",
"327 88 CURVE SMOOTH",
"265 88 OFFCURVE",
"227 140 OFFCURVE",
"209 203 CURVE SMOOTH"
);
}
);
width = 623;
}
);
leftKerningGroup = six.lf;
rightKerningGroup = six.lf;
userData = {
com.typemytype.robofont.mark = (
0.6,
0.609,
1,
1
);
};
},
{
glyphname = seven.lf;
lastChange = "2018-05-15 18:14:03 +0000";
layers = (
{
layerId = "B61D43DE-5272-4FF4-A680-608B6BF5ED9E";
paths = (
{
closed = 1;
nodes = (
"266 0 LINE",
"315 158 OFFCURVE",
"458 563 OFFCURVE",
"485 648 CURVE",
"455 697 LINE",
"35 697 LINE",
"35 589 LINE",
"341 589 LINE",
"121 0 LINE"
);
}
);
width = 527;
}
);
leftKerningGroup = seven.lf;
rightKerningGroup = seven.lf;
userData = {
com.typemytype.robofont.mark = (
0.6,
0.609,
1,
1
);
};
},
{
glyphname = eight.lf;
lastChange = "2018-05-15 18:14:03 +0000";
layers = (
{
layerId = "B61D43DE-5272-4FF4-A680-608B6BF5ED9E";
paths = (
{
closed = 1;
nodes = (
"208 589 OFFCURVE",
"245 622 OFFCURVE",
"312 622 CURVE SMOOTH",
"379 622 OFFCURVE",
"412 589 OFFCURVE",
"412 524 CURVE SMOOTH",
"412 452 OFFCURVE",
"364 412 OFFCURVE",
"312 412 CURVE SMOOTH",
"260 412 OFFCURVE",
"208 452 OFFCURVE",
"208 524 CURVE SMOOTH"
);
},
{
closed = 1;
nodes = (
"77 400 OFFCURVE",
"174 339 OFFCURVE",
"311 339 CURVE SMOOTH",
"438 339 OFFCURVE",
"542 400 OFFCURVE",
"542 533 CURVE SMOOTH",
"542 665 OFFCURVE",
"426 714 OFFCURVE",
"311 714 CURVE SMOOTH",
"195 714 OFFCURVE",
"77 665 OFFCURVE",
"77 533 CURVE SMOOTH"
);
},
{
closed = 1;
nodes = (
"357 310 OFFCURVE",
"430 283 OFFCURVE",
"430 193 CURVE SMOOTH",
"430 119 OFFCURVE",
"386 83 OFFCURVE",
"310 83 CURVE SMOOTH",
"233 83 OFFCURVE",
"189 119 OFFCURVE",
"189 193 CURVE SMOOTH",
"189 283 OFFCURVE",
"262 310 OFFCURVE",
"310 310 CURVE SMOOTH"
);
},
{
closed = 1;
nodes = (
"435 -18 OFFCURVE",
"572 40 OFFCURVE",
"572 191 CURVE SMOOTH",
"572 321 OFFCURVE",
"454 384 OFFCURVE",
"310 384 CURVE SMOOTH",
"165 384 OFFCURVE",
"47 321 OFFCURVE",
"47 191 CURVE SMOOTH",
"47 40 OFFCURVE",
"184 -18 OFFCURVE",
"310 -18 CURVE SMOOTH"
);
}
);
width = 619;
}
);
leftKerningGroup = eight.lf;
rightKerningGroup = eight.lf;
userData = {
com.typemytype.robofont.mark = (
0.6,
0.609,
1,
1
);
};
},
{
glyphname = nine.lf;
lastChange = "2018-05-15 18:14:03 +0000";
layers = (
{
layerId = "B61D43DE-5272-4FF4-A680-608B6BF5ED9E";
paths = (
{
closed = 1;
nodes = (
"573 629 OFFCURVE",
"431 714 OFFCURVE",
"303 714 CURVE SMOOTH",
"149 714 OFFCURVE",
"46 617 OFFCURVE",
"46 463 CURVE SMOOTH",
"46 341 OFFCURVE",
"124 243 OFFCURVE",
"259 243 CURVE SMOOTH",
"331 243 OFFCURVE",
"400 272 OFFCURVE",
"436 341 CURVE",
"437 331 OFFCURVE",
"436 319 OFFCURVE",
"435 305 CURVE SMOOTH",
"429 202 OFFCURVE",
"381 90 OFFCURVE",
"262 90 CURVE SMOOTH",
"229 90 OFFCURVE",
"170 103 OFFCURVE",
"141 133 CURVE",
"92 37 LINE",
"122 10 OFFCURVE",
"179 -15 OFFCURVE",
"266 -15 CURVE SMOOTH",
"456 -15 OFFCURVE",
"573 127 OFFCURVE",
"573 362 CURVE"
);
},
{
closed = 1;
nodes = (
"421 485 OFFCURVE",
"421 474 OFFCURVE",
"421 463 CURVE",
"417 399 OFFCURVE",
"351 344 OFFCURVE",
"288 344 CURVE SMOOTH",
"216 344 OFFCURVE",
"182 397 OFFCURVE",
"182 475 CURVE SMOOTH",
"182 561 OFFCURVE",
"237 611 OFFCURVE",
"300 611 CURVE SMOOTH",
"361 611 OFFCURVE",
"404 560 OFFCURVE",
"417 497 CURVE"
);
}
);
width = 623;
}
);
leftKerningGroup = nine.lf;
rightKerningGroup = nine.lf;
userData = {
com.typemytype.robofont.mark = (
0.6,
0.609,
1,
1
);
};
},
{
glyphname = zero.lp;
lastChange = "2018-05-15 18:14:03 +0000";
layers = (
{
layerId = "B61D43DE-5272-4FF4-A680-608B6BF5ED9E";
paths = (
{
closed = 1;
nodes = (
"202 89 OFFCURVE",
"172 202 OFFCURVE",
"172 348 CURVE SMOOTH",
"172 502 OFFCURVE",
"203 609 OFFCURVE",
"288 609 CURVE SMOOTH",
"372 609 OFFCURVE",
"403 502 OFFCURVE",
"403 348 CURVE SMOOTH",
"403 202 OFFCURVE",
"374 89 OFFCURVE",
"288 89 CURVE SMOOTH"
);
},
{
closed = 1;
nodes = (
"474 -18 OFFCURVE",
"548 133 OFFCURVE",
"548 347 CURVE SMOOTH",
"548 596 OFFCURVE",
"453 714 OFFCURVE",
"292 714 CURVE SMOOTH",
"131 714 OFFCURVE",
"36 596 OFFCURVE",
"36 347 CURVE SMOOTH",
"36 133 OFFCURVE",
"110 -18 OFFCURVE",
"292 -18 CURVE SMOOTH"
);
}
);
width = 582;
}
);
leftKerningGroup = zero.lp;
rightKerningGroup = zero.lp;
},
{
glyphname = one.lp;
lastChange = "2018-05-15 18:14:03 +0000";
layers = (
{
layerId = "B61D43DE-5272-4FF4-A680-608B6BF5ED9E";
paths = (
{
closed = 1;
nodes = (
"224 0 LINE",
"224 715 LINE",
"89 645 LINE",
"89 0 LINE"
);
}
);
width = 313;
}
);
leftKerningGroup = one.lp;
rightKerningGroup = one.lp;
},
{
glyphname = two.lp;
lastChange = "2018-05-15 18:14:03 +0000";
layers = (
{
layerId = "B61D43DE-5272-4FF4-A680-608B6BF5ED9E";
paths = (
{
closed = 1;
nodes = (
"512 110 LINE",
"199 110 LINE",
"199 188 OFFCURVE",
"292 221 OFFCURVE",
"352 260 CURVE SMOOTH",
"440 317 OFFCURVE",
"510 386 OFFCURVE",
"510 503 CURVE SMOOTH",
"510 592 OFFCURVE",
"458 714 OFFCURVE",
"283 714 CURVE SMOOTH",
"135 714 OFFCURVE",
"55 628 OFFCURVE",
"43 524 CURVE",
"154 470 LINE",
"161 533 OFFCURVE",
"191 609 OFFCURVE",
"276 609 CURVE SMOOTH",
"350 609 OFFCURVE",
"374 555 OFFCURVE",
"374 499 CURVE SMOOTH",
"374 402 OFFCURVE",
"273 354 OFFCURVE",
"199 309 CURVE SMOOTH",
"76 234 OFFCURVE",
"56 155 OFFCURVE",
"56 64 CURVE SMOOTH",
"56 43 OFFCURVE",
"59 21 OFFCURVE",
"63 0 CURVE",
"512 0 LINE"
);
}
);
width = 561;
}
);
leftKerningGroup = two.lp;
rightKerningGroup = two.lp;
},
{
glyphname = three.lp;
lastChange = "2018-05-15 18:14:03 +0000";
layers = (
{
layerId = "B61D43DE-5272-4FF4-A680-608B6BF5ED9E";
paths = (
{
closed = 1;
nodes = (
"96 3 OFFCURVE",
"169 -15 OFFCURVE",
"245 -15 CURVE SMOOTH",
"388 -15 OFFCURVE",
"504 64 OFFCURVE",
"504 196 CURVE SMOOTH",
"504 280 OFFCURVE",
"456 339 OFFCURVE",
"371 360 CURVE",
"445 379 OFFCURVE",
"487 444 OFFCURVE",
"487 520 CURVE SMOOTH",
"487 634 OFFCURVE",
"399 714 OFFCURVE",
"261 714 CURVE SMOOTH",
"177 714 OFFCURVE",
"89 687 OFFCURVE",
"48 651 CURVE",
"88 554 LINE",
"124 594 OFFCURVE",
"180 609 OFFCURVE",
"229 609 CURVE SMOOTH",
"301 609 OFFCURVE",
"342 566 OFFCURVE",
"342 500 CURVE SMOOTH",
"342 439 OFFCURVE",
"298 409 OFFCURVE",
"216 409 CURVE",
"216 409 OFFCURVE",
"172 410 OFFCURVE",
"172 409 CURVE",
"172 310 LINE",
"171 311 OFFCURVE",
"213 312 OFFCURVE",
"214 312 CURVE SMOOTH",
"291 314 OFFCURVE",
"363 285 OFFCURVE",
"363 200 CURVE SMOOTH",
"363 136 OFFCURVE",
"322 96 OFFCURVE",
"232 96 CURVE SMOOTH",
"179 96 OFFCURVE",
"117 113 OFFCURVE",
"79 150 CURVE",
"40 43 LINE"
);
}
);
width = 545;
}
);
leftKerningGroup = three.lp;
rightKerningGroup = three.lp;
},
{
glyphname = four.lp;
lastChange = "2018-05-15 18:14:03 +0000";
layers = (
{
layerId = "B61D43DE-5272-4FF4-A680-608B6BF5ED9E";
paths = (
{
closed = 1;
nodes = (
"482 0 LINE",
"482 547 LINE",
"360 547 LINE",
"340 158 LINE",
"340 0 LINE"
);
},
{
closed = 1;
nodes = (
"573 144 LINE",
"573 239 LINE",
"185 239 LINE",
"303 697 LINE",
"157 697 LINE",
"22 144 LINE"
);
}
);
width = 599;
}
);
leftKerningGroup = four.lp;
rightKerningGroup = four.lp;
},
{
glyphname = five.lp;
lastChange = "2018-05-15 18:14:03 +0000";
layers = (
{
layerId = "B61D43DE-5272-4FF4-A680-608B6BF5ED9E";
paths = (
{
closed = 1;
nodes = (
"94 -1 OFFCURVE",
"169 -13 OFFCURVE",
"230 -13 CURVE SMOOTH",
"393 -13 OFFCURVE",
"505 75 OFFCURVE",
"505 231 CURVE SMOOTH",
"505 348 OFFCURVE",
"430 454 OFFCURVE",
"289 454 CURVE SMOOTH",
"253 454 OFFCURVE",
"224 451 OFFCURVE",
"193 442 CURVE",
"207 591 LINE",
"463 591 LINE",
"463 697 LINE",
"89 697 LINE",
"76 324 LINE",
"97 337 OFFCURVE",
"162 356 OFFCURVE",
"218 356 CURVE SMOOTH",
"315 356 OFFCURVE",
"370 305 OFFCURVE",
"370 226 CURVE SMOOTH",
"370 107 OFFCURVE",
"277 88 OFFCURVE",
"213 88 CURVE SMOOTH",
"166 88 OFFCURVE",
"111 109 OFFCURVE",
"82 136 CURVE",
"45 32 LINE"
);
}
);
width = 546;
}
);
leftKerningGroup = five.lp;
rightKerningGroup = five.lp;
},
{
glyphname = six.lp;
lastChange = "2018-05-15 18:14:03 +0000";
layers = (
{
layerId = "B61D43DE-5272-4FF4-A680-608B6BF5ED9E";
paths = (
{
closed = 1;
nodes = (
"53 73 OFFCURVE",
"205 -15 OFFCURVE",
"324 -15 CURVE SMOOTH",
"478 -15 OFFCURVE",
"580 83 OFFCURVE",
"580 237 CURVE SMOOTH",
"580 358 OFFCURVE",
"503 457 OFFCURVE",
"368 457 CURVE SMOOTH",
"295 457 OFFCURVE",
"226 427 OFFCURVE",
"190 358 CURVE",
"190 369 OFFCURVE",
"190 381 OFFCURVE",
"191 395 CURVE SMOOTH",
"201 498 OFFCURVE",
"246 609 OFFCURVE",
"350 609 CURVE SMOOTH",
"387 609 OFFCURVE",
"449 602 OFFCURVE",
"480 567 CURVE",
"529 663 LINE",
"497 694 OFFCURVE",
"440 714 OFFCURVE",
"346 714 CURVE SMOOTH",
"170 714 OFFCURVE",
"53 570 OFFCURVE",
"53 336 CURVE SMOOTH"
);
},
{
closed = 1;
nodes = (
"206 215 OFFCURVE",
"205 226 OFFCURVE",
"205 236 CURVE",
"209 301 OFFCURVE",
"275 355 OFFCURVE",
"338 355 CURVE SMOOTH",
"410 355 OFFCURVE",
"444 303 OFFCURVE",
"444 225 CURVE SMOOTH",
"444 139 OFFCURVE",
"390 88 OFFCURVE",
"327 88 CURVE SMOOTH",
"265 88 OFFCURVE",
"227 140 OFFCURVE",
"209 203 CURVE SMOOTH"
);
}
);
width = 623;
}
);
leftKerningGroup = six.lp;
rightKerningGroup = six.lp;
},
{
glyphname = seven.lp;
lastChange = "2018-05-15 18:14:03 +0000";
layers = (
{
layerId = "B61D43DE-5272-4FF4-A680-608B6BF5ED9E";
paths = (
{
closed = 1;
nodes = (
"266 0 LINE",
"315 158 OFFCURVE",
"458 563 OFFCURVE",
"485 648 CURVE",
"455 697 LINE",
"35 697 LINE",
"35 589 LINE",
"341 589 LINE",
"121 0 LINE"
);
}
);
width = 527;
}
);
leftKerningGroup = seven.lp;
rightKerningGroup = seven.lp;
},
{
glyphname = eight.lp;
lastChange = "2018-05-15 18:14:03 +0000";
layers = (
{
layerId = "B61D43DE-5272-4FF4-A680-608B6BF5ED9E";
paths = (
{
closed = 1;
nodes = (
"208 589 OFFCURVE",
"245 622 OFFCURVE",
"312 622 CURVE SMOOTH",
"379 622 OFFCURVE",
"412 589 OFFCURVE",
"412 524 CURVE SMOOTH",
"412 452 OFFCURVE",
"364 412 OFFCURVE",
"312 412 CURVE SMOOTH",
"260 412 OFFCURVE",
"208 452 OFFCURVE",
"208 524 CURVE SMOOTH"
);
},
{
closed = 1;
nodes = (
"77 400 OFFCURVE",
"174 339 OFFCURVE",
"311 339 CURVE SMOOTH",
"438 339 OFFCURVE",
"542 400 OFFCURVE",
"542 533 CURVE SMOOTH",
"542 665 OFFCURVE",
"426 714 OFFCURVE",
"311 714 CURVE SMOOTH",
"195 714 OFFCURVE",
"77 665 OFFCURVE",
"77 533 CURVE SMOOTH"
);
},
{
closed = 1;
nodes = (
"357 310 OFFCURVE",
"430 283 OFFCURVE",
"430 193 CURVE SMOOTH",
"430 119 OFFCURVE",
"386 83 OFFCURVE",
"310 83 CURVE SMOOTH",
"233 83 OFFCURVE",
"189 119 OFFCURVE",
"189 193 CURVE SMOOTH",
"189 283 OFFCURVE",
"262 310 OFFCURVE",
"310 310 CURVE SMOOTH"
);
},
{
closed = 1;
nodes = (
"435 -18 OFFCURVE",
"572 40 OFFCURVE",
"572 191 CURVE SMOOTH",
"572 321 OFFCURVE",
"454 384 OFFCURVE",
"310 384 CURVE SMOOTH",
"165 384 OFFCURVE",
"47 321 OFFCURVE",
"47 191 CURVE SMOOTH",
"47 40 OFFCURVE",
"184 -18 OFFCURVE",
"310 -18 CURVE SMOOTH"
);
}
);
width = 619;
}
);
leftKerningGroup = eight.lp;
rightKerningGroup = eight.lp;
},
{
glyphname = nine.lp;
lastChange = "2018-05-15 18:14:03 +0000";
layers = (
{
layerId = "B61D43DE-5272-4FF4-A680-608B6BF5ED9E";
paths = (
{
closed = 1;
nodes = (
"573 629 OFFCURVE",
"431 714 OFFCURVE",
"303 714 CURVE SMOOTH",
"149 714 OFFCURVE",
"46 617 OFFCURVE",
"46 463 CURVE SMOOTH",
"46 341 OFFCURVE",
"124 243 OFFCURVE",
"259 243 CURVE SMOOTH",
"331 243 OFFCURVE",
"400 272 OFFCURVE",
"436 341 CURVE",
"437 331 OFFCURVE",
"436 319 OFFCURVE",
"435 305 CURVE SMOOTH",
"429 202 OFFCURVE",
"381 90 OFFCURVE",
"262 90 CURVE SMOOTH",
"229 90 OFFCURVE",
"170 103 OFFCURVE",
"141 133 CURVE",
"92 37 LINE",
"122 10 OFFCURVE",
"179 -15 OFFCURVE",
"266 -15 CURVE SMOOTH",
"456 -15 OFFCURVE",
"573 127 OFFCURVE",
"573 362 CURVE"
);
},
{
closed = 1;
nodes = (
"421 485 OFFCURVE",
"421 474 OFFCURVE",
"421 463 CURVE",
"417 399 OFFCURVE",
"351 344 OFFCURVE",
"288 344 CURVE SMOOTH",
"216 344 OFFCURVE",
"182 397 OFFCURVE",
"182 475 CURVE SMOOTH",
"182 561 OFFCURVE",
"237 611 OFFCURVE",
"300 611 CURVE SMOOTH",
"361 611 OFFCURVE",
"404 560 OFFCURVE",
"417 497 CURVE"
);
}
);
width = 623;
}
);
leftKerningGroup = nine.lp;
rightKerningGroup = nine.lp;
},
{
glyphname = zero.lp.zero;
lastChange = "2018-05-16 03:38:19 +0000";
layers = (
{
layerId = "B61D43DE-5272-4FF4-A680-608B6BF5ED9E";
paths = (
{
closed = 1;
nodes = (
"202 89 OFFCURVE",
"172 202 OFFCURVE",
"172 348 CURVE SMOOTH",
"172 502 OFFCURVE",
"203 609 OFFCURVE",
"288 609 CURVE SMOOTH",
"372 609 OFFCURVE",
"403 502 OFFCURVE",
"403 348 CURVE SMOOTH",
"403 202 OFFCURVE",
"374 89 OFFCURVE",
"288 89 CURVE SMOOTH"
);
},
{
closed = 1;
nodes = (
"474 -18 OFFCURVE",
"548 133 OFFCURVE",
"548 347 CURVE SMOOTH",
"548 596 OFFCURVE",
"453 714 OFFCURVE",
"292 714 CURVE SMOOTH",
"131 714 OFFCURVE",
"36 596 OFFCURVE",
"36 347 CURVE SMOOTH",
"36 133 OFFCURVE",
"110 -18 OFFCURVE",
"292 -18 CURVE SMOOTH"
);
},
{
closed = 1;
nodes = (
"239 89 LINE",
"415 609 LINE",
"336 609 LINE",
"160 89 LINE"
);
}
);
width = 582;
}
);
leftKerningGroup = zeroslash.lp;
rightKerningGroup = zeroslash.lp;
},
{
glyphname = zero.lt.zero;
lastChange = "2018-05-16 03:38:32 +0000";
layers = (
{
layerId = "B61D43DE-5272-4FF4-A680-608B6BF5ED9E";
paths = (
{
closed = 1;
nodes = (
"202 89 OFFCURVE",
"172 202 OFFCURVE",
"172 348 CURVE SMOOTH",
"172 502 OFFCURVE",
"203 609 OFFCURVE",
"288 609 CURVE SMOOTH",
"372 609 OFFCURVE",
"403 502 OFFCURVE",
"403 348 CURVE SMOOTH",
"403 202 OFFCURVE",
"374 89 OFFCURVE",
"288 89 CURVE SMOOTH"
);
},
{
closed = 1;
nodes = (
"474 -18 OFFCURVE",
"548 133 OFFCURVE",
"548 347 CURVE SMOOTH",
"548 596 OFFCURVE",
"453 714 OFFCURVE",
"292 714 CURVE SMOOTH",
"131 714 OFFCURVE",
"36 596 OFFCURVE",
"36 347 CURVE SMOOTH",
"36 133 OFFCURVE",
"110 -18 OFFCURVE",
"292 -18 CURVE SMOOTH"
);
},
{
closed = 1;
nodes = (
"239 89 LINE",
"415 609 LINE",
"336 609 LINE",
"160 89 LINE"
);
}
);
width = 582;
}
);
leftKerningGroup = zeroslash.lt;
rightKerningGroup = zeroslash.lt;
},
{
glyphname = zero.op;
lastChange = "2018-05-15 18:14:03 +0000";
layers = (
{
layerId = "B61D43DE-5272-4FF4-A680-608B6BF5ED9E";
paths = (
{
closed = 1;
nodes = (
"202 89 OFFCURVE",
"172 160 OFFCURVE",
"172 246 CURVE SMOOTH",
"172 338 OFFCURVE",
"203 404 OFFCURVE",
"288 404 CURVE SMOOTH",
"372 404 OFFCURVE",
"403 338 OFFCURVE",
"403 246 CURVE SMOOTH",
"403 160 OFFCURVE",
"374 89 OFFCURVE",
"288 89 CURVE SMOOTH"
);
},
{
closed = 1;
nodes = (
"474 -18 OFFCURVE",
"548 92 OFFCURVE",
"548 244 CURVE SMOOTH",
"548 421 OFFCURVE",
"453 509 OFFCURVE",
"292 509 CURVE SMOOTH",
"131 509 OFFCURVE",
"36 421 OFFCURVE",
"36 244 CURVE SMOOTH",
"36 92 OFFCURVE",
"110 -18 OFFCURVE",
"292 -18 CURVE SMOOTH"
);
}
);
width = 582;
}
);
leftKerningGroup = zero.op;
rightKerningGroup = zero.op;
},
{
glyphname = one.op;
lastChange = "2018-05-15 18:14:03 +0000";
layers = (
{
layerId = "B61D43DE-5272-4FF4-A680-608B6BF5ED9E";
paths = (
{
closed = 1;
nodes = (
"224 0 LINE",
"224 511 LINE",
"89 440 LINE",
"89 0 LINE"
);
}
);
width = 313;
}
);
leftKerningGroup = one.op;
rightKerningGroup = one.op;
},
{
glyphname = two.op;
lastChange = "2018-05-15 18:14:03 +0000";
layers = (
{
layerId = "B61D43DE-5272-4FF4-A680-608B6BF5ED9E";
paths = (
{
closed = 1;
nodes = (
"498 110 LINE",
"189 110 LINE",
"189 129 OFFCURVE",
"285 155 OFFCURVE",
"352 177 CURVE SMOOTH",
"445 207 OFFCURVE",
"510 249 OFFCURVE",
"510 352 CURVE SMOOTH",
"510 421 OFFCURVE",
"458 511 OFFCURVE",
"283 511 CURVE SMOOTH",
"135 511 OFFCURVE",
"55 436 OFFCURVE",
"43 358 CURVE",
"154 304 LINE",
"161 345 OFFCURVE",
"191 406 OFFCURVE",
"276 406 CURVE SMOOTH",
"350 406 OFFCURVE",
"374 379 OFFCURVE",
"374 347 CURVE SMOOTH",
"374 267 OFFCURVE",
"275 259 OFFCURVE",
"209 235 CURVE SMOOTH",
"68 176 OFFCURVE",
"46 125 OFFCURVE",
"46 64 CURVE SMOOTH",
"46 43 OFFCURVE",
"49 21 OFFCURVE",
"54 0 CURVE",
"498 0 LINE"
);
}
);
width = 561;
}
);
leftKerningGroup = two.op;
rightKerningGroup = two.op;
},
{
glyphname = three.op;
lastChange = "2018-05-15 18:14:03 +0000";
layers = (
{
layerId = "B61D43DE-5272-4FF4-A680-608B6BF5ED9E";
paths = (
{
closed = 1;
nodes = (
"96 -200 OFFCURVE",
"169 -218 OFFCURVE",
"245 -218 CURVE SMOOTH",
"388 -218 OFFCURVE",
"504 -140 OFFCURVE",
"504 -8 CURVE SMOOTH",
"504 77 OFFCURVE",
"456 135 OFFCURVE",
"371 157 CURVE",
"445 176 OFFCURVE",
"487 241 OFFCURVE",
"487 316 CURVE SMOOTH",
"487 430 OFFCURVE",
"399 511 OFFCURVE",
"261 511 CURVE SMOOTH",
"177 511 OFFCURVE",
"89 483 OFFCURVE",
"48 448 CURVE",
"88 351 LINE",
"124 390 OFFCURVE",
"180 406 OFFCURVE",
"229 406 CURVE SMOOTH",
"301 406 OFFCURVE",
"342 363 OFFCURVE",
"342 296 CURVE SMOOTH",
"342 235 OFFCURVE",
"298 205 OFFCURVE",
"216 205 CURVE",
"216 205 OFFCURVE",
"172 206 OFFCURVE",
"172 205 CURVE",
"172 106 LINE",
"171 107 OFFCURVE",
"213 108 OFFCURVE",
"214 108 CURVE SMOOTH",
"291 110 OFFCURVE",
"363 81 OFFCURVE",
"363 -4 CURVE SMOOTH",
"363 -68 OFFCURVE",
"322 -108 OFFCURVE",
"232 -108 CURVE SMOOTH",
"179 -108 OFFCURVE",
"117 -90 OFFCURVE",
"79 -54 CURVE",
"40 -161 LINE"
);
}
);
width = 545;
}
);
leftKerningGroup = three.op;
rightKerningGroup = three.op;
},
{
glyphname = four.op;
lastChange = "2018-05-15 18:14:03 +0000";
layers = (
{
layerId = "B61D43DE-5272-4FF4-A680-608B6BF5ED9E";
paths = (
{
closed = 1;
nodes = (
"482 -144 LINE",
"482 403 LINE",
"360 403 LINE",
"340 15 LINE",
"340 -144 LINE"
);
},
{
closed = 1;
nodes = (
"573 0 LINE",
"573 95 LINE",
"185 95 LINE",
"303 553 LINE",
"157 553 LINE",
"22 0 LINE"
);
}
);
width = 599;
}
);
leftKerningGroup = four.op;
rightKerningGroup = four.op;
},
{
glyphname = five.op;
lastChange = "2018-05-15 18:14:03 +0000";
layers = (
{
layerId = "B61D43DE-5272-4FF4-A680-608B6BF5ED9E";
paths = (
{
closed = 1;
nodes = (
"94 -200 OFFCURVE",
"169 -212 OFFCURVE",
"230 -212 CURVE SMOOTH",
"393 -212 OFFCURVE",
"505 -124 OFFCURVE",
"505 32 CURVE SMOOTH",
"505 149 OFFCURVE",
"430 255 OFFCURVE",
"289 255 CURVE SMOOTH",
"253 255 OFFCURVE",
"224 251 OFFCURVE",
"193 243 CURVE",
"207 392 LINE",
"463 392 LINE",
"463 498 LINE",
"89 498 LINE",
"76 125 LINE",
"97 138 OFFCURVE",
"162 157 OFFCURVE",
"218 157 CURVE SMOOTH",
"315 157 OFFCURVE",
"370 105 OFFCURVE",
"370 27 CURVE SMOOTH",
"370 -92 OFFCURVE",
"277 -111 OFFCURVE",
"213 -111 CURVE SMOOTH",
"166 -111 OFFCURVE",
"111 -90 OFFCURVE",
"82 -63 CURVE",
"45 -167 LINE"
);
}
);
width = 546;
}
);
leftKerningGroup = five.op;
rightKerningGroup = five.op;
},
{
glyphname = six.op;
lastChange = "2018-05-15 18:14:03 +0000";
layers = (
{
layerId = "B61D43DE-5272-4FF4-A680-608B6BF5ED9E";
paths = (
{
closed = 1;
nodes = (
"53 73 OFFCURVE",
"205 -15 OFFCURVE",
"324 -15 CURVE SMOOTH",
"478 -15 OFFCURVE",
"580 83 OFFCURVE",
"580 237 CURVE SMOOTH",
"580 358 OFFCURVE",
"503 457 OFFCURVE",
"368 457 CURVE SMOOTH",
"295 457 OFFCURVE",
"226 427 OFFCURVE",
"190 358 CURVE",
"190 369 OFFCURVE",
"190 381 OFFCURVE",
"191 395 CURVE SMOOTH",
"201 498 OFFCURVE",
"246 609 OFFCURVE",
"350 609 CURVE SMOOTH",
"387 609 OFFCURVE",
"449 602 OFFCURVE",
"480 567 CURVE",
"529 663 LINE",
"497 694 OFFCURVE",
"440 714 OFFCURVE",
"346 714 CURVE SMOOTH",
"170 714 OFFCURVE",
"53 570 OFFCURVE",
"53 336 CURVE SMOOTH"
);
},
{
closed = 1;
nodes = (
"206 215 OFFCURVE",
"205 226 OFFCURVE",
"205 236 CURVE",
"209 301 OFFCURVE",
"275 355 OFFCURVE",
"338 355 CURVE SMOOTH",
"410 355 OFFCURVE",
"444 303 OFFCURVE",
"444 225 CURVE SMOOTH",
"444 139 OFFCURVE",
"390 88 OFFCURVE",
"327 88 CURVE SMOOTH",
"265 88 OFFCURVE",
"227 140 OFFCURVE",
"209 203 CURVE SMOOTH"
);
}
);
width = 623;
}
);
leftKerningGroup = six.op;
rightKerningGroup = six.op;
},
{
glyphname = seven.op;
lastChange = "2018-05-15 18:14:03 +0000";
layers = (
{
layerId = "B61D43DE-5272-4FF4-A680-608B6BF5ED9E";
paths = (
{
closed = 1;
nodes = (
"266 -199 LINE",
"315 -41 OFFCURVE",
"458 364 OFFCURVE",
"485 449 CURVE",
"455 498 LINE",
"35 498 LINE",
"35 390 LINE",
"341 390 LINE",
"121 -199 LINE"
);
}
);
width = 527;
}
);
leftKerningGroup = seven.op;
rightKerningGroup = seven.op;
},
{
glyphname = eight.op;
lastChange = "2018-05-15 18:14:03 +0000";
layers = (
{
layerId = "B61D43DE-5272-4FF4-A680-608B6BF5ED9E";
paths = (
{
closed = 1;
nodes = (
"208 589 OFFCURVE",
"245 622 OFFCURVE",
"312 622 CURVE SMOOTH",
"379 622 OFFCURVE",
"412 589 OFFCURVE",
"412 524 CURVE SMOOTH",
"412 452 OFFCURVE",
"364 412 OFFCURVE",
"312 412 CURVE SMOOTH",
"260 412 OFFCURVE",
"208 452 OFFCURVE",
"208 524 CURVE SMOOTH"
);
},
{
closed = 1;
nodes = (
"77 400 OFFCURVE",
"174 339 OFFCURVE",
"311 339 CURVE SMOOTH",
"438 339 OFFCURVE",
"542 400 OFFCURVE",
"542 533 CURVE SMOOTH",
"542 665 OFFCURVE",
"426 714 OFFCURVE",
"311 714 CURVE SMOOTH",
"195 714 OFFCURVE",
"77 665 OFFCURVE",
"77 533 CURVE SMOOTH"
);
},
{
closed = 1;
nodes = (
"357 310 OFFCURVE",
"430 283 OFFCURVE",
"430 193 CURVE SMOOTH",
"430 119 OFFCURVE",
"386 83 OFFCURVE",
"310 83 CURVE SMOOTH",
"233 83 OFFCURVE",
"189 119 OFFCURVE",
"189 193 CURVE SMOOTH",
"189 283 OFFCURVE",
"262 310 OFFCURVE",
"310 310 CURVE SMOOTH"
);
},
{
closed = 1;
nodes = (
"435 -18 OFFCURVE",
"572 40 OFFCURVE",
"572 191 CURVE SMOOTH",
"572 321 OFFCURVE",
"454 384 OFFCURVE",
"310 384 CURVE SMOOTH",
"165 384 OFFCURVE",
"47 321 OFFCURVE",
"47 191 CURVE SMOOTH",
"47 40 OFFCURVE",
"184 -18 OFFCURVE",
"310 -18 CURVE SMOOTH"
);
}
);
width = 619;
}
);
leftKerningGroup = eight.op;
rightKerningGroup = eight.op;
},
{
glyphname = nine.op;
lastChange = "2018-05-15 18:14:03 +0000";
layers = (
{
layerId = "B61D43DE-5272-4FF4-A680-608B6BF5ED9E";
paths = (
{
closed = 1;
nodes = (
"573 427 OFFCURVE",
"431 512 OFFCURVE",
"303 512 CURVE SMOOTH",
"149 512 OFFCURVE",
"46 414 OFFCURVE",
"46 260 CURVE SMOOTH",
"46 139 OFFCURVE",
"124 40 OFFCURVE",
"259 40 CURVE SMOOTH",
"331 40 OFFCURVE",
"400 70 OFFCURVE",
"436 139 CURVE",
"437 128 OFFCURVE",
"436 116 OFFCURVE",
"435 102 CURVE SMOOTH",
"429 -1 OFFCURVE",
"381 -112 OFFCURVE",
"262 -112 CURVE SMOOTH",
"229 -112 OFFCURVE",
"170 -100 OFFCURVE",
"141 -70 CURVE",
"92 -166 LINE",
"122 -192 OFFCURVE",
"179 -217 OFFCURVE",
"266 -217 CURVE SMOOTH",
"456 -217 OFFCURVE",
"573 -75 OFFCURVE",
"573 159 CURVE"
);
},
{
closed = 1;
nodes = (
"421 282 OFFCURVE",
"421 271 OFFCURVE",
"421 261 CURVE",
"417 196 OFFCURVE",
"351 142 OFFCURVE",
"288 142 CURVE SMOOTH",
"216 142 OFFCURVE",
"182 194 OFFCURVE",
"182 272 CURVE SMOOTH",
"182 358 OFFCURVE",
"237 409 OFFCURVE",
"300 409 CURVE SMOOTH",
"361 409 OFFCURVE",
"404 357 OFFCURVE",
"417 294 CURVE"
);
}
);
width = 623;
}
);
leftKerningGroup = nine.op;
rightKerningGroup = nine.op;
},
{
glyphname = zero.op.zero;
lastChange = "2018-05-15 18:51:43 +0000";
layers = (
{
layerId = "B61D43DE-5272-4FF4-A680-608B6BF5ED9E";
paths = (
{
closed = 1;
nodes = (
"239 89 LINE",
"415 409 LINE",
"336 409 LINE",
"160 89 LINE"
);
},
{
closed = 1;
nodes = (
"202 89 OFFCURVE",
"172 160 OFFCURVE",
"172 246 CURVE SMOOTH",
"172 338 OFFCURVE",
"203 404 OFFCURVE",
"288 404 CURVE SMOOTH",
"372 404 OFFCURVE",
"403 338 OFFCURVE",
"403 246 CURVE SMOOTH",
"403 160 OFFCURVE",
"374 89 OFFCURVE",
"288 89 CURVE SMOOTH"
);
},
{
closed = 1;
nodes = (
"474 -18 OFFCURVE",
"548 92 OFFCURVE",
"548 244 CURVE SMOOTH",
"548 421 OFFCURVE",
"453 509 OFFCURVE",
"292 509 CURVE SMOOTH",
"131 509 OFFCURVE",
"36 421 OFFCURVE",
"36 244 CURVE SMOOTH",
"36 92 OFFCURVE",
"110 -18 OFFCURVE",
"292 -18 CURVE SMOOTH"
);
}
);
width = 582;
}
);
leftKerningGroup = zeroslash.op;
rightKerningGroup = zeroslash.op;
},
{
glyphname = zero.osf;
lastChange = "2018-05-15 18:14:03 +0000";
layers = (
{
layerId = "B61D43DE-5272-4FF4-A680-608B6BF5ED9E";
paths = (
{
closed = 1;
nodes = (
"202 89 OFFCURVE",
"172 160 OFFCURVE",
"172 246 CURVE SMOOTH",
"172 338 OFFCURVE",
"203 404 OFFCURVE",
"288 404 CURVE SMOOTH",
"372 404 OFFCURVE",
"403 338 OFFCURVE",
"403 246 CURVE SMOOTH",
"403 160 OFFCURVE",
"374 89 OFFCURVE",
"288 89 CURVE SMOOTH"
);
},
{
closed = 1;
nodes = (
"474 -18 OFFCURVE",
"548 92 OFFCURVE",
"548 244 CURVE SMOOTH",
"548 421 OFFCURVE",
"453 509 OFFCURVE",
"292 509 CURVE SMOOTH",
"131 509 OFFCURVE",
"36 421 OFFCURVE",
"36 244 CURVE SMOOTH",
"36 92 OFFCURVE",
"110 -18 OFFCURVE",
"292 -18 CURVE SMOOTH"
);
}
);
width = 582;
}
);
leftKerningGroup = zero.osf;
rightKerningGroup = zero.osf;
},
{
glyphname = one.osf;
lastChange = "2018-05-15 18:14:03 +0000";
layers = (
{
layerId = "B61D43DE-5272-4FF4-A680-608B6BF5ED9E";
paths = (
{
closed = 1;
nodes = (
"224 0 LINE",
"224 511 LINE",
"89 440 LINE",
"89 0 LINE"
);
}
);
width = 313;
}
);
leftKerningGroup = one.osf;
rightKerningGroup = one.osf;
},
{
glyphname = two.osf;
lastChange = "2018-05-15 18:14:03 +0000";
layers = (
{
layerId = "B61D43DE-5272-4FF4-A680-608B6BF5ED9E";
paths = (
{
closed = 1;
nodes = (
"498 110 LINE",
"189 110 LINE",
"189 129 OFFCURVE",
"285 155 OFFCURVE",
"352 177 CURVE SMOOTH",
"445 207 OFFCURVE",
"510 249 OFFCURVE",
"510 352 CURVE SMOOTH",
"510 421 OFFCURVE",
"458 511 OFFCURVE",
"283 511 CURVE SMOOTH",
"135 511 OFFCURVE",
"55 436 OFFCURVE",
"43 358 CURVE",
"154 304 LINE",
"161 345 OFFCURVE",
"191 406 OFFCURVE",
"276 406 CURVE SMOOTH",
"350 406 OFFCURVE",
"374 379 OFFCURVE",
"374 347 CURVE SMOOTH",
"374 267 OFFCURVE",
"275 259 OFFCURVE",
"209 235 CURVE SMOOTH",
"68 176 OFFCURVE",
"46 125 OFFCURVE",
"46 64 CURVE SMOOTH",
"46 43 OFFCURVE",
"49 21 OFFCURVE",
"54 0 CURVE",
"498 0 LINE"
);
}
);
width = 561;
}
);
leftKerningGroup = two.osf;
rightKerningGroup = two.osf;
},
{
glyphname = three.osf;
lastChange = "2018-05-15 18:14:03 +0000";
layers = (
{
layerId = "B61D43DE-5272-4FF4-A680-608B6BF5ED9E";
paths = (
{
closed = 1;
nodes = (
"96 -200 OFFCURVE",
"169 -218 OFFCURVE",
"245 -218 CURVE SMOOTH",
"388 -218 OFFCURVE",
"504 -140 OFFCURVE",
"504 -8 CURVE SMOOTH",
"504 77 OFFCURVE",
"456 135 OFFCURVE",
"371 157 CURVE",
"445 176 OFFCURVE",
"487 241 OFFCURVE",
"487 316 CURVE SMOOTH",
"487 430 OFFCURVE",
"399 511 OFFCURVE",
"261 511 CURVE SMOOTH",
"177 511 OFFCURVE",
"89 483 OFFCURVE",
"48 448 CURVE",
"88 351 LINE",
"124 390 OFFCURVE",
"180 406 OFFCURVE",
"229 406 CURVE SMOOTH",
"301 406 OFFCURVE",
"342 363 OFFCURVE",
"342 296 CURVE SMOOTH",
"342 235 OFFCURVE",
"298 205 OFFCURVE",
"216 205 CURVE",
"216 205 OFFCURVE",
"172 206 OFFCURVE",
"172 205 CURVE",
"172 106 LINE",
"171 107 OFFCURVE",
"213 108 OFFCURVE",
"214 108 CURVE SMOOTH",
"291 110 OFFCURVE",
"363 81 OFFCURVE",
"363 -4 CURVE SMOOTH",
"363 -68 OFFCURVE",
"322 -108 OFFCURVE",
"232 -108 CURVE SMOOTH",
"179 -108 OFFCURVE",
"117 -90 OFFCURVE",
"79 -54 CURVE",
"40 -161 LINE"
);
}
);
width = 545;
}
);
leftKerningGroup = three.osf;
rightKerningGroup = three.osf;
},
{
glyphname = four.osf;
lastChange = "2018-05-15 18:14:03 +0000";
layers = (
{
layerId = "B61D43DE-5272-4FF4-A680-608B6BF5ED9E";
paths = (
{
closed = 1;
nodes = (
"482 -144 LINE",
"482 403 LINE",
"360 403 LINE",
"340 15 LINE",
"340 -144 LINE"
);
},
{
closed = 1;
nodes = (
"573 0 LINE",
"573 95 LINE",
"185 95 LINE",
"303 553 LINE",
"157 553 LINE",
"22 0 LINE"
);
}
);
width = 599;
}
);
leftKerningGroup = four.osf;
rightKerningGroup = four.osf;
},
{
glyphname = five.osf;
lastChange = "2018-05-15 18:14:03 +0000";
layers = (
{
layerId = "B61D43DE-5272-4FF4-A680-608B6BF5ED9E";
paths = (
{
closed = 1;
nodes = (
"94 -200 OFFCURVE",
"169 -212 OFFCURVE",
"230 -212 CURVE SMOOTH",
"393 -212 OFFCURVE",
"505 -124 OFFCURVE",
"505 32 CURVE SMOOTH",
"505 149 OFFCURVE",
"430 255 OFFCURVE",
"289 255 CURVE SMOOTH",
"253 255 OFFCURVE",
"224 251 OFFCURVE",
"193 243 CURVE",
"207 392 LINE",
"463 392 LINE",
"463 498 LINE",
"89 498 LINE",
"76 125 LINE",
"97 138 OFFCURVE",
"162 157 OFFCURVE",
"218 157 CURVE SMOOTH",
"315 157 OFFCURVE",
"370 105 OFFCURVE",
"370 27 CURVE SMOOTH",
"370 -92 OFFCURVE",
"277 -111 OFFCURVE",
"213 -111 CURVE SMOOTH",
"166 -111 OFFCURVE",
"111 -90 OFFCURVE",
"82 -63 CURVE",
"45 -167 LINE"
);
}
);
width = 546;
}
);
leftKerningGroup = five.osf;
rightKerningGroup = five.osf;
},
{
glyphname = six.osf;
lastChange = "2018-05-15 18:14:03 +0000";
layers = (
{
layerId = "B61D43DE-5272-4FF4-A680-608B6BF5ED9E";
paths = (
{
closed = 1;
nodes = (
"53 73 OFFCURVE",
"205 -15 OFFCURVE",
"324 -15 CURVE SMOOTH",
"478 -15 OFFCURVE",
"580 83 OFFCURVE",
"580 237 CURVE SMOOTH",
"580 358 OFFCURVE",
"503 457 OFFCURVE",
"368 457 CURVE SMOOTH",
"295 457 OFFCURVE",
"226 427 OFFCURVE",
"190 358 CURVE",
"190 369 OFFCURVE",
"190 381 OFFCURVE",
"191 395 CURVE SMOOTH",
"201 498 OFFCURVE",
"246 609 OFFCURVE",
"350 609 CURVE SMOOTH",
"387 609 OFFCURVE",
"449 602 OFFCURVE",
"480 567 CURVE",
"529 663 LINE",
"497 694 OFFCURVE",
"440 714 OFFCURVE",
"346 714 CURVE SMOOTH",
"170 714 OFFCURVE",
"53 570 OFFCURVE",
"53 336 CURVE SMOOTH"
);
},
{
closed = 1;
nodes = (
"206 215 OFFCURVE",
"205 226 OFFCURVE",
"205 236 CURVE",
"209 301 OFFCURVE",
"275 355 OFFCURVE",
"338 355 CURVE SMOOTH",
"410 355 OFFCURVE",
"444 303 OFFCURVE",
"444 225 CURVE SMOOTH",
"444 139 OFFCURVE",
"390 88 OFFCURVE",
"327 88 CURVE SMOOTH",
"265 88 OFFCURVE",
"227 140 OFFCURVE",
"209 203 CURVE SMOOTH"
);
}
);
width = 623;
}
);
leftKerningGroup = six.osf;
rightKerningGroup = six.osf;
},
{
glyphname = seven.osf;
lastChange = "2018-05-15 18:14:03 +0000";
layers = (
{
layerId = "B61D43DE-5272-4FF4-A680-608B6BF5ED9E";
paths = (
{
closed = 1;
nodes = (
"266 -199 LINE",
"315 -41 OFFCURVE",
"458 364 OFFCURVE",
"485 449 CURVE",
"455 498 LINE",
"35 498 LINE",
"35 390 LINE",
"341 390 LINE",
"121 -199 LINE"
);
}
);
width = 527;
}
);
leftKerningGroup = seven.osf;
rightKerningGroup = seven.osf;
},
{
glyphname = eight.osf;
lastChange = "2018-05-15 18:14:03 +0000";
layers = (
{
layerId = "B61D43DE-5272-4FF4-A680-608B6BF5ED9E";
paths = (
{
closed = 1;
nodes = (
"208 589 OFFCURVE",
"245 622 OFFCURVE",
"312 622 CURVE SMOOTH",
"379 622 OFFCURVE",
"412 589 OFFCURVE",
"412 524 CURVE SMOOTH",
"412 452 OFFCURVE",
"364 412 OFFCURVE",
"312 412 CURVE SMOOTH",
"260 412 OFFCURVE",
"208 452 OFFCURVE",
"208 524 CURVE SMOOTH"
);
},
{
closed = 1;
nodes = (
"77 400 OFFCURVE",
"174 339 OFFCURVE",
"311 339 CURVE SMOOTH",
"438 339 OFFCURVE",
"542 400 OFFCURVE",
"542 533 CURVE SMOOTH",
"542 665 OFFCURVE",
"426 714 OFFCURVE",
"311 714 CURVE SMOOTH",
"195 714 OFFCURVE",
"77 665 OFFCURVE",
"77 533 CURVE SMOOTH"
);
},
{
closed = 1;
nodes = (
"357 310 OFFCURVE",
"430 283 OFFCURVE",
"430 193 CURVE SMOOTH",
"430 119 OFFCURVE",
"386 83 OFFCURVE",
"310 83 CURVE SMOOTH",
"233 83 OFFCURVE",
"189 119 OFFCURVE",
"189 193 CURVE SMOOTH",
"189 283 OFFCURVE",
"262 310 OFFCURVE",
"310 310 CURVE SMOOTH"
);
},
{
closed = 1;
nodes = (
"435 -18 OFFCURVE",
"572 40 OFFCURVE",
"572 191 CURVE SMOOTH",
"572 321 OFFCURVE",
"454 384 OFFCURVE",
"310 384 CURVE SMOOTH",
"165 384 OFFCURVE",
"47 321 OFFCURVE",
"47 191 CURVE SMOOTH",
"47 40 OFFCURVE",
"184 -18 OFFCURVE",
"310 -18 CURVE SMOOTH"
);
}
);
width = 619;
}
);
leftKerningGroup = eight.osf;
rightKerningGroup = eight.osf;
},
{
glyphname = nine.osf;
lastChange = "2018-05-15 18:14:03 +0000";
layers = (
{
layerId = "B61D43DE-5272-4FF4-A680-608B6BF5ED9E";
paths = (
{
closed = 1;
nodes = (
"573 427 OFFCURVE",
"431 512 OFFCURVE",
"303 512 CURVE SMOOTH",
"149 512 OFFCURVE",
"46 414 OFFCURVE",
"46 260 CURVE SMOOTH",
"46 139 OFFCURVE",
"124 40 OFFCURVE",
"259 40 CURVE SMOOTH",
"331 40 OFFCURVE",
"400 70 OFFCURVE",
"436 139 CURVE",
"437 128 OFFCURVE",
"436 116 OFFCURVE",
"435 102 CURVE SMOOTH",
"429 -1 OFFCURVE",
"381 -112 OFFCURVE",
"262 -112 CURVE SMOOTH",
"229 -112 OFFCURVE",
"170 -100 OFFCURVE",
"141 -70 CURVE",
"92 -166 LINE",
"122 -192 OFFCURVE",
"179 -217 OFFCURVE",
"266 -217 CURVE SMOOTH",
"456 -217 OFFCURVE",
"573 -75 OFFCURVE",
"573 159 CURVE"
);
},
{
closed = 1;
nodes = (
"421 282 OFFCURVE",
"421 271 OFFCURVE",
"421 261 CURVE",
"417 196 OFFCURVE",
"351 142 OFFCURVE",
"288 142 CURVE SMOOTH",
"216 142 OFFCURVE",
"182 194 OFFCURVE",
"182 272 CURVE SMOOTH",
"182 358 OFFCURVE",
"237 409 OFFCURVE",
"300 409 CURVE SMOOTH",
"361 409 OFFCURVE",
"404 357 OFFCURVE",
"417 294 CURVE"
);
}
);
width = 623;
}
);
leftKerningGroup = nine.osf;
rightKerningGroup = nine.osf;
},
{
glyphname = zero.ot.zero;
lastChange = "2018-05-15 18:52:02 +0000";
layers = (
{
layerId = "B61D43DE-5272-4FF4-A680-608B6BF5ED9E";
paths = (
{
closed = 1;
nodes = (
"229 89 LINE",
"404 409 LINE",
"326 409 LINE",
"150 89 LINE"
);
},
{
closed = 1;
nodes = (
"198 89 OFFCURVE",
"171 160 OFFCURVE",
"171 246 CURVE SMOOTH",
"171 338 OFFCURVE",
"200 404 OFFCURVE",
"277 404 CURVE SMOOTH",
"355 404 OFFCURVE",
"383 338 OFFCURVE",
"383 246 CURVE SMOOTH",
"383 160 OFFCURVE",
"356 89 OFFCURVE",
"277 89 CURVE SMOOTH"
);
},
{
closed = 1;
nodes = (
"457 -18 OFFCURVE",
"528 92 OFFCURVE",
"528 244 CURVE SMOOTH",
"528 421 OFFCURVE",
"437 509 OFFCURVE",
"282 509 CURVE SMOOTH",
"127 509 OFFCURVE",
"35 421 OFFCURVE",
"35 244 CURVE SMOOTH",
"35 92 OFFCURVE",
"107 -18 OFFCURVE",
"282 -18 CURVE SMOOTH"
);
}
);
width = 564;
}
);
leftKerningGroup = zeroslash.ot;
rightKerningGroup = zeroslash.ot;
},
{
glyphname = zero.tf;
lastChange = "2018-05-15 18:14:03 +0000";
layers = (
{
layerId = "B61D43DE-5272-4FF4-A680-608B6BF5ED9E";
paths = (
{
closed = 1;
nodes = (
"201 89 OFFCURVE",
"171 202 OFFCURVE",
"171 348 CURVE SMOOTH",
"171 502 OFFCURVE",
"202 609 OFFCURVE",
"287 609 CURVE SMOOTH",
"371 609 OFFCURVE",
"402 502 OFFCURVE",
"402 348 CURVE SMOOTH",
"402 202 OFFCURVE",
"373 89 OFFCURVE",
"287 89 CURVE SMOOTH"
);
},
{
closed = 1;
nodes = (
"473 -18 OFFCURVE",
"547 133 OFFCURVE",
"547 347 CURVE SMOOTH",
"547 596 OFFCURVE",
"452 714 OFFCURVE",
"291 714 CURVE SMOOTH",
"130 714 OFFCURVE",
"35 596 OFFCURVE",
"35 347 CURVE SMOOTH",
"35 133 OFFCURVE",
"109 -18 OFFCURVE",
"291 -18 CURVE SMOOTH"
);
}
);
width = 582;
}
);
leftKerningGroup = zero.tf;
rightKerningGroup = zero.tf;
},
{
glyphname = one.tf;
lastChange = "2018-05-15 18:14:03 +0000";
layers = (
{
layerId = "B61D43DE-5272-4FF4-A680-608B6BF5ED9E";
paths = (
{
closed = 1;
nodes = (
"356 0 LINE",
"356 713 LINE",
"221 656 LINE",
"221 0 LINE"
);
},
{
closed = 1;
nodes = (
"480 0 LINE",
"480 98 LINE",
"88 98 LINE",
"88 0 LINE"
);
},
{
closed = 1;
nodes = (
"356 596 LINE",
"356 713 LINE",
"94 667 LINE",
"94 550 LINE"
);
}
);
width = 313;
}
);
leftKerningGroup = one.tf;
rightKerningGroup = one.tf;
},
{
glyphname = two.tf;
lastChange = "2018-05-15 18:14:03 +0000";
layers = (
{
layerId = "B61D43DE-5272-4FF4-A680-608B6BF5ED9E";
paths = (
{
closed = 1;
nodes = (
"512 110 LINE",
"199 110 LINE",
"199 188 OFFCURVE",
"292 221 OFFCURVE",
"352 260 CURVE SMOOTH",
"440 317 OFFCURVE",
"510 386 OFFCURVE",
"510 503 CURVE SMOOTH",
"510 592 OFFCURVE",
"458 714 OFFCURVE",
"283 714 CURVE SMOOTH",
"135 714 OFFCURVE",
"55 628 OFFCURVE",
"43 524 CURVE",
"154 470 LINE",
"161 533 OFFCURVE",
"191 609 OFFCURVE",
"276 609 CURVE SMOOTH",
"350 609 OFFCURVE",
"374 555 OFFCURVE",
"374 499 CURVE SMOOTH",
"374 402 OFFCURVE",
"273 354 OFFCURVE",
"199 309 CURVE SMOOTH",
"76 234 OFFCURVE",
"56 155 OFFCURVE",
"56 64 CURVE SMOOTH",
"56 43 OFFCURVE",
"59 21 OFFCURVE",
"63 0 CURVE",
"512 0 LINE"
);
}
);
width = 561;
}
);
leftKerningGroup = two.tf;
rightKerningGroup = two.tf;
},
{
glyphname = three.tf;
lastChange = "2018-05-15 18:14:03 +0000";
layers = (
{
layerId = "B61D43DE-5272-4FF4-A680-608B6BF5ED9E";
paths = (
{
closed = 1;
nodes = (
"96 3 OFFCURVE",
"169 -15 OFFCURVE",
"245 -15 CURVE SMOOTH",
"388 -15 OFFCURVE",
"504 64 OFFCURVE",
"504 196 CURVE SMOOTH",
"504 280 OFFCURVE",
"456 339 OFFCURVE",
"371 360 CURVE",
"445 379 OFFCURVE",
"487 444 OFFCURVE",
"487 520 CURVE SMOOTH",
"487 634 OFFCURVE",
"399 714 OFFCURVE",
"261 714 CURVE SMOOTH",
"177 714 OFFCURVE",
"89 687 OFFCURVE",
"48 651 CURVE",
"88 554 LINE",
"124 594 OFFCURVE",
"180 609 OFFCURVE",
"229 609 CURVE SMOOTH",
"301 609 OFFCURVE",
"342 566 OFFCURVE",
"342 500 CURVE SMOOTH",
"342 439 OFFCURVE",
"298 409 OFFCURVE",
"216 409 CURVE",
"216 409 OFFCURVE",
"172 410 OFFCURVE",
"172 409 CURVE",
"172 310 LINE",
"171 311 OFFCURVE",
"213 312 OFFCURVE",
"214 312 CURVE SMOOTH",
"291 314 OFFCURVE",
"363 285 OFFCURVE",
"363 200 CURVE SMOOTH",
"363 136 OFFCURVE",
"322 96 OFFCURVE",
"232 96 CURVE SMOOTH",
"179 96 OFFCURVE",
"117 113 OFFCURVE",
"79 150 CURVE",
"40 43 LINE"
);
}
);
width = 545;
}
);
leftKerningGroup = three.tf;
rightKerningGroup = three.tf;
},
{
glyphname = four.tf;
lastChange = "2018-05-15 18:14:03 +0000";
layers = (
{
layerId = "B61D43DE-5272-4FF4-A680-608B6BF5ED9E";
paths = (
{
closed = 1;
nodes = (
"482 0 LINE",
"482 527 LINE",
"360 527 LINE",
"340 158 LINE",
"340 0 LINE"
);
},
{
closed = 1;
nodes = (
"573 144 LINE",
"573 239 LINE",
"185 239 LINE",
"303 697 LINE",
"157 697 LINE",
"22 144 LINE"
);
}
);
width = 599;
}
);
leftKerningGroup = four.tf;
rightKerningGroup = four.tf;
},
{
glyphname = five.tf;
lastChange = "2018-05-15 18:14:03 +0000";
layers = (
{
layerId = "B61D43DE-5272-4FF4-A680-608B6BF5ED9E";
paths = (
{
closed = 1;
nodes = (
"94 -1 OFFCURVE",
"169 -13 OFFCURVE",
"230 -13 CURVE SMOOTH",
"393 -13 OFFCURVE",
"505 75 OFFCURVE",
"505 231 CURVE SMOOTH",
"505 348 OFFCURVE",
"430 454 OFFCURVE",
"289 454 CURVE SMOOTH",
"253 454 OFFCURVE",
"224 451 OFFCURVE",
"193 442 CURVE",
"207 591 LINE",
"463 591 LINE",
"463 697 LINE",
"89 697 LINE",
"76 324 LINE",
"97 337 OFFCURVE",
"162 356 OFFCURVE",
"218 356 CURVE SMOOTH",
"315 356 OFFCURVE",
"370 305 OFFCURVE",
"370 226 CURVE SMOOTH",
"370 107 OFFCURVE",
"277 88 OFFCURVE",
"213 88 CURVE SMOOTH",
"166 88 OFFCURVE",
"111 109 OFFCURVE",
"82 136 CURVE",
"45 32 LINE"
);
}
);
width = 546;
}
);
leftKerningGroup = five.tf;
rightKerningGroup = five.tf;
},
{
glyphname = six.tf;
lastChange = "2018-05-15 18:14:03 +0000";
layers = (
{
layerId = "B61D43DE-5272-4FF4-A680-608B6BF5ED9E";
paths = (
{
closed = 1;
nodes = (
"53 73 OFFCURVE",
"205 -15 OFFCURVE",
"324 -15 CURVE SMOOTH",
"478 -15 OFFCURVE",
"580 83 OFFCURVE",
"580 237 CURVE SMOOTH",
"580 358 OFFCURVE",
"503 457 OFFCURVE",
"368 457 CURVE SMOOTH",
"295 457 OFFCURVE",
"226 427 OFFCURVE",
"190 358 CURVE",
"190 369 OFFCURVE",
"190 381 OFFCURVE",
"191 395 CURVE SMOOTH",
"201 498 OFFCURVE",
"246 609 OFFCURVE",
"350 609 CURVE SMOOTH",
"387 609 OFFCURVE",
"449 602 OFFCURVE",
"480 567 CURVE",
"529 663 LINE",
"497 694 OFFCURVE",
"440 714 OFFCURVE",
"346 714 CURVE SMOOTH",
"170 714 OFFCURVE",
"53 570 OFFCURVE",
"53 336 CURVE SMOOTH"
);
},
{
closed = 1;
nodes = (
"206 215 OFFCURVE",
"205 226 OFFCURVE",
"205 236 CURVE",
"209 301 OFFCURVE",
"275 355 OFFCURVE",
"338 355 CURVE SMOOTH",
"410 355 OFFCURVE",
"444 303 OFFCURVE",
"444 225 CURVE SMOOTH",
"444 139 OFFCURVE",
"390 88 OFFCURVE",
"327 88 CURVE SMOOTH",
"265 88 OFFCURVE",
"227 140 OFFCURVE",
"209 203 CURVE SMOOTH"
);
}
);
width = 623;
}
);
leftKerningGroup = six.tf;
rightKerningGroup = six.tf;
},
{
glyphname = seven.tf;
lastChange = "2018-05-15 18:14:03 +0000";
layers = (
{
layerId = "B61D43DE-5272-4FF4-A680-608B6BF5ED9E";
paths = (
{
closed = 1;
nodes = (
"266 0 LINE",
"315 158 OFFCURVE",
"458 563 OFFCURVE",
"485 648 CURVE",
"455 697 LINE",
"35 697 LINE",
"35 589 LINE",
"341 589 LINE",
"121 0 LINE"
);
}
);
width = 527;
}
);
leftKerningGroup = seven.tf;
rightKerningGroup = seven.tf;
},
{
glyphname = eight.tf;
lastChange = "2018-05-15 18:14:03 +0000";
layers = (
{
layerId = "B61D43DE-5272-4FF4-A680-608B6BF5ED9E";
paths = (
{
closed = 1;
nodes = (
"208 589 OFFCURVE",
"245 622 OFFCURVE",
"312 622 CURVE SMOOTH",
"379 622 OFFCURVE",
"412 589 OFFCURVE",
"412 524 CURVE SMOOTH",
"412 452 OFFCURVE",
"364 412 OFFCURVE",
"312 412 CURVE SMOOTH",
"260 412 OFFCURVE",
"208 452 OFFCURVE",
"208 524 CURVE SMOOTH"
);
},
{
closed = 1;
nodes = (
"77 400 OFFCURVE",
"174 339 OFFCURVE",
"311 339 CURVE SMOOTH",
"438 339 OFFCURVE",
"542 400 OFFCURVE",
"542 533 CURVE SMOOTH",
"542 665 OFFCURVE",
"426 714 OFFCURVE",
"311 714 CURVE SMOOTH",
"195 714 OFFCURVE",
"77 665 OFFCURVE",
"77 533 CURVE SMOOTH"
);
},
{
closed = 1;
nodes = (
"357 310 OFFCURVE",
"430 283 OFFCURVE",
"430 193 CURVE SMOOTH",
"430 119 OFFCURVE",
"386 83 OFFCURVE",
"310 83 CURVE SMOOTH",
"233 83 OFFCURVE",
"189 119 OFFCURVE",
"189 193 CURVE SMOOTH",
"189 283 OFFCURVE",
"262 310 OFFCURVE",
"310 310 CURVE SMOOTH"
);
},
{
closed = 1;
nodes = (
"435 -18 OFFCURVE",
"572 40 OFFCURVE",
"572 191 CURVE SMOOTH",
"572 321 OFFCURVE",
"454 384 OFFCURVE",
"310 384 CURVE SMOOTH",
"165 384 OFFCURVE",
"47 321 OFFCURVE",
"47 191 CURVE SMOOTH",
"47 40 OFFCURVE",
"184 -18 OFFCURVE",
"310 -18 CURVE SMOOTH"
);
}
);
width = 619;
}
);
leftKerningGroup = eight.tf;
rightKerningGroup = eight.tf;
},
{
glyphname = nine.tf;
lastChange = "2018-05-15 18:14:03 +0000";
layers = (
{
layerId = "B61D43DE-5272-4FF4-A680-608B6BF5ED9E";
paths = (
{
closed = 1;
nodes = (
"573 629 OFFCURVE",
"431 714 OFFCURVE",
"303 714 CURVE SMOOTH",
"149 714 OFFCURVE",
"46 617 OFFCURVE",
"46 463 CURVE SMOOTH",
"46 341 OFFCURVE",
"124 243 OFFCURVE",
"259 243 CURVE SMOOTH",
"331 243 OFFCURVE",
"400 272 OFFCURVE",
"436 341 CURVE",
"437 331 OFFCURVE",
"436 319 OFFCURVE",
"435 305 CURVE SMOOTH",
"429 202 OFFCURVE",
"381 90 OFFCURVE",
"262 90 CURVE SMOOTH",
"229 90 OFFCURVE",
"170 103 OFFCURVE",
"141 133 CURVE",
"92 37 LINE",
"122 10 OFFCURVE",
"179 -15 OFFCURVE",
"266 -15 CURVE SMOOTH",
"456 -15 OFFCURVE",
"573 127 OFFCURVE",
"573 362 CURVE"
);
},
{
closed = 1;
nodes = (
"421 485 OFFCURVE",
"421 474 OFFCURVE",
"421 463 CURVE",
"417 399 OFFCURVE",
"351 344 OFFCURVE",
"288 344 CURVE SMOOTH",
"216 344 OFFCURVE",
"182 397 OFFCURVE",
"182 475 CURVE SMOOTH",
"182 561 OFFCURVE",
"237 611 OFFCURVE",
"300 611 CURVE SMOOTH",
"361 611 OFFCURVE",
"404 560 OFFCURVE",
"417 497 CURVE"
);
}
);
width = 623;
}
);
leftKerningGroup = nine.tf;
rightKerningGroup = nine.tf;
},
{
glyphname = zero.tf.zero;
lastChange = "2018-05-15 18:14:03 +0000";
layers = (
{
layerId = "B61D43DE-5272-4FF4-A680-608B6BF5ED9E";
paths = (
{
closed = 1;
nodes = (
"201 89 OFFCURVE",
"171 202 OFFCURVE",
"171 348 CURVE SMOOTH",
"171 502 OFFCURVE",
"202 609 OFFCURVE",
"287 609 CURVE SMOOTH",
"371 609 OFFCURVE",
"402 502 OFFCURVE",
"402 348 CURVE SMOOTH",
"402 202 OFFCURVE",
"373 89 OFFCURVE",
"287 89 CURVE SMOOTH"
);
},
{
closed = 1;
nodes = (
"473 -18 OFFCURVE",
"547 133 OFFCURVE",
"547 347 CURVE SMOOTH",
"547 596 OFFCURVE",
"452 714 OFFCURVE",
"291 714 CURVE SMOOTH",
"130 714 OFFCURVE",
"35 596 OFFCURVE",
"35 347 CURVE SMOOTH",
"35 133 OFFCURVE",
"109 -18 OFFCURVE",
"291 -18 CURVE SMOOTH"
);
},
{
closed = 1;
nodes = (
"238 89 LINE",
"414 609 LINE",
"335 609 LINE",
"159 89 LINE"
);
}
);
width = 582;
}
);
leftKerningGroup = zero.tf.zero;
rightKerningGroup = zero.tf.zero;
},
{
glyphname = zero.tosf;
lastChange = "2018-05-15 18:14:03 +0000";
layers = (
{
layerId = "B61D43DE-5272-4FF4-A680-608B6BF5ED9E";
paths = (
{
closed = 1;
nodes = (
"199 89 OFFCURVE",
"171 160 OFFCURVE",
"171 246 CURVE SMOOTH",
"171 338 OFFCURVE",
"200 404 OFFCURVE",
"278 404 CURVE SMOOTH",
"355 404 OFFCURVE",
"384 338 OFFCURVE",
"384 246 CURVE SMOOTH",
"384 160 OFFCURVE",
"357 89 OFFCURVE",
"278 89 CURVE SMOOTH"
);
},
{
closed = 1;
nodes = (
"457 -18 OFFCURVE",
"529 92 OFFCURVE",
"529 244 CURVE SMOOTH",
"529 421 OFFCURVE",
"437 509 OFFCURVE",
"282 509 CURVE SMOOTH",
"127 509 OFFCURVE",
"35 421 OFFCURVE",
"35 244 CURVE SMOOTH",
"35 92 OFFCURVE",
"107 -18 OFFCURVE",
"282 -18 CURVE SMOOTH"
);
}
);
width = 564;
}
);
leftKerningGroup = zero.tosf;
rightKerningGroup = zero.tosf;
},
{
glyphname = one.tosf;
lastChange = "2018-05-15 18:14:03 +0000";
layers = (
{
layerId = "B61D43DE-5272-4FF4-A680-608B6BF5ED9E";
paths = (
{
closed = 1;
nodes = (
"369 0 LINE",
"369 498 LINE",
"234 440 LINE",
"234 0 LINE"
);
},
{
closed = 1;
nodes = (
"480 0 LINE",
"480 98 LINE",
"88 98 LINE",
"88 0 LINE"
);
},
{
closed = 1;
nodes = (
"369 381 LINE",
"369 498 LINE",
"107 452 LINE",
"107 334 LINE"
);
}
);
width = 564;
}
);
leftKerningGroup = one.tosf;
rightKerningGroup = one.tosf;
},
{
glyphname = two.tosf;
lastChange = "2018-05-15 18:14:03 +0000";
layers = (
{
layerId = "B61D43DE-5272-4FF4-A680-608B6BF5ED9E";
paths = (
{
closed = 1;
nodes = (
"513 110 LINE",
"194 110 LINE",
"194 129 OFFCURVE",
"290 155 OFFCURVE",
"357 177 CURVE SMOOTH",
"451 207 OFFCURVE",
"500 249 OFFCURVE",
"500 352 CURVE SMOOTH",
"500 421 OFFCURVE",
"463 511 OFFCURVE",
"289 511 CURVE SMOOTH",
"141 511 OFFCURVE",
"61 436 OFFCURVE",
"48 358 CURVE",
"160 304 LINE",
"166 345 OFFCURVE",
"196 406 OFFCURVE",
"281 406 CURVE SMOOTH",
"336 406 OFFCURVE",
"364 379 OFFCURVE",
"364 347 CURVE SMOOTH",
"364 267 OFFCURVE",
"280 259 OFFCURVE",
"214 235 CURVE SMOOTH",
"73 176 OFFCURVE",
"52 125 OFFCURVE",
"52 64 CURVE SMOOTH",
"52 43 OFFCURVE",
"55 21 OFFCURVE",
"59 0 CURVE",
"513 0 LINE"
);
}
);
width = 564;
}
);
leftKerningGroup = two.tosf;
rightKerningGroup = two.tosf;
},
{
glyphname = three.tosf;
lastChange = "2018-05-15 18:14:03 +0000";
layers = (
{
layerId = "B61D43DE-5272-4FF4-A680-608B6BF5ED9E";
paths = (
{
closed = 1;
nodes = (
"102 -200 OFFCURVE",
"179 -218 OFFCURVE",
"255 -218 CURVE SMOOTH",
"398 -218 OFFCURVE",
"519 -145 OFFCURVE",
"519 -13 CURVE SMOOTH",
"519 82 OFFCURVE",
"466 135 OFFCURVE",
"381 157 CURVE",
"455 176 OFFCURVE",
"498 241 OFFCURVE",
"498 316 CURVE SMOOTH",
"498 430 OFFCURVE",
"409 511 OFFCURVE",
"271 511 CURVE SMOOTH",
"187 511 OFFCURVE",
"95 483 OFFCURVE",
"54 448 CURVE",
"94 351 LINE",
"129 390 OFFCURVE",
"190 406 OFFCURVE",
"239 406 CURVE SMOOTH",
"311 406 OFFCURVE",
"353 363 OFFCURVE",
"353 296 CURVE SMOOTH",
"353 235 OFFCURVE",
"304 205 OFFCURVE",
"221 205 CURVE",
"221 205 OFFCURVE",
"177 206 OFFCURVE",
"177 205 CURVE",
"177 106 LINE",
"177 107 OFFCURVE",
"219 108 OFFCURVE",
"220 108 CURVE SMOOTH",
"296 110 OFFCURVE",
"378 86 OFFCURVE",
"378 -9 CURVE SMOOTH",
"378 -73 OFFCURVE",
"332 -108 OFFCURVE",
"242 -108 CURVE SMOOTH",
"189 -108 OFFCURVE",
"123 -90 OFFCURVE",
"84 -54 CURVE",
"45 -161 LINE"
);
}
);
width = 564;
}
);
leftKerningGroup = three.tosf;
rightKerningGroup = three.tosf;
},
{
glyphname = four.tosf;
lastChange = "2018-05-15 18:14:03 +0000";
layers = (
{
layerId = "B61D43DE-5272-4FF4-A680-608B6BF5ED9E";
paths = (
{
closed = 1;
nodes = (
"467 -144 LINE",
"467 403 LINE",
"345 403 LINE",
"324 15 LINE",
"324 -144 LINE"
);
},
{
closed = 1;
nodes = (
"538 0 LINE",
"538 95 LINE",
"193 95 LINE",
"288 553 LINE",
"141 553 LINE",
"31 0 LINE"
);
}
);
width = 564;
}
);
leftKerningGroup = four.tosf;
rightKerningGroup = four.tosf;
},
{
glyphname = five.tosf;
lastChange = "2018-05-15 18:14:03 +0000";
layers = (
{
layerId = "B61D43DE-5272-4FF4-A680-608B6BF5ED9E";
paths = (
{
closed = 1;
nodes = (
"101 -200 OFFCURVE",
"175 -212 OFFCURVE",
"237 -212 CURVE SMOOTH",
"399 -212 OFFCURVE",
"512 -124 OFFCURVE",
"512 32 CURVE SMOOTH",
"512 149 OFFCURVE",
"451 255 OFFCURVE",
"295 255 CURVE SMOOTH",
"260 255 OFFCURVE",
"230 251 OFFCURVE",
"200 243 CURVE",
"213 392 LINE",
"469 392 LINE",
"469 498 LINE",
"96 498 LINE",
"83 125 LINE",
"104 138 OFFCURVE",
"168 157 OFFCURVE",
"225 157 CURVE SMOOTH",
"336 157 OFFCURVE",
"376 105 OFFCURVE",
"376 27 CURVE SMOOTH",
"376 -92 OFFCURVE",
"283 -111 OFFCURVE",
"220 -111 CURVE SMOOTH",
"172 -111 OFFCURVE",
"117 -90 OFFCURVE",
"88 -63 CURVE",
"52 -167 LINE"
);
}
);
width = 564;
}
);
leftKerningGroup = five.tosf;
rightKerningGroup = five.tosf;
},
{
glyphname = six.tosf;
lastChange = "2018-05-15 18:14:03 +0000";
layers = (
{
layerId = "B61D43DE-5272-4FF4-A680-608B6BF5ED9E";
paths = (
{
closed = 1;
nodes = (
"23 73 OFFCURVE",
"172 -15 OFFCURVE",
"289 -15 CURVE SMOOTH",
"440 -15 OFFCURVE",
"541 92 OFFCURVE",
"541 246 CURVE SMOOTH",
"541 368 OFFCURVE",
"465 457 OFFCURVE",
"333 457 CURVE SMOOTH",
"263 457 OFFCURVE",
"186 432 OFFCURVE",
"151 368 CURVE",
"150 379 OFFCURVE",
"150 391 OFFCURVE",
"152 405 CURVE SMOOTH",
"161 508 OFFCURVE",
"219 614 OFFCURVE",
"330 614 CURVE SMOOTH",
"367 614 OFFCURVE",
"414 602 OFFCURVE",
"446 567 CURVE",
"495 663 LINE",
"462 694 OFFCURVE",
"415 714 OFFCURVE",
"321 714 CURVE SMOOTH",
"133 714 OFFCURVE",
"23 570 OFFCURVE",
"23 336 CURVE SMOOTH"
);
},
{
closed = 1;
nodes = (
"166 220 OFFCURVE",
"166 230 OFFCURVE",
"166 241 CURVE",
"169 306 OFFCURVE",
"243 355 OFFCURVE",
"304 355 CURVE SMOOTH",
"372 355 OFFCURVE",
"405 303 OFFCURVE",
"405 225 CURVE SMOOTH",
"405 139 OFFCURVE",
"353 88 OFFCURVE",
"292 88 CURVE SMOOTH",
"233 88 OFFCURVE",
"187 145 OFFCURVE",
"169 208 CURVE SMOOTH"
);
}
);
width = 564;
}
);
leftKerningGroup = six.tosf;
rightKerningGroup = six.tosf;
},
{
glyphname = seven.tosf;
lastChange = "2018-05-15 18:14:03 +0000";
layers = (
{
layerId = "B61D43DE-5272-4FF4-A680-608B6BF5ED9E";
paths = (
{
closed = 1;
nodes = (
"288 -199 LINE",
"337 -41 OFFCURVE",
"504 364 OFFCURVE",
"531 449 CURVE",
"501 498 LINE",
"57 498 LINE",
"57 390 LINE",
"388 390 LINE",
"143 -199 LINE"
);
}
);
width = 564;
}
);
leftKerningGroup = seven.tosf;
rightKerningGroup = seven.tosf;
},
{
glyphname = eight.tosf;
lastChange = "2018-05-15 18:14:03 +0000";
layers = (
{
layerId = "B61D43DE-5272-4FF4-A680-608B6BF5ED9E";
paths = (
{
closed = 1;
nodes = (
"189 589 OFFCURVE",
"223 622 OFFCURVE",
"284 622 CURVE SMOOTH",
"345 622 OFFCURVE",
"374 589 OFFCURVE",
"374 524 CURVE SMOOTH",
"374 452 OFFCURVE",
"332 412 OFFCURVE",
"284 412 CURVE SMOOTH",
"237 412 OFFCURVE",
"189 452 OFFCURVE",
"189 524 CURVE SMOOTH"
);
},
{
closed = 1;
nodes = (
"59 400 OFFCURVE",
"152 339 OFFCURVE",
"283 339 CURVE SMOOTH",
"404 339 OFFCURVE",
"504 400 OFFCURVE",
"504 533 CURVE SMOOTH",
"504 665 OFFCURVE",
"393 714 OFFCURVE",
"283 714 CURVE SMOOTH",
"172 714 OFFCURVE",
"59 665 OFFCURVE",
"59 533 CURVE SMOOTH"
);
},
{
closed = 1;
nodes = (
"325 310 OFFCURVE",
"392 283 OFFCURVE",
"392 193 CURVE SMOOTH",
"392 119 OFFCURVE",
"352 83 OFFCURVE",
"282 83 CURVE SMOOTH",
"211 83 OFFCURVE",
"171 119 OFFCURVE",
"171 193 CURVE SMOOTH",
"171 283 OFFCURVE",
"238 310 OFFCURVE",
"282 310 CURVE SMOOTH"
);
},
{
closed = 1;
nodes = (
"402 -18 OFFCURVE",
"534 40 OFFCURVE",
"534 191 CURVE SMOOTH",
"534 321 OFFCURVE",
"421 384 OFFCURVE",
"282 384 CURVE SMOOTH",
"143 384 OFFCURVE",
"29 321 OFFCURVE",
"29 191 CURVE SMOOTH",
"29 40 OFFCURVE",
"161 -18 OFFCURVE",
"282 -18 CURVE SMOOTH"
);
}
);
width = 564;
}
);
leftKerningGroup = eight.tosf;
rightKerningGroup = eight.tosf;
},
{
glyphname = nine.tosf;
lastChange = "2018-05-15 18:14:03 +0000";
layers = (
{
layerId = "B61D43DE-5272-4FF4-A680-608B6BF5ED9E";
paths = (
{
closed = 1;
nodes = (
"536 427 OFFCURVE",
"413 512 OFFCURVE",
"275 512 CURVE SMOOTH",
"127 512 OFFCURVE",
"28 414 OFFCURVE",
"28 260 CURVE SMOOTH",
"28 139 OFFCURVE",
"102 40 OFFCURVE",
"231 40 CURVE SMOOTH",
"299 40 OFFCURVE",
"365 70 OFFCURVE",
"398 139 CURVE",
"399 128 OFFCURVE",
"398 116 OFFCURVE",
"397 102 CURVE SMOOTH",
"391 -1 OFFCURVE",
"347 -112 OFFCURVE",
"234 -112 CURVE SMOOTH",
"201 -112 OFFCURVE",
"142 -100 OFFCURVE",
"113 -70 CURVE",
"64 -166 LINE",
"94 -192 OFFCURVE",
"151 -217 OFFCURVE",
"238 -217 CURVE SMOOTH",
"422 -217 OFFCURVE",
"536 -75 OFFCURVE",
"536 159 CURVE"
);
},
{
closed = 1;
nodes = (
"383 282 OFFCURVE",
"384 271 OFFCURVE",
"384 261 CURVE",
"380 196 OFFCURVE",
"318 142 OFFCURVE",
"260 142 CURVE SMOOTH",
"195 142 OFFCURVE",
"164 194 OFFCURVE",
"164 272 CURVE SMOOTH",
"164 358 OFFCURVE",
"214 409 OFFCURVE",
"272 409 CURVE SMOOTH",
"348 409 OFFCURVE",
"368 357 OFFCURVE",
"380 294 CURVE"
);
}
);
width = 564;
}
);
leftKerningGroup = nine.tosf;
rightKerningGroup = nine.tosf;
},
{
glyphname = zero.tosf.zero;
lastChange = "2018-05-15 18:14:03 +0000";
layers = (
{
layerId = "B61D43DE-5272-4FF4-A680-608B6BF5ED9E";
paths = (
{
closed = 1;
nodes = (
"199 89 OFFCURVE",
"171 160 OFFCURVE",
"171 246 CURVE SMOOTH",
"171 338 OFFCURVE",
"200 404 OFFCURVE",
"278 404 CURVE SMOOTH",
"355 404 OFFCURVE",
"384 338 OFFCURVE",
"384 246 CURVE SMOOTH",
"384 160 OFFCURVE",
"357 89 OFFCURVE",
"278 89 CURVE SMOOTH"
);
},
{
closed = 1;
nodes = (
"457 -18 OFFCURVE",
"529 92 OFFCURVE",
"529 244 CURVE SMOOTH",
"529 421 OFFCURVE",
"437 509 OFFCURVE",
"282 509 CURVE SMOOTH",
"127 509 OFFCURVE",
"35 421 OFFCURVE",
"35 244 CURVE SMOOTH",
"35 92 OFFCURVE",
"107 -18 OFFCURVE",
"282 -18 CURVE SMOOTH"
);
}
);
width = 564;
}
);
leftKerningGroup = zero.tosf.zero;
rightKerningGroup = zero.tosf.zero;
},
{
glyphname = zero.zero;
lastChange = "2018-05-15 18:14:03 +0000";
layers = (
{
layerId = "B61D43DE-5272-4FF4-A680-608B6BF5ED9E";
paths = (
{
closed = 1;
nodes = (
"202 89 OFFCURVE",
"172 202 OFFCURVE",
"172 348 CURVE SMOOTH",
"172 502 OFFCURVE",
"203 609 OFFCURVE",
"288 609 CURVE SMOOTH",
"372 609 OFFCURVE",
"403 502 OFFCURVE",
"403 348 CURVE SMOOTH",
"403 202 OFFCURVE",
"374 89 OFFCURVE",
"288 89 CURVE SMOOTH"
);
},
{
closed = 1;
nodes = (
"474 -18 OFFCURVE",
"548 133 OFFCURVE",
"548 347 CURVE SMOOTH",
"548 596 OFFCURVE",
"453 714 OFFCURVE",
"292 714 CURVE SMOOTH",
"131 714 OFFCURVE",
"36 596 OFFCURVE",
"36 347 CURVE SMOOTH",
"36 133 OFFCURVE",
"110 -18 OFFCURVE",
"292 -18 CURVE SMOOTH"
);
},
{
closed = 1;
nodes = (
"239 89 LINE",
"415 609 LINE",
"336 609 LINE",
"160 89 LINE"
);
}
);
width = 582;
}
);
leftKerningGroup = zero.zero;
rightKerningGroup = zero.zero;
},
{
glyphname = zero.subs;
lastChange = "2018-05-15 18:14:03 +0000";
layers = (
{
layerId = "B61D43DE-5272-4FF4-A680-608B6BF5ED9E";
paths = (
{
closed = 1;
nodes = (
"202 89 OFFCURVE",
"172 202 OFFCURVE",
"172 348 CURVE SMOOTH",
"172 502 OFFCURVE",
"203 609 OFFCURVE",
"288 609 CURVE SMOOTH",
"372 609 OFFCURVE",
"403 502 OFFCURVE",
"403 348 CURVE SMOOTH",
"403 202 OFFCURVE",
"374 89 OFFCURVE",
"288 89 CURVE SMOOTH"
);
},
{
closed = 1;
nodes = (
"474 -18 OFFCURVE",
"548 133 OFFCURVE",
"548 347 CURVE SMOOTH",
"548 596 OFFCURVE",
"453 714 OFFCURVE",
"292 714 CURVE SMOOTH",
"131 714 OFFCURVE",
"36 596 OFFCURVE",
"36 347 CURVE SMOOTH",
"36 133 OFFCURVE",
"110 -18 OFFCURVE",
"292 -18 CURVE SMOOTH"
);
}
);
width = 582;
}
);
leftKerningGroup = zero.subs;
rightKerningGroup = zero.subs;
userData = {
com.typemytype.robofont.mark = (
0.967,
0.6,
1,
1
);
};
},
{
glyphname = one.subs;
lastChange = "2018-05-15 18:14:03 +0000";
layers = (
{
layerId = "B61D43DE-5272-4FF4-A680-608B6BF5ED9E";
paths = (
{
closed = 1;
nodes = (
"224 0 LINE",
"224 715 LINE",
"89 645 LINE",
"89 0 LINE"
);
}
);
width = 313;
}
);
leftKerningGroup = one.subs;
rightKerningGroup = one.subs;
userData = {
com.typemytype.robofont.mark = (
0.967,
0.6,
1,
1
);
};
},
{
glyphname = two.subs;
lastChange = "2018-05-15 18:14:03 +0000";
layers = (
{
layerId = "B61D43DE-5272-4FF4-A680-608B6BF5ED9E";
paths = (
{
closed = 1;
nodes = (
"512 110 LINE",
"199 110 LINE",
"199 188 OFFCURVE",
"292 221 OFFCURVE",
"352 260 CURVE SMOOTH",
"440 317 OFFCURVE",
"510 386 OFFCURVE",
"510 503 CURVE SMOOTH",
"510 592 OFFCURVE",
"458 714 OFFCURVE",
"283 714 CURVE SMOOTH",
"135 714 OFFCURVE",
"55 628 OFFCURVE",
"43 524 CURVE",
"154 470 LINE",
"161 533 OFFCURVE",
"191 609 OFFCURVE",
"276 609 CURVE SMOOTH",
"350 609 OFFCURVE",
"374 555 OFFCURVE",
"374 499 CURVE SMOOTH",
"374 402 OFFCURVE",
"273 354 OFFCURVE",
"199 309 CURVE SMOOTH",
"76 234 OFFCURVE",
"56 155 OFFCURVE",
"56 64 CURVE SMOOTH",
"56 43 OFFCURVE",
"59 21 OFFCURVE",
"63 0 CURVE",
"512 0 LINE"
);
}
);
width = 561;
}
);
leftKerningGroup = two.subs;
rightKerningGroup = two.subs;
userData = {
com.typemytype.robofont.mark = (
0.967,
0.6,
1,
1
);
};
},
{
glyphname = three.subs;
lastChange = "2018-05-15 18:14:03 +0000";
layers = (
{
layerId = "B61D43DE-5272-4FF4-A680-608B6BF5ED9E";
paths = (
{
closed = 1;
nodes = (
"96 3 OFFCURVE",
"169 -15 OFFCURVE",
"245 -15 CURVE SMOOTH",
"388 -15 OFFCURVE",
"504 64 OFFCURVE",
"504 196 CURVE SMOOTH",
"504 280 OFFCURVE",
"456 339 OFFCURVE",
"371 360 CURVE",
"445 379 OFFCURVE",
"487 444 OFFCURVE",
"487 520 CURVE SMOOTH",
"487 634 OFFCURVE",
"399 714 OFFCURVE",
"261 714 CURVE SMOOTH",
"177 714 OFFCURVE",
"89 687 OFFCURVE",
"48 651 CURVE",
"88 554 LINE",
"124 594 OFFCURVE",
"180 609 OFFCURVE",
"229 609 CURVE SMOOTH",
"301 609 OFFCURVE",
"342 566 OFFCURVE",
"342 500 CURVE SMOOTH",
"342 439 OFFCURVE",
"298 409 OFFCURVE",
"216 409 CURVE",
"216 409 OFFCURVE",
"172 410 OFFCURVE",
"172 409 CURVE",
"172 310 LINE",
"171 311 OFFCURVE",
"213 312 OFFCURVE",
"214 312 CURVE SMOOTH",
"291 314 OFFCURVE",
"363 285 OFFCURVE",
"363 200 CURVE SMOOTH",
"363 136 OFFCURVE",
"322 96 OFFCURVE",
"232 96 CURVE SMOOTH",
"179 96 OFFCURVE",
"117 113 OFFCURVE",
"79 150 CURVE",
"40 43 LINE"
);
}
);
width = 545;
}
);
leftKerningGroup = three.subs;
rightKerningGroup = three.subs;
userData = {
com.typemytype.robofont.mark = (
0.967,
0.6,
1,
1
);
};
},
{
glyphname = four.subs;
lastChange = "2018-05-15 18:14:03 +0000";
layers = (
{
layerId = "B61D43DE-5272-4FF4-A680-608B6BF5ED9E";
paths = (
{
closed = 1;
nodes = (
"482 0 LINE",
"482 527 LINE",
"360 527 LINE",
"340 158 LINE",
"340 0 LINE"
);
},
{
closed = 1;
nodes = (
"573 144 LINE",
"573 239 LINE",
"185 239 LINE",
"303 697 LINE",
"157 697 LINE",
"22 144 LINE"
);
}
);
width = 599;
}
);
leftKerningGroup = four.subs;
rightKerningGroup = four.subs;
userData = {
com.typemytype.robofont.mark = (
0.967,
0.6,
1,
1
);
};
},
{
glyphname = five.subs;
lastChange = "2018-05-15 18:14:03 +0000";
layers = (
{
layerId = "B61D43DE-5272-4FF4-A680-608B6BF5ED9E";
paths = (
{
closed = 1;
nodes = (
"94 -1 OFFCURVE",
"169 -13 OFFCURVE",
"230 -13 CURVE SMOOTH",
"393 -13 OFFCURVE",
"505 75 OFFCURVE",
"505 231 CURVE SMOOTH",
"505 348 OFFCURVE",
"430 454 OFFCURVE",
"289 454 CURVE SMOOTH",
"253 454 OFFCURVE",
"224 451 OFFCURVE",
"193 442 CURVE",
"207 591 LINE",
"463 591 LINE",
"463 697 LINE",
"89 697 LINE",
"76 324 LINE",
"97 337 OFFCURVE",
"162 356 OFFCURVE",
"218 356 CURVE SMOOTH",
"315 356 OFFCURVE",
"370 305 OFFCURVE",
"370 226 CURVE SMOOTH",
"370 107 OFFCURVE",
"277 88 OFFCURVE",
"213 88 CURVE SMOOTH",
"166 88 OFFCURVE",
"111 109 OFFCURVE",
"82 136 CURVE",
"45 32 LINE"
);
}
);
width = 546;
}
);
leftKerningGroup = five.subs;
rightKerningGroup = five.subs;
userData = {
com.typemytype.robofont.mark = (
0.967,
0.6,
1,
1
);
};
},
{
glyphname = six.subs;
lastChange = "2018-05-15 18:14:03 +0000";
layers = (
{
layerId = "B61D43DE-5272-4FF4-A680-608B6BF5ED9E";
paths = (
{
closed = 1;
nodes = (
"53 73 OFFCURVE",
"205 -15 OFFCURVE",
"324 -15 CURVE SMOOTH",
"478 -15 OFFCURVE",
"580 83 OFFCURVE",
"580 237 CURVE SMOOTH",
"580 358 OFFCURVE",
"503 457 OFFCURVE",
"368 457 CURVE SMOOTH",
"295 457 OFFCURVE",
"226 427 OFFCURVE",
"190 358 CURVE",
"190 369 OFFCURVE",
"190 381 OFFCURVE",
"191 395 CURVE SMOOTH",
"201 498 OFFCURVE",
"246 609 OFFCURVE",
"350 609 CURVE SMOOTH",
"387 609 OFFCURVE",
"449 602 OFFCURVE",
"480 567 CURVE",
"529 663 LINE",
"497 694 OFFCURVE",
"440 714 OFFCURVE",
"346 714 CURVE SMOOTH",
"170 714 OFFCURVE",
"53 570 OFFCURVE",
"53 336 CURVE SMOOTH"
);
},
{
closed = 1;
nodes = (
"206 215 OFFCURVE",
"205 226 OFFCURVE",
"205 236 CURVE",
"209 301 OFFCURVE",
"275 355 OFFCURVE",
"338 355 CURVE SMOOTH",
"410 355 OFFCURVE",
"444 303 OFFCURVE",
"444 225 CURVE SMOOTH",
"444 139 OFFCURVE",
"390 88 OFFCURVE",
"327 88 CURVE SMOOTH",
"265 88 OFFCURVE",
"227 140 OFFCURVE",
"209 203 CURVE SMOOTH"
);
}
);
width = 623;
}
);
leftKerningGroup = six.subs;
rightKerningGroup = six.subs;
userData = {
com.typemytype.robofont.mark = (
0.967,
0.6,
1,
1
);
};
},
{
glyphname = seven.subs;
lastChange = "2018-05-15 18:14:03 +0000";
layers = (
{
layerId = "B61D43DE-5272-4FF4-A680-608B6BF5ED9E";
paths = (
{
closed = 1;
nodes = (
"266 0 LINE",
"315 158 OFFCURVE",
"458 563 OFFCURVE",
"485 648 CURVE",
"455 697 LINE",
"35 697 LINE",
"35 589 LINE",
"341 589 LINE",
"121 0 LINE"
);
}
);
width = 527;
}
);
leftKerningGroup = seven.subs;
rightKerningGroup = seven.subs;
userData = {
com.typemytype.robofont.mark = (
0.967,
0.6,
1,
1
);
};
},
{
glyphname = eight.subs;
lastChange = "2018-05-15 18:14:03 +0000";
layers = (
{
layerId = "B61D43DE-5272-4FF4-A680-608B6BF5ED9E";
paths = (
{
closed = 1;
nodes = (
"208 589 OFFCURVE",
"245 622 OFFCURVE",
"312 622 CURVE SMOOTH",
"379 622 OFFCURVE",
"412 589 OFFCURVE",
"412 524 CURVE SMOOTH",
"412 452 OFFCURVE",
"364 412 OFFCURVE",
"312 412 CURVE SMOOTH",
"260 412 OFFCURVE",
"208 452 OFFCURVE",
"208 524 CURVE SMOOTH"
);
},
{
closed = 1;
nodes = (
"77 400 OFFCURVE",
"174 339 OFFCURVE",
"311 339 CURVE SMOOTH",
"438 339 OFFCURVE",
"542 400 OFFCURVE",
"542 533 CURVE SMOOTH",
"542 665 OFFCURVE",
"426 714 OFFCURVE",
"311 714 CURVE SMOOTH",
"195 714 OFFCURVE",
"77 665 OFFCURVE",
"77 533 CURVE SMOOTH"
);
},
{
closed = 1;
nodes = (
"357 310 OFFCURVE",
"430 283 OFFCURVE",
"430 193 CURVE SMOOTH",
"430 119 OFFCURVE",
"386 83 OFFCURVE",
"310 83 CURVE SMOOTH",
"233 83 OFFCURVE",
"189 119 OFFCURVE",
"189 193 CURVE SMOOTH",
"189 283 OFFCURVE",
"262 310 OFFCURVE",
"310 310 CURVE SMOOTH"
);
},
{
closed = 1;
nodes = (
"435 -18 OFFCURVE",
"572 40 OFFCURVE",
"572 191 CURVE SMOOTH",
"572 321 OFFCURVE",
"454 384 OFFCURVE",
"310 384 CURVE SMOOTH",
"165 384 OFFCURVE",
"47 321 OFFCURVE",
"47 191 CURVE SMOOTH",
"47 40 OFFCURVE",
"184 -18 OFFCURVE",
"310 -18 CURVE SMOOTH"
);
}
);
width = 619;
}
);
leftKerningGroup = eight.subs;
rightKerningGroup = eight.subs;
userData = {
com.typemytype.robofont.mark = (
0.967,
0.6,
1,
1
);
};
},
{
glyphname = nine.subs;
lastChange = "2018-05-15 18:14:03 +0000";
layers = (
{
layerId = "B61D43DE-5272-4FF4-A680-608B6BF5ED9E";
paths = (
{
closed = 1;
nodes = (
"573 629 OFFCURVE",
"431 714 OFFCURVE",
"303 714 CURVE SMOOTH",
"149 714 OFFCURVE",
"46 617 OFFCURVE",
"46 463 CURVE SMOOTH",
"46 341 OFFCURVE",
"124 243 OFFCURVE",
"259 243 CURVE SMOOTH",
"331 243 OFFCURVE",
"400 272 OFFCURVE",
"436 341 CURVE",
"437 331 OFFCURVE",
"436 319 OFFCURVE",
"435 305 CURVE SMOOTH",
"429 202 OFFCURVE",
"381 90 OFFCURVE",
"262 90 CURVE SMOOTH",
"229 90 OFFCURVE",
"170 103 OFFCURVE",
"141 133 CURVE",
"92 37 LINE",
"122 10 OFFCURVE",
"179 -15 OFFCURVE",
"266 -15 CURVE SMOOTH",
"456 -15 OFFCURVE",
"573 127 OFFCURVE",
"573 362 CURVE"
);
},
{
closed = 1;
nodes = (
"421 485 OFFCURVE",
"421 474 OFFCURVE",
"421 463 CURVE",
"417 399 OFFCURVE",
"351 344 OFFCURVE",
"288 344 CURVE SMOOTH",
"216 344 OFFCURVE",
"182 397 OFFCURVE",
"182 475 CURVE SMOOTH",
"182 561 OFFCURVE",
"237 611 OFFCURVE",
"300 611 CURVE SMOOTH",
"361 611 OFFCURVE",
"404 560 OFFCURVE",
"417 497 CURVE"
);
}
);
width = 623;
}
);
leftKerningGroup = nine.subs;
rightKerningGroup = nine.subs;
userData = {
com.typemytype.robofont.mark = (
0.967,
0.6,
1,
1
);
};
},
{
color = 9;
glyphname = zero.dnom;
lastChange = "2018-05-15 18:40:20 +0000";
layers = (
{
layerId = "B61D43DE-5272-4FF4-A680-608B6BF5ED9E";
paths = (
{
closed = 1;
nodes = (
"178 58 OFFCURVE",
"154 129 OFFCURVE",
"154 222 CURVE SMOOTH",
"154 320 OFFCURVE",
"180 388 OFFCURVE",
"250 388 CURVE SMOOTH",
"320 388 OFFCURVE",
"346 320 OFFCURVE",
"346 222 CURVE SMOOTH",
"346 129 OFFCURVE",
"321 58 OFFCURVE",
"250 58 CURVE SMOOTH"
);
},
{
closed = 1;
nodes = (
"404 -10 OFFCURVE",
"466 86 OFFCURVE",
"466 221 CURVE SMOOTH",
"466 380 OFFCURVE",
"387 455 OFFCURVE",
"253 455 CURVE SMOOTH",
"120 455 OFFCURVE",
"41 380 OFFCURVE",
"41 221 CURVE SMOOTH",
"41 86 OFFCURVE",
"103 -10 OFFCURVE",
"253 -10 CURVE SMOOTH"
);
}
);
width = 582;
}
);
leftKerningGroup = zero.dnom;
rightKerningGroup = zero.dnom;
userData = {
com.typemytype.robofont.mark = (
0.967,
0.6,
1,
1
);
};
},
{
color = 9;
glyphname = one.dnom;
lastChange = "2018-05-15 18:40:20 +0000";
layers = (
{
layerId = "B61D43DE-5272-4FF4-A680-608B6BF5ED9E";
paths = (
{
closed = 1;
nodes = (
"225 0 LINE",
"225 505 LINE",
"104 453 LINE",
"104 0 LINE"
);
}
);
width = 313;
}
);
leftKerningGroup = one.dnom;
rightKerningGroup = one.dnom;
userData = {
com.typemytype.robofont.mark = (
0.967,
0.6,
1,
1
);
};
},
{
color = 9;
glyphname = two.dnom;
lastChange = "2018-05-15 18:40:20 +0000";
layers = (
{
layerId = "B61D43DE-5272-4FF4-A680-608B6BF5ED9E";
paths = (
{
closed = 1;
nodes = (
"512 110 LINE",
"199 110 LINE",
"199 188 OFFCURVE",
"292 221 OFFCURVE",
"352 260 CURVE SMOOTH",
"440 317 OFFCURVE",
"510 386 OFFCURVE",
"510 503 CURVE SMOOTH",
"510 592 OFFCURVE",
"458 714 OFFCURVE",
"283 714 CURVE SMOOTH",
"135 714 OFFCURVE",
"55 628 OFFCURVE",
"43 524 CURVE",
"154 470 LINE",
"161 533 OFFCURVE",
"191 609 OFFCURVE",
"276 609 CURVE SMOOTH",
"350 609 OFFCURVE",
"374 555 OFFCURVE",
"374 499 CURVE SMOOTH",
"374 402 OFFCURVE",
"273 354 OFFCURVE",
"199 309 CURVE SMOOTH",
"76 234 OFFCURVE",
"56 155 OFFCURVE",
"56 64 CURVE SMOOTH",
"56 43 OFFCURVE",
"59 21 OFFCURVE",
"63 0 CURVE",
"512 0 LINE"
);
}
);
width = 561;
}
);
leftKerningGroup = two.dnom;
rightKerningGroup = two.dnom;
userData = {
com.typemytype.robofont.mark = (
0.967,
0.6,
1,
1
);
};
},
{
color = 9;
glyphname = three.dnom;
lastChange = "2018-05-15 18:40:20 +0000";
layers = (
{
layerId = "B61D43DE-5272-4FF4-A680-608B6BF5ED9E";
paths = (
{
closed = 1;
nodes = (
"96 3 OFFCURVE",
"169 -15 OFFCURVE",
"245 -15 CURVE SMOOTH",
"388 -15 OFFCURVE",
"504 64 OFFCURVE",
"504 196 CURVE SMOOTH",
"504 280 OFFCURVE",
"456 339 OFFCURVE",
"371 360 CURVE",
"445 379 OFFCURVE",
"487 444 OFFCURVE",
"487 520 CURVE SMOOTH",
"487 634 OFFCURVE",
"399 714 OFFCURVE",
"261 714 CURVE SMOOTH",
"177 714 OFFCURVE",
"89 687 OFFCURVE",
"48 651 CURVE",
"88 554 LINE",
"124 594 OFFCURVE",
"180 609 OFFCURVE",
"229 609 CURVE SMOOTH",
"301 609 OFFCURVE",
"342 566 OFFCURVE",
"342 500 CURVE SMOOTH",
"342 439 OFFCURVE",
"298 409 OFFCURVE",
"216 409 CURVE",
"216 409 OFFCURVE",
"172 410 OFFCURVE",
"172 409 CURVE",
"172 310 LINE",
"171 311 OFFCURVE",
"213 312 OFFCURVE",
"214 312 CURVE SMOOTH",
"291 314 OFFCURVE",
"363 285 OFFCURVE",
"363 200 CURVE SMOOTH",
"363 136 OFFCURVE",
"322 96 OFFCURVE",
"232 96 CURVE SMOOTH",
"179 96 OFFCURVE",
"117 113 OFFCURVE",
"79 150 CURVE",
"40 43 LINE"
);
}
);
width = 545;
}
);
leftKerningGroup = three.dnom;
rightKerningGroup = three.dnom;
userData = {
com.typemytype.robofont.mark = (
0.967,
0.6,
1,
1
);
};
},
{
color = 9;
glyphname = four.dnom;
lastChange = "2018-05-15 18:40:20 +0000";
layers = (
{
layerId = "B61D43DE-5272-4FF4-A680-608B6BF5ED9E";
paths = (
{
closed = 1;
nodes = (
"482 0 LINE",
"482 527 LINE",
"360 527 LINE",
"340 158 LINE",
"340 0 LINE"
);
},
{
closed = 1;
nodes = (
"573 144 LINE",
"573 239 LINE",
"185 239 LINE",
"303 697 LINE",
"157 697 LINE",
"22 144 LINE"
);
}
);
width = 599;
}
);
leftKerningGroup = four.dnom;
rightKerningGroup = four.dnom;
userData = {
com.typemytype.robofont.mark = (
0.967,
0.6,
1,
1
);
};
},
{
color = 9;
glyphname = five.dnom;
lastChange = "2018-05-15 18:40:20 +0000";
layers = (
{
layerId = "B61D43DE-5272-4FF4-A680-608B6BF5ED9E";
paths = (
{
closed = 1;
nodes = (
"94 -1 OFFCURVE",
"169 -13 OFFCURVE",
"230 -13 CURVE SMOOTH",
"393 -13 OFFCURVE",
"505 75 OFFCURVE",
"505 231 CURVE SMOOTH",
"505 348 OFFCURVE",
"430 454 OFFCURVE",
"289 454 CURVE SMOOTH",
"253 454 OFFCURVE",
"224 451 OFFCURVE",
"193 442 CURVE",
"207 591 LINE",
"463 591 LINE",
"463 697 LINE",
"89 697 LINE",
"76 324 LINE",
"97 337 OFFCURVE",
"162 356 OFFCURVE",
"218 356 CURVE SMOOTH",
"315 356 OFFCURVE",
"370 305 OFFCURVE",
"370 226 CURVE SMOOTH",
"370 107 OFFCURVE",
"277 88 OFFCURVE",
"213 88 CURVE SMOOTH",
"166 88 OFFCURVE",
"111 109 OFFCURVE",
"82 136 CURVE",
"45 32 LINE"
);
}
);
width = 546;
}
);
leftKerningGroup = five.dnom;
rightKerningGroup = five.dnom;
userData = {
com.typemytype.robofont.mark = (
0.967,
0.6,
1,
1
);
};
},
{
color = 9;
glyphname = six.dnom;
lastChange = "2018-05-15 18:40:20 +0000";
layers = (
{
layerId = "B61D43DE-5272-4FF4-A680-608B6BF5ED9E";
paths = (
{
closed = 1;
nodes = (
"53 73 OFFCURVE",
"205 -15 OFFCURVE",
"324 -15 CURVE SMOOTH",
"478 -15 OFFCURVE",
"580 83 OFFCURVE",
"580 237 CURVE SMOOTH",
"580 358 OFFCURVE",
"503 457 OFFCURVE",
"368 457 CURVE SMOOTH",
"295 457 OFFCURVE",
"226 427 OFFCURVE",
"190 358 CURVE",
"190 369 OFFCURVE",
"190 381 OFFCURVE",
"191 395 CURVE SMOOTH",
"201 498 OFFCURVE",
"246 609 OFFCURVE",
"350 609 CURVE SMOOTH",
"387 609 OFFCURVE",
"449 602 OFFCURVE",
"480 567 CURVE",
"529 663 LINE",
"497 694 OFFCURVE",
"440 714 OFFCURVE",
"346 714 CURVE SMOOTH",
"170 714 OFFCURVE",
"53 570 OFFCURVE",
"53 336 CURVE SMOOTH"
);
},
{
closed = 1;
nodes = (
"206 215 OFFCURVE",
"205 226 OFFCURVE",
"205 236 CURVE",
"209 301 OFFCURVE",
"275 355 OFFCURVE",
"338 355 CURVE SMOOTH",
"410 355 OFFCURVE",
"444 303 OFFCURVE",
"444 225 CURVE SMOOTH",
"444 139 OFFCURVE",
"390 88 OFFCURVE",
"327 88 CURVE SMOOTH",
"265 88 OFFCURVE",
"227 140 OFFCURVE",
"209 203 CURVE SMOOTH"
);
}
);
width = 623;
}
);
leftKerningGroup = six.dnom;
rightKerningGroup = six.dnom;
userData = {
com.typemytype.robofont.mark = (
0.967,
0.6,
1,
1
);
};
},
{
color = 9;
glyphname = seven.dnom;
lastChange = "2018-05-15 18:40:20 +0000";
layers = (
{
layerId = "B61D43DE-5272-4FF4-A680-608B6BF5ED9E";
paths = (
{
closed = 1;
nodes = (
"266 0 LINE",
"315 158 OFFCURVE",
"458 563 OFFCURVE",
"485 648 CURVE",
"455 697 LINE",
"35 697 LINE",
"35 589 LINE",
"341 589 LINE",
"121 0 LINE"
);
}
);
width = 527;
}
);
leftKerningGroup = seven.dnom;
rightKerningGroup = seven.dnom;
userData = {
com.typemytype.robofont.mark = (
0.967,
0.6,
1,
1
);
};
},
{
color = 9;
glyphname = eight.dnom;
lastChange = "2018-05-15 18:40:20 +0000";
layers = (
{
layerId = "B61D43DE-5272-4FF4-A680-608B6BF5ED9E";
paths = (
{
closed = 1;
nodes = (
"208 589 OFFCURVE",
"245 622 OFFCURVE",
"312 622 CURVE SMOOTH",
"379 622 OFFCURVE",
"412 589 OFFCURVE",
"412 524 CURVE SMOOTH",
"412 452 OFFCURVE",
"364 412 OFFCURVE",
"312 412 CURVE SMOOTH",
"260 412 OFFCURVE",
"208 452 OFFCURVE",
"208 524 CURVE SMOOTH"
);
},
{
closed = 1;
nodes = (
"77 400 OFFCURVE",
"174 339 OFFCURVE",
"311 339 CURVE SMOOTH",
"438 339 OFFCURVE",
"542 400 OFFCURVE",
"542 533 CURVE SMOOTH",
"542 665 OFFCURVE",
"426 714 OFFCURVE",
"311 714 CURVE SMOOTH",
"195 714 OFFCURVE",
"77 665 OFFCURVE",
"77 533 CURVE SMOOTH"
);
},
{
closed = 1;
nodes = (
"357 310 OFFCURVE",
"430 283 OFFCURVE",
"430 193 CURVE SMOOTH",
"430 119 OFFCURVE",
"386 83 OFFCURVE",
"310 83 CURVE SMOOTH",
"233 83 OFFCURVE",
"189 119 OFFCURVE",
"189 193 CURVE SMOOTH",
"189 283 OFFCURVE",
"262 310 OFFCURVE",
"310 310 CURVE SMOOTH"
);
},
{
closed = 1;
nodes = (
"435 -18 OFFCURVE",
"572 40 OFFCURVE",
"572 191 CURVE SMOOTH",
"572 321 OFFCURVE",
"454 384 OFFCURVE",
"310 384 CURVE SMOOTH",
"165 384 OFFCURVE",
"47 321 OFFCURVE",
"47 191 CURVE SMOOTH",
"47 40 OFFCURVE",
"184 -18 OFFCURVE",
"310 -18 CURVE SMOOTH"
);
}
);
width = 619;
}
);
leftKerningGroup = eight.dnom;
rightKerningGroup = eight.dnom;
userData = {
com.typemytype.robofont.mark = (
0.967,
0.6,
1,
1
);
};
},
{
color = 9;
glyphname = nine.dnom;
lastChange = "2018-05-15 18:40:20 +0000";
layers = (
{
layerId = "B61D43DE-5272-4FF4-A680-608B6BF5ED9E";
paths = (
{
closed = 1;
nodes = (
"573 629 OFFCURVE",
"431 714 OFFCURVE",
"303 714 CURVE SMOOTH",
"149 714 OFFCURVE",
"46 617 OFFCURVE",
"46 463 CURVE SMOOTH",
"46 341 OFFCURVE",
"124 243 OFFCURVE",
"259 243 CURVE SMOOTH",
"331 243 OFFCURVE",
"400 272 OFFCURVE",
"436 341 CURVE",
"437 331 OFFCURVE",
"436 319 OFFCURVE",
"435 305 CURVE SMOOTH",
"429 202 OFFCURVE",
"381 90 OFFCURVE",
"262 90 CURVE SMOOTH",
"229 90 OFFCURVE",
"170 103 OFFCURVE",
"141 133 CURVE",
"92 37 LINE",
"122 10 OFFCURVE",
"179 -15 OFFCURVE",
"266 -15 CURVE SMOOTH",
"456 -15 OFFCURVE",
"573 127 OFFCURVE",
"573 362 CURVE"
);
},
{
closed = 1;
nodes = (
"421 485 OFFCURVE",
"421 474 OFFCURVE",
"421 463 CURVE",
"417 399 OFFCURVE",
"351 344 OFFCURVE",
"288 344 CURVE SMOOTH",
"216 344 OFFCURVE",
"182 397 OFFCURVE",
"182 475 CURVE SMOOTH",
"182 561 OFFCURVE",
"237 611 OFFCURVE",
"300 611 CURVE SMOOTH",
"361 611 OFFCURVE",
"404 560 OFFCURVE",
"417 497 CURVE"
);
}
);
width = 623;
}
);
leftKerningGroup = nine.dnom;
rightKerningGroup = nine.dnom;
userData = {
com.typemytype.robofont.mark = (
0.967,
0.6,
1,
1
);
};
},
{
glyphname = two.numr;
lastChange = "2018-05-15 18:14:03 +0000";
layers = (
{
layerId = "B61D43DE-5272-4FF4-A680-608B6BF5ED9E";
paths = (
{
closed = 1;
nodes = (
"512 110 LINE",
"199 110 LINE",
"199 188 OFFCURVE",
"292 221 OFFCURVE",
"352 260 CURVE SMOOTH",
"440 317 OFFCURVE",
"510 386 OFFCURVE",
"510 503 CURVE SMOOTH",
"510 592 OFFCURVE",
"458 714 OFFCURVE",
"283 714 CURVE SMOOTH",
"135 714 OFFCURVE",
"55 628 OFFCURVE",
"43 524 CURVE",
"154 470 LINE",
"161 533 OFFCURVE",
"191 609 OFFCURVE",
"276 609 CURVE SMOOTH",
"350 609 OFFCURVE",
"374 555 OFFCURVE",
"374 499 CURVE SMOOTH",
"374 402 OFFCURVE",
"273 354 OFFCURVE",
"199 309 CURVE SMOOTH",
"76 234 OFFCURVE",
"56 155 OFFCURVE",
"56 64 CURVE SMOOTH",
"56 43 OFFCURVE",
"59 21 OFFCURVE",
"63 0 CURVE",
"512 0 LINE"
);
}
);
width = 561;
}
);
leftKerningGroup = two.numr;
rightKerningGroup = two.numr;
userData = {
com.typemytype.robofont.mark = (
0.967,
0.6,
1,
1
);
};
},
{
glyphname = three.numr;
lastChange = "2018-05-15 18:14:03 +0000";
layers = (
{
layerId = "B61D43DE-5272-4FF4-A680-608B6BF5ED9E";
paths = (
{
closed = 1;
nodes = (
"96 3 OFFCURVE",
"169 -15 OFFCURVE",
"245 -15 CURVE SMOOTH",
"388 -15 OFFCURVE",
"504 64 OFFCURVE",
"504 196 CURVE SMOOTH",
"504 280 OFFCURVE",
"456 339 OFFCURVE",
"371 360 CURVE",
"445 379 OFFCURVE",
"487 444 OFFCURVE",
"487 520 CURVE SMOOTH",
"487 634 OFFCURVE",
"399 714 OFFCURVE",
"261 714 CURVE SMOOTH",
"177 714 OFFCURVE",
"89 687 OFFCURVE",
"48 651 CURVE",
"88 554 LINE",
"124 594 OFFCURVE",
"180 609 OFFCURVE",
"229 609 CURVE SMOOTH",
"301 609 OFFCURVE",
"342 566 OFFCURVE",
"342 500 CURVE SMOOTH",
"342 439 OFFCURVE",
"298 409 OFFCURVE",
"216 409 CURVE",
"216 409 OFFCURVE",
"172 410 OFFCURVE",
"172 409 CURVE",
"172 310 LINE",
"171 311 OFFCURVE",
"213 312 OFFCURVE",
"214 312 CURVE SMOOTH",
"291 314 OFFCURVE",
"363 285 OFFCURVE",
"363 200 CURVE SMOOTH",
"363 136 OFFCURVE",
"322 96 OFFCURVE",
"232 96 CURVE SMOOTH",
"179 96 OFFCURVE",
"117 113 OFFCURVE",
"79 150 CURVE",
"40 43 LINE"
);
}
);
width = 545;
}
);
leftKerningGroup = three.numr;
rightKerningGroup = three.numr;
userData = {
com.typemytype.robofont.mark = (
0.967,
0.6,
1,
1
);
};
},
{
glyphname = four.numr;
lastChange = "2018-05-15 18:14:03 +0000";
layers = (
{
layerId = "B61D43DE-5272-4FF4-A680-608B6BF5ED9E";
paths = (
{
closed = 1;
nodes = (
"482 0 LINE",
"482 527 LINE",
"360 527 LINE",
"340 158 LINE",
"340 0 LINE"
);
},
{
closed = 1;
nodes = (
"573 144 LINE",
"573 239 LINE",
"185 239 LINE",
"303 697 LINE",
"157 697 LINE",
"22 144 LINE"
);
}
);
width = 599;
}
);
leftKerningGroup = four.numr;
rightKerningGroup = four.numr;
userData = {
com.typemytype.robofont.mark = (
0.967,
0.6,
1,
1
);
};
},
{
glyphname = five.numr;
lastChange = "2018-05-15 18:14:03 +0000";
layers = (
{
layerId = "B61D43DE-5272-4FF4-A680-608B6BF5ED9E";
paths = (
{
closed = 1;
nodes = (
"94 -1 OFFCURVE",
"169 -13 OFFCURVE",
"230 -13 CURVE SMOOTH",
"393 -13 OFFCURVE",
"505 75 OFFCURVE",
"505 231 CURVE SMOOTH",
"505 348 OFFCURVE",
"430 454 OFFCURVE",
"289 454 CURVE SMOOTH",
"253 454 OFFCURVE",
"224 451 OFFCURVE",
"193 442 CURVE",
"207 591 LINE",
"463 591 LINE",
"463 697 LINE",
"89 697 LINE",
"76 324 LINE",
"97 337 OFFCURVE",
"162 356 OFFCURVE",
"218 356 CURVE SMOOTH",
"315 356 OFFCURVE",
"370 305 OFFCURVE",
"370 226 CURVE SMOOTH",
"370 107 OFFCURVE",
"277 88 OFFCURVE",
"213 88 CURVE SMOOTH",
"166 88 OFFCURVE",
"111 109 OFFCURVE",
"82 136 CURVE",
"45 32 LINE"
);
}
);
width = 546;
}
);
leftKerningGroup = five.numr;
rightKerningGroup = five.numr;
userData = {
com.typemytype.robofont.mark = (
0.967,
0.6,
1,
1
);
};
},
{
glyphname = six.numr;
lastChange = "2018-05-15 18:14:03 +0000";
layers = (
{
layerId = "B61D43DE-5272-4FF4-A680-608B6BF5ED9E";
paths = (
{
closed = 1;
nodes = (
"53 73 OFFCURVE",
"205 -15 OFFCURVE",
"324 -15 CURVE SMOOTH",
"478 -15 OFFCURVE",
"580 83 OFFCURVE",
"580 237 CURVE SMOOTH",
"580 358 OFFCURVE",
"503 457 OFFCURVE",
"368 457 CURVE SMOOTH",
"295 457 OFFCURVE",
"226 427 OFFCURVE",
"190 358 CURVE",
"190 369 OFFCURVE",
"190 381 OFFCURVE",
"191 395 CURVE SMOOTH",
"201 498 OFFCURVE",
"246 609 OFFCURVE",
"350 609 CURVE SMOOTH",
"387 609 OFFCURVE",
"449 602 OFFCURVE",
"480 567 CURVE",
"529 663 LINE",
"497 694 OFFCURVE",
"440 714 OFFCURVE",
"346 714 CURVE SMOOTH",
"170 714 OFFCURVE",
"53 570 OFFCURVE",
"53 336 CURVE SMOOTH"
);
},
{
closed = 1;
nodes = (
"206 215 OFFCURVE",
"205 226 OFFCURVE",
"205 236 CURVE",
"209 301 OFFCURVE",
"275 355 OFFCURVE",
"338 355 CURVE SMOOTH",
"410 355 OFFCURVE",
"444 303 OFFCURVE",
"444 225 CURVE SMOOTH",
"444 139 OFFCURVE",
"390 88 OFFCURVE",
"327 88 CURVE SMOOTH",
"265 88 OFFCURVE",
"227 140 OFFCURVE",
"209 203 CURVE SMOOTH"
);
}
);
width = 623;
}
);
leftKerningGroup = six.numr;
rightKerningGroup = six.numr;
userData = {
com.typemytype.robofont.mark = (
0.967,
0.6,
1,
1
);
};
},
{
glyphname = seven.numr;
lastChange = "2018-05-15 18:14:03 +0000";
layers = (
{
layerId = "B61D43DE-5272-4FF4-A680-608B6BF5ED9E";
paths = (
{
closed = 1;
nodes = (
"266 0 LINE",
"315 158 OFFCURVE",
"458 563 OFFCURVE",
"485 648 CURVE",
"455 697 LINE",
"35 697 LINE",
"35 589 LINE",
"341 589 LINE",
"121 0 LINE"
);
}
);
width = 527;
}
);
leftKerningGroup = seven.numr;
rightKerningGroup = seven.numr;
userData = {
com.typemytype.robofont.mark = (
0.967,
0.6,
1,
1
);
};
},
{
glyphname = eight.numr;
lastChange = "2018-05-15 18:14:03 +0000";
layers = (
{
layerId = "B61D43DE-5272-4FF4-A680-608B6BF5ED9E";
paths = (
{
closed = 1;
nodes = (
"208 589 OFFCURVE",
"245 622 OFFCURVE",
"312 622 CURVE SMOOTH",
"379 622 OFFCURVE",
"412 589 OFFCURVE",
"412 524 CURVE SMOOTH",
"412 452 OFFCURVE",
"364 412 OFFCURVE",
"312 412 CURVE SMOOTH",
"260 412 OFFCURVE",
"208 452 OFFCURVE",
"208 524 CURVE SMOOTH"
);
},
{
closed = 1;
nodes = (
"77 400 OFFCURVE",
"174 339 OFFCURVE",
"311 339 CURVE SMOOTH",
"438 339 OFFCURVE",
"542 400 OFFCURVE",
"542 533 CURVE SMOOTH",
"542 665 OFFCURVE",
"426 714 OFFCURVE",
"311 714 CURVE SMOOTH",
"195 714 OFFCURVE",
"77 665 OFFCURVE",
"77 533 CURVE SMOOTH"
);
},
{
closed = 1;
nodes = (
"357 310 OFFCURVE",
"430 283 OFFCURVE",
"430 193 CURVE SMOOTH",
"430 119 OFFCURVE",
"386 83 OFFCURVE",
"310 83 CURVE SMOOTH",
"233 83 OFFCURVE",
"189 119 OFFCURVE",
"189 193 CURVE SMOOTH",
"189 283 OFFCURVE",
"262 310 OFFCURVE",
"310 310 CURVE SMOOTH"
);
},
{
closed = 1;
nodes = (
"435 -18 OFFCURVE",
"572 40 OFFCURVE",
"572 191 CURVE SMOOTH",
"572 321 OFFCURVE",
"454 384 OFFCURVE",
"310 384 CURVE SMOOTH",
"165 384 OFFCURVE",
"47 321 OFFCURVE",
"47 191 CURVE SMOOTH",
"47 40 OFFCURVE",
"184 -18 OFFCURVE",
"310 -18 CURVE SMOOTH"
);
}
);
width = 619;
}
);
leftKerningGroup = eight.numr;
rightKerningGroup = eight.numr;
userData = {
com.typemytype.robofont.mark = (
0.967,
0.6,
1,
1
);
};
},
{
glyphname = nine.numr;
lastChange = "2018-05-15 18:14:03 +0000";
layers = (
{
layerId = "B61D43DE-5272-4FF4-A680-608B6BF5ED9E";
paths = (
{
closed = 1;
nodes = (
"573 629 OFFCURVE",
"431 714 OFFCURVE",
"303 714 CURVE SMOOTH",
"149 714 OFFCURVE",
"46 617 OFFCURVE",
"46 463 CURVE SMOOTH",
"46 341 OFFCURVE",
"124 243 OFFCURVE",
"259 243 CURVE SMOOTH",
"331 243 OFFCURVE",
"400 272 OFFCURVE",
"436 341 CURVE",
"437 331 OFFCURVE",
"436 319 OFFCURVE",
"435 305 CURVE SMOOTH",
"429 202 OFFCURVE",
"381 90 OFFCURVE",
"262 90 CURVE SMOOTH",
"229 90 OFFCURVE",
"170 103 OFFCURVE",
"141 133 CURVE",
"92 37 LINE",
"122 10 OFFCURVE",
"179 -15 OFFCURVE",
"266 -15 CURVE SMOOTH",
"456 -15 OFFCURVE",
"573 127 OFFCURVE",
"573 362 CURVE"
);
},
{
closed = 1;
nodes = (
"421 485 OFFCURVE",
"421 474 OFFCURVE",
"421 463 CURVE",
"417 399 OFFCURVE",
"351 344 OFFCURVE",
"288 344 CURVE SMOOTH",
"216 344 OFFCURVE",
"182 397 OFFCURVE",
"182 475 CURVE SMOOTH",
"182 561 OFFCURVE",
"237 611 OFFCURVE",
"300 611 CURVE SMOOTH",
"361 611 OFFCURVE",
"404 560 OFFCURVE",
"417 497 CURVE"
);
}
);
width = 623;
}
);
leftKerningGroup = nine.numr;
rightKerningGroup = nine.numr;
userData = {
com.typemytype.robofont.mark = (
0.967,
0.6,
1,
1
);
};
},
{
glyphname = zerosuperior;
lastChange = "2018-05-15 18:14:03 +0000";
layers = (
{
layerId = "B61D43DE-5272-4FF4-A680-608B6BF5ED9E";
paths = (
{
closed = 1;
nodes = (
"178 530 OFFCURVE",
"154 601 OFFCURVE",
"154 694 CURVE SMOOTH",
"154 792 OFFCURVE",
"180 860 OFFCURVE",
"250 860 CURVE SMOOTH",
"320 860 OFFCURVE",
"346 792 OFFCURVE",
"346 694 CURVE SMOOTH",
"346 601 OFFCURVE",
"321 530 OFFCURVE",
"250 530 CURVE SMOOTH"
);
},
{
closed = 1;
nodes = (
"404 462 OFFCURVE",
"466 558 OFFCURVE",
"466 693 CURVE SMOOTH",
"466 852 OFFCURVE",
"387 927 OFFCURVE",
"253 927 CURVE SMOOTH",
"120 927 OFFCURVE",
"41 852 OFFCURVE",
"41 693 CURVE SMOOTH",
"41 558 OFFCURVE",
"103 462 OFFCURVE",
"253 462 CURVE SMOOTH"
);
}
);
width = 494;
}
);
leftKerningGroup = zerosuperior;
rightKerningGroup = zerosuperior;
unicode = 2070;
},
{
glyphname = onesuperior;
lastChange = "2018-05-15 18:14:03 +0000";
layers = (
{
layerId = "B61D43DE-5272-4FF4-A680-608B6BF5ED9E";
paths = (
{
closed = 1;
nodes = (
"225 422 LINE",
"225 927 LINE",
"104 875 LINE",
"104 422 LINE"
);
}
);
width = 330;
}
);
leftKerningGroup = onesuperior;
rightKerningGroup = onesuperior;
unicode = 00B9;
},
{
glyphname = twosuperior;
lastChange = "2018-05-15 18:14:03 +0000";
layers = (
{
layerId = "B61D43DE-5272-4FF4-A680-608B6BF5ED9E";
paths = (
{
closed = 1;
nodes = (
"428 422 LINE",
"428 522 LINE",
"120 522 LINE",
"171 478 LINE",
"171 508 OFFCURVE",
"159 542 OFFCURVE",
"234 577 CURVE SMOOTH",
"349 629 OFFCURVE",
"419 661 OFFCURVE",
"419 761 CURVE SMOOTH",
"419 881 OFFCURVE",
"332 927 OFFCURVE",
"225 927 CURVE SMOOTH",
"101 927 OFFCURVE",
"37 844 OFFCURVE",
"28 789 CURVE",
"134 750 LINE",
"137 814 OFFCURVE",
"177 835 OFFCURVE",
"219 835 CURVE SMOOTH",
"255 835 OFFCURVE",
"297 820 OFFCURVE",
"297 767 CURVE SMOOTH",
"297 727 OFFCURVE",
"256 690 OFFCURVE",
"174 655 CURVE SMOOTH",
"48 600 OFFCURVE",
"27 520 OFFCURVE",
"48 422 CURVE"
);
}
);
width = 503;
}
);
leftKerningGroup = twosuperior;
rightKerningGroup = twosuperior;
unicode = 00B2;
},
{
glyphname = threesuperior;
lastChange = "2018-05-15 18:14:03 +0000";
layers = (
{
layerId = "B61D43DE-5272-4FF4-A680-608B6BF5ED9E";
paths = (
{
closed = 1;
nodes = (
"86 431 OFFCURVE",
"147 418 OFFCURVE",
"215 418 CURVE SMOOTH",
"338 418 OFFCURVE",
"420 466 OFFCURVE",
"420 572 CURVE SMOOTH",
"420 627 OFFCURVE",
"390 671 OFFCURVE",
"329 684 CURVE",
"380 703 OFFCURVE",
"402 740 OFFCURVE",
"402 790 CURVE SMOOTH",
"402 877 OFFCURVE",
"344 927 OFFCURVE",
"220 927 CURVE SMOOTH",
"146 927 OFFCURVE",
"72 908 OFFCURVE",
"35 882 CURVE",
"73 796 LINE",
"103 821 OFFCURVE",
"149 837 OFFCURVE",
"186 837 CURVE SMOOTH",
"228 837 OFFCURVE",
"287 828 OFFCURVE",
"287 781 CURVE SMOOTH",
"287 732 OFFCURVE",
"258 726 OFFCURVE",
"205 722 CURVE SMOOTH",
"188 721 OFFCURVE",
"158 721 OFFCURVE",
"141 721 CURVE",
"141 640 LINE",
"160 641 OFFCURVE",
"190 642 OFFCURVE",
"208 642 CURVE SMOOTH",
"258 642 OFFCURVE",
"290 620 OFFCURVE",
"290 579 CURVE SMOOTH",
"290 533 OFFCURVE",
"257 513 OFFCURVE",
"183 513 CURVE SMOOTH",
"146 513 OFFCURVE",
"95 529 OFFCURVE",
"63 556 CURVE",
"35 461 LINE"
);
}
);
width = 470;
}
);
leftKerningGroup = threesuperior;
rightKerningGroup = threesuperior;
unicode = 00B3;
},
{
glyphname = foursuperior;
lastChange = "2018-05-15 18:14:03 +0000";
layers = (
{
layerId = "B61D43DE-5272-4FF4-A680-608B6BF5ED9E";
paths = (
{
closed = 1;
nodes = (
"370 462 LINE",
"370 845 LINE",
"276 845 LINE",
"260 573 LINE",
"260 462 LINE"
);
},
{
closed = 1;
nodes = (
"439 563 LINE",
"439 629 LINE",
"141 629 LINE",
"233 950 LINE",
"121 950 LINE",
"17 563 LINE"
);
}
);
width = 459;
}
);
leftKerningGroup = foursuperior;
rightKerningGroup = foursuperior;
unicode = 2074;
},
{
glyphname = fivesuperior;
lastChange = "2018-05-15 18:14:03 +0000";
layers = (
{
layerId = "B61D43DE-5272-4FF4-A680-608B6BF5ED9E";
paths = (
{
closed = 1;
nodes = (
"72 424 OFFCURVE",
"129 416 OFFCURVE",
"176 416 CURVE SMOOTH",
"301 416 OFFCURVE",
"387 477 OFFCURVE",
"387 586 CURVE SMOOTH",
"387 668 OFFCURVE",
"329 742 OFFCURVE",
"222 742 CURVE SMOOTH",
"194 742 OFFCURVE",
"171 740 OFFCURVE",
"148 733 CURVE",
"158 838 LINE",
"354 838 LINE",
"354 913 LINE",
"68 913 LINE",
"59 651 LINE",
"74 660 OFFCURVE",
"124 673 OFFCURVE",
"167 673 CURVE SMOOTH",
"241 673 OFFCURVE",
"283 638 OFFCURVE",
"283 583 CURVE SMOOTH",
"283 500 OFFCURVE",
"212 486 OFFCURVE",
"163 486 CURVE SMOOTH",
"127 486 OFFCURVE",
"84 501 OFFCURVE",
"62 520 CURVE",
"35 446 LINE"
);
}
);
width = 418;
}
);
leftKerningGroup = fivesuperior;
rightKerningGroup = fivesuperior;
unicode = 2075;
},
{
glyphname = sixsuperior;
lastChange = "2018-05-15 18:14:03 +0000";
layers = (
{
layerId = "B61D43DE-5272-4FF4-A680-608B6BF5ED9E";
paths = (
{
closed = 1;
nodes = (
"41 479 OFFCURVE",
"157 417 OFFCURVE",
"248 417 CURVE SMOOTH",
"366 417 OFFCURVE",
"444 485 OFFCURVE",
"444 593 CURVE SMOOTH",
"444 678 OFFCURVE",
"385 747 OFFCURVE",
"282 747 CURVE SMOOTH",
"226 747 OFFCURVE",
"173 726 OFFCURVE",
"146 678 CURVE",
"145 686 OFFCURVE",
"145 694 OFFCURVE",
"146 704 CURVE SMOOTH",
"154 776 OFFCURVE",
"188 854 OFFCURVE",
"268 854 CURVE SMOOTH",
"297 854 OFFCURVE",
"343 849 OFFCURVE",
"367 824 CURVE",
"405 892 LINE",
"380 913 OFFCURVE",
"337 927 OFFCURVE",
"265 927 CURVE SMOOTH",
"130 927 OFFCURVE",
"41 827 OFFCURVE",
"41 663 CURVE SMOOTH"
);
},
{
closed = 1;
nodes = (
"158 578 OFFCURVE",
"157 585 OFFCURVE",
"157 593 CURVE",
"160 638 OFFCURVE",
"211 676 OFFCURVE",
"259 676 CURVE SMOOTH",
"314 676 OFFCURVE",
"340 639 OFFCURVE",
"340 584 CURVE SMOOTH",
"340 524 OFFCURVE",
"298 489 OFFCURVE",
"250 489 CURVE SMOOTH",
"203 489 OFFCURVE",
"174 525 OFFCURVE",
"160 569 CURVE SMOOTH"
);
}
);
width = 476;
}
);
leftKerningGroup = sixsuperior;
rightKerningGroup = sixsuperior;
unicode = 2076;
},
{
glyphname = sevensuperior;
lastChange = "2018-05-15 18:14:03 +0000";
layers = (
{
layerId = "B61D43DE-5272-4FF4-A680-608B6BF5ED9E";
paths = (
{
closed = 1;
nodes = (
"203 426 LINE",
"241 537 OFFCURVE",
"350 820 OFFCURVE",
"371 880 CURVE",
"348 914 LINE",
"26 914 LINE",
"26 838 LINE",
"261 838 LINE",
"92 426 LINE"
);
}
);
width = 403;
}
);
leftKerningGroup = sevensuperior;
rightKerningGroup = sevensuperior;
unicode = 2077;
},
{
glyphname = eightsuperior;
lastChange = "2018-05-15 18:14:03 +0000";
layers = (
{
layerId = "B61D43DE-5272-4FF4-A680-608B6BF5ED9E";
paths = (
{
closed = 1;
nodes = (
"159 839 OFFCURVE",
"188 863 OFFCURVE",
"238 863 CURVE SMOOTH",
"290 863 OFFCURVE",
"315 839 OFFCURVE",
"315 794 CURVE SMOOTH",
"315 743 OFFCURVE",
"279 715 OFFCURVE",
"238 715 CURVE SMOOTH",
"200 715 OFFCURVE",
"159 743 OFFCURVE",
"159 794 CURVE SMOOTH"
);
},
{
closed = 1;
nodes = (
"59 708 OFFCURVE",
"133 665 OFFCURVE",
"238 665 CURVE SMOOTH",
"335 665 OFFCURVE",
"415 708 OFFCURVE",
"415 800 CURVE SMOOTH",
"415 893 OFFCURVE",
"326 927 OFFCURVE",
"238 927 CURVE SMOOTH",
"150 927 OFFCURVE",
"59 893 OFFCURVE",
"59 800 CURVE SMOOTH"
);
},
{
closed = 1;
nodes = (
"273 644 OFFCURVE",
"329 625 OFFCURVE",
"329 562 CURVE SMOOTH",
"329 510 OFFCURVE",
"295 485 OFFCURVE",
"237 485 CURVE SMOOTH",
"179 485 OFFCURVE",
"145 510 OFFCURVE",
"145 562 CURVE SMOOTH",
"145 625 OFFCURVE",
"201 644 OFFCURVE",
"237 644 CURVE SMOOTH"
);
},
{
closed = 1;
nodes = (
"333 415 OFFCURVE",
"438 455 OFFCURVE",
"438 561 CURVE SMOOTH",
"438 652 OFFCURVE",
"348 696 OFFCURVE",
"237 696 CURVE SMOOTH",
"126 696 OFFCURVE",
"36 652 OFFCURVE",
"36 561 CURVE SMOOTH",
"36 455 OFFCURVE",
"141 415 OFFCURVE",
"237 415 CURVE SMOOTH"
);
}
);
width = 474;
}
);
leftKerningGroup = eightsuperior;
rightKerningGroup = eightsuperior;
unicode = 2078;
},
{
glyphname = ninesuperior;
lastChange = "2018-05-15 18:14:03 +0000";
layers = (
{
layerId = "B61D43DE-5272-4FF4-A680-608B6BF5ED9E";
paths = (
{
closed = 1;
nodes = (
"439 867 OFFCURVE",
"330 927 OFFCURVE",
"233 927 CURVE SMOOTH",
"114 927 OFFCURVE",
"35 858 OFFCURVE",
"35 751 CURVE SMOOTH",
"35 666 OFFCURVE",
"95 597 OFFCURVE",
"198 597 CURVE SMOOTH",
"253 597 OFFCURVE",
"307 618 OFFCURVE",
"334 666 CURVE",
"334 658 OFFCURVE",
"334 650 OFFCURVE",
"333 640 CURVE SMOOTH",
"328 568 OFFCURVE",
"292 490 OFFCURVE",
"201 490 CURVE SMOOTH",
"175 490 OFFCURVE",
"130 499 OFFCURVE",
"108 520 CURVE",
"71 452 LINE",
"93 434 OFFCURVE",
"137 417 OFFCURVE",
"203 417 CURVE SMOOTH",
"349 417 OFFCURVE",
"439 516 OFFCURVE",
"439 680 CURVE"
);
},
{
closed = 1;
nodes = (
"322 766 OFFCURVE",
"323 759 OFFCURVE",
"323 751 CURVE",
"320 706 OFFCURVE",
"269 667 OFFCURVE",
"222 667 CURVE SMOOTH",
"166 667 OFFCURVE",
"140 705 OFFCURVE",
"140 759 CURVE SMOOTH",
"140 819 OFFCURVE",
"182 854 OFFCURVE",
"229 854 CURVE SMOOTH",
"276 854 OFFCURVE",
"310 818 OFFCURVE",
"320 774 CURVE"
);
}
);
width = 476;
}
);
leftKerningGroup = ninesuperior;
rightKerningGroup = ninesuperior;
unicode = 2079;
},
{
glyphname = fraction;
lastChange = "2018-05-15 18:14:03 +0000";
layers = (
{
layerId = "B61D43DE-5272-4FF4-A680-608B6BF5ED9E";
paths = (
{
closed = 1;
nodes = (
"19 -1 OFFCURVE",
"126 0 OFFCURVE",
"129 0 CURVE",
"500 763 LINE",
"385 763 LINE",
"15 -1 LINE"
);
}
);
width = 515;
}
);
leftKerningGroup = fraction;
rightKerningGroup = fraction;
unicode = 2044;
userData = {
com.typemytype.robofont.mark = (
0.656,
1,
0.6,
1
);
};
},
{
glyphname = onehalf;
lastChange = "2018-05-15 18:14:03 +0000";
layers = (
{
layerId = "B61D43DE-5272-4FF4-A680-608B6BF5ED9E";
paths = (
{
closed = 1;
nodes = (
"220 0 LINE",
"605 785 LINE",
"490 785 LINE",
"105 0 LINE"
);
},
{
closed = 1;
nodes = (
"880 0 LINE",
"880 100 LINE",
"573 100 LINE",
"624 56 LINE",
"624 86 OFFCURVE",
"611 120 OFFCURVE",
"687 155 CURVE SMOOTH",
"802 207 OFFCURVE",
"872 238 OFFCURVE",
"872 339 CURVE SMOOTH",
"872 459 OFFCURVE",
"784 504 OFFCURVE",
"678 504 CURVE SMOOTH",
"554 504 OFFCURVE",
"489 422 OFFCURVE",
"480 366 CURVE",
"586 327 LINE",
"589 392 OFFCURVE",
"630 413 OFFCURVE",
"672 413 CURVE SMOOTH",
"708 413 OFFCURVE",
"750 397 OFFCURVE",
"750 345 CURVE SMOOTH",
"750 304 OFFCURVE",
"709 268 OFFCURVE",
"627 232 CURVE SMOOTH",
"500 177 OFFCURVE",
"479 97 OFFCURVE",
"500 0 CURVE"
);
},
{
closed = 1;
nodes = (
"218 422 LINE",
"218 927 LINE",
"98 875 LINE",
"98 422 LINE"
);
}
);
width = 963;
}
);
leftKerningGroup = onehalf;
rightKerningGroup = onehalf;
unicode = 00BD;
userData = {
com.typemytype.robofont.mark = (
0.656,
1,
0.6,
1
);
};
},
{
glyphname = onequarter;
lastChange = "2018-05-15 18:14:03 +0000";
layers = (
{
layerId = "B61D43DE-5272-4FF4-A680-608B6BF5ED9E";
paths = (
{
closed = 1;
nodes = (
"818 0 LINE",
"818 380 LINE",
"727 380 LINE",
"709 105 LINE",
"709 0 LINE"
);
},
{
closed = 1;
nodes = (
"895 109 LINE",
"895 180 LINE",
"591 180 LINE",
"672 499 LINE",
"562 499 LINE",
"445 109 LINE"
);
},
{
closed = 1;
nodes = (
"220 0 LINE",
"605 785 LINE",
"490 785 LINE",
"105 0 LINE"
);
},
{
closed = 1;
nodes = (
"218 422 LINE",
"218 927 LINE",
"98 875 LINE",
"98 422 LINE"
);
}
);
width = 963;
}
);
leftKerningGroup = onequarter;
rightKerningGroup = onequarter;
unicode = 00BC;
userData = {
com.typemytype.robofont.mark = (
0.656,
1,
0.6,
1
);
};
},
{
glyphname = threequarters;
lastChange = "2018-05-15 18:14:03 +0000";
layers = (
{
layerId = "B61D43DE-5272-4FF4-A680-608B6BF5ED9E";
paths = (
{
closed = 1;
nodes = (
"973 0 LINE",
"973 380 LINE",
"882 380 LINE",
"864 105 LINE",
"864 0 LINE"
);
},
{
closed = 1;
nodes = (
"1050 109 LINE",
"1050 180 LINE",
"747 180 LINE",
"827 499 LINE",
"717 499 LINE",
"601 109 LINE"
);
},
{
closed = 1;
nodes = (
"375 0 LINE",
"761 785 LINE",
"646 785 LINE",
"261 0 LINE"
);
},
{
closed = 1;
nodes = (
"134 439 OFFCURVE",
"196 427 OFFCURVE",
"263 427 CURVE SMOOTH",
"386 427 OFFCURVE",
"469 474 OFFCURVE",
"469 580 CURVE SMOOTH",
"469 635 OFFCURVE",
"438 680 OFFCURVE",
"377 692 CURVE",
"429 711 OFFCURVE",
"451 748 OFFCURVE",
"451 798 CURVE SMOOTH",
"451 885 OFFCURVE",
"392 935 OFFCURVE",
"268 935 CURVE SMOOTH",
"195 935 OFFCURVE",
"121 916 OFFCURVE",
"83 890 CURVE",
"121 804 LINE",
"151 829 OFFCURVE",
"197 846 OFFCURVE",
"234 846 CURVE SMOOTH",
"276 846 OFFCURVE",
"335 836 OFFCURVE",
"335 789 CURVE SMOOTH",
"335 740 OFFCURVE",
"307 734 OFFCURVE",
"253 730 CURVE SMOOTH",
"237 729 OFFCURVE",
"206 729 OFFCURVE",
"189 729 CURVE",
"189 648 LINE",
"208 649 OFFCURVE",
"238 650 OFFCURVE",
"257 650 CURVE SMOOTH",
"306 650 OFFCURVE",
"338 628 OFFCURVE",
"338 587 CURVE SMOOTH",
"338 542 OFFCURVE",
"305 521 OFFCURVE",
"231 521 CURVE SMOOTH",
"195 521 OFFCURVE",
"143 538 OFFCURVE",
"111 564 CURVE",
"83 469 LINE"
);
}
);
width = 1119;
}
);
leftKerningGroup = threequarters;
rightKerningGroup = threequarters;
unicode = 00BE;
userData = {
com.typemytype.robofont.mark = (
0.656,
1,
0.6,
1
);
};
},
{
glyphname = period;
lastChange = "2018-05-15 18:14:03 +0000";
layers = (
{
layerId = "B61D43DE-5272-4FF4-A680-608B6BF5ED9E";
paths = (
{
closed = 1;
nodes = (
"174 0 LINE",
"174 129 LINE",
"41 129 LINE",
"41 0 LINE"
);
}
);
width = 214;
}
);
leftKerningGroup = period;
rightKerningGroup = period;
unicode = 002E;
userData = {
com.typemytype.robofont.mark = (
0.656,
1,
0.6,
1
);
};
},
{
glyphname = comma;
lastChange = "2018-05-15 18:14:03 +0000";
layers = (
{
layerId = "B61D43DE-5272-4FF4-A680-608B6BF5ED9E";
paths = (
{
closed = 1;
nodes = (
"50 0 LINE",
"50 -50 OFFCURVE",
"34 -114 OFFCURVE",
"23 -141 CURVE",
"113 -141 LINE",
"136 -126 OFFCURVE",
"176 -48 OFFCURVE",
"176 38 CURVE",
"176 107 LINE",
"50 107 LINE"
);
}
);
width = 214;
}
);
leftKerningGroup = period;
rightKerningGroup = period;
unicode = 002C;
userData = {
com.typemytype.robofont.mark = (
0.656,
1,
0.6,
1
);
};
},
{
glyphname = ellipsis;
lastChange = "2018-05-15 18:14:03 +0000";
layers = (
{
layerId = "B61D43DE-5272-4FF4-A680-608B6BF5ED9E";
paths = (
{
closed = 1;
nodes = (
"174 0 LINE",
"174 129 LINE",
"41 129 LINE",
"41 0 LINE"
);
},
{
closed = 1;
nodes = (
"388 0 LINE",
"388 129 LINE",
"255 129 LINE",
"255 0 LINE"
);
},
{
closed = 1;
nodes = (
"603 0 LINE",
"603 129 LINE",
"469 129 LINE",
"469 0 LINE"
);
}
);
width = 643;
}
);
leftKerningGroup = period;
rightKerningGroup = period;
unicode = 2026;
userData = {
com.typemytype.robofont.mark = (
0.656,
1,
0.6,
1
);
};
},
{
glyphname = exclam;
lastChange = "2018-05-15 18:14:03 +0000";
layers = (
{
layerId = "B61D43DE-5272-4FF4-A680-608B6BF5ED9E";
paths = (
{
closed = 1;
nodes = (
"236 233 LINE",
"260 769 LINE",
"103 769 LINE",
"126 233 LINE"
);
},
{
closed = 1;
nodes = (
"248 0 LINE",
"248 129 LINE",
"114 129 LINE",
"114 0 LINE"
);
}
);
width = 362;
}
);
leftKerningGroup = exclam;
rightKerningGroup = exclam;
unicode = 0021;
userData = {
com.typemytype.robofont.mark = (
0.656,
1,
0.6,
1
);
};
},
{
glyphname = question;
lastChange = "2018-05-15 18:14:03 +0000";
layers = (
{
layerId = "B61D43DE-5272-4FF4-A680-608B6BF5ED9E";
paths = (
{
closed = 1;
nodes = (
"287 225 LINE",
"278 322 OFFCURVE",
"292 355 OFFCURVE",
"359 394 CURVE SMOOTH",
"423 430 OFFCURVE",
"490 486 OFFCURVE",
"490 591 CURVE SMOOTH",
"490 704 OFFCURVE",
"409 777 OFFCURVE",
"249 777 CURVE SMOOTH",
"113 777 OFFCURVE",
"28 710 OFFCURVE",
"0 680 CURVE",
"91 578 LINE",
"115 619 OFFCURVE",
"165 676 OFFCURVE",
"240 676 CURVE SMOOTH",
"326 676 OFFCURVE",
"345 641 OFFCURVE",
"345 579 CURVE SMOOTH",
"345 508 OFFCURVE",
"299 466 OFFCURVE",
"261 450 CURVE SMOOTH",
"201 415 OFFCURVE",
"162 392 OFFCURVE",
"167 303 CURVE SMOOTH",
"168 291 OFFCURVE",
"175 240 OFFCURVE",
"179 225 CURVE"
);
},
{
closed = 1;
nodes = (
"302 0 LINE",
"302 129 LINE",
"169 129 LINE",
"169 0 LINE"
);
}
);
width = 515;
}
);
leftKerningGroup = question;
rightKerningGroup = question;
unicode = 003F;
userData = {
com.typemytype.robofont.mark = (
0.656,
1,
0.6,
1
);
};
},
{
glyphname = bullet;
lastChange = "2018-05-15 18:14:03 +0000";
layers = (
{
layerId = "B61D43DE-5272-4FF4-A680-608B6BF5ED9E";
paths = (
{
closed = 1;
nodes = (
"220 280 OFFCURVE",
"261 305 OFFCURVE",
"261 377 CURVE SMOOTH",
"261 446 OFFCURVE",
"219 475 OFFCURVE",
"168 475 CURVE SMOOTH",
"119 475 OFFCURVE",
"77 446 OFFCURVE",
"77 377 CURVE SMOOTH",
"77 305 OFFCURVE",
"118 280 OFFCURVE",
"168 280 CURVE SMOOTH"
);
}
);
width = 337;
}
);
leftKerningGroup = bullet;
rightKerningGroup = bullet;
unicode = 2022;
userData = {
com.typemytype.robofont.mark = (
0.656,
1,
0.6,
1
);
};
},
{
glyphname = asterisk;
lastChange = "2018-05-15 18:14:03 +0000";
layers = (
{
layerId = "B61D43DE-5272-4FF4-A680-608B6BF5ED9E";
paths = (
{
closed = 1;
nodes = (
"259 523 LINE",
"236 522 LINE",
"334 368 LINE",
"416 426 LINE",
"300 563 LINE",
"300 544 LINE",
"460 590 LINE",
"428 682 LINE",
"275 619 LINE",
"288 604 LINE",
"297 776 LINE",
"196 776 LINE",
"207 604 LINE",
"218 620 LINE",
"65 684 LINE",
"36 592 LINE",
"194 545 LINE",
"193 564 LINE",
"78 427 LINE",
"161 368 LINE"
);
}
);
width = 495;
}
);
leftKerningGroup = asterisk;
rightKerningGroup = asterisk;
unicode = 002A;
userData = {
com.typemytype.robofont.mark = (
0.656,
1,
0.6,
1
);
};
},
{
glyphname = numbersign;
lastChange = "2018-05-15 18:14:03 +0000";
layers = (
{
layerId = "B61D43DE-5272-4FF4-A680-608B6BF5ED9E";
paths = (
{
closed = 1;
nodes = (
"141 206 LINE",
"123 228 LINE",
"103 64 LINE",
"187 64 LINE",
"207 230 LINE",
"187 206 LINE",
"376 206 LINE",
"354 224 LINE",
"336 64 LINE",
"422 64 LINE",
"441 230 LINE",
"418 206 LINE",
"551 206 LINE",
"551 283 LINE",
"426 283 LINE",
"445 262 LINE",
"468 501 LINE",
"434 477 LINE",
"577 477 LINE",
"577 553 LINE",
"455 553 LINE",
"471 529 LINE",
"489 697 LINE",
"403 697 LINE",
"385 533 LINE",
"400 553 LINE",
"224 553 LINE",
"237 525 LINE",
"255 697 LINE",
"171 697 LINE",
"152 524 LINE",
"170 553 LINE",
"47 553 LINE",
"47 477 LINE",
"166 477 LINE",
"148 493 LINE",
"126 266 LINE",
"152 283 LINE",
"21 283 LINE",
"21 206 LINE"
);
},
{
closed = 1;
nodes = (
"210 260 LINE",
"232 498 LINE",
"207 477 LINE",
"395 477 LINE",
"382 500 LINE",
"360 264 LINE",
"384 283 LINE",
"181 283 LINE"
);
}
);
width = 607;
}
);
leftKerningGroup = numbersign;
rightKerningGroup = numbersign;
unicode = 0023;
userData = {
com.typemytype.robofont.mark = (
0.656,
1,
0.6,
1
);
};
},
{
glyphname = slash;
lastChange = "2018-05-15 18:14:03 +0000";
layers = (
{
layerId = "B61D43DE-5272-4FF4-A680-608B6BF5ED9E";
paths = (
{
closed = 1;
nodes = (
"132 0 LINE",
"304 697 LINE",
"206 697 LINE",
"34 1 LINE"
);
}
);
width = 349;
}
);
leftKerningGroup = slash;
rightKerningGroup = slash;
unicode = 002F;
userData = {
com.typemytype.robofont.mark = (
0.656,
1,
0.6,
1
);
};
},
{
glyphname = bullet.cap;
lastChange = "2018-05-15 18:14:03 +0000";
layers = (
{
layerId = "B61D43DE-5272-4FF4-A680-608B6BF5ED9E";
paths = (
{
closed = 1;
nodes = (
"220 280 OFFCURVE",
"261 305 OFFCURVE",
"261 377 CURVE SMOOTH",
"261 446 OFFCURVE",
"219 475 OFFCURVE",
"168 475 CURVE SMOOTH",
"119 475 OFFCURVE",
"77 446 OFFCURVE",
"77 377 CURVE SMOOTH",
"77 305 OFFCURVE",
"118 280 OFFCURVE",
"168 280 CURVE SMOOTH"
);
}
);
width = 337;
}
);
leftKerningGroup = bullet.cap;
rightKerningGroup = bullet.cap;
},
{
glyphname = parenleft;
lastChange = "2018-05-15 18:14:03 +0000";
layers = (
{
layerId = "B61D43DE-5272-4FF4-A680-608B6BF5ED9E";
paths = (
{
closed = 1;
nodes = (
"63 37 OFFCURVE",
"236 -123 OFFCURVE",
"322 -147 CURVE",
"366 -103 LINE",
"326 -75 OFFCURVE",
"189 27 OFFCURVE",
"189 331 CURVE SMOOTH",
"189 635 OFFCURVE",
"321 748 OFFCURVE",
"366 766 CURVE",
"322 810 LINE",
"236 795 OFFCURVE",
"63 625 OFFCURVE",
"63 331 CURVE SMOOTH"
);
}
);
width = 386;
}
);
leftKerningGroup = parenleft;
rightKerningGroup = parenleft;
unicode = 0028;
userData = {
com.typemytype.robofont.mark = (
0.656,
1,
0.6,
1
);
};
},
{
glyphname = braceleft;
lastChange = "2018-05-15 18:14:03 +0000";
layers = (
{
layerId = "B61D43DE-5272-4FF4-A680-608B6BF5ED9E";
paths = (
{
closed = 1;
nodes = (
"109 -79 OFFCURVE",
"203 -159 OFFCURVE",
"346 -139 CURVE",
"347 -75 LINE",
"226 -99 OFFCURVE",
"222 -11 OFFCURVE",
"222 104 CURVE SMOOTH",
"222 193 LINE SMOOTH",
"222 285 OFFCURVE",
"167 324 OFFCURVE",
"133 333 CURVE",
"171 343 OFFCURVE",
"222 381 OFFCURVE",
"222 489 CURVE SMOOTH",
"222 566 LINE SMOOTH",
"222 682 OFFCURVE",
"225 769 OFFCURVE",
"346 746 CURVE",
"345 810 LINE",
"202 829 OFFCURVE",
"109 750 OFFCURVE",
"109 630 CURVE SMOOTH",
"109 449 LINE SMOOTH",
"109 372 OFFCURVE",
"46 372 OFFCURVE",
"18 372 CURVE",
"18 297 LINE",
"46 297 OFFCURVE",
"109 296 OFFCURVE",
"109 215 CURVE SMOOTH",
"109 40 LINE"
);
}
);
width = 386;
}
);
leftKerningGroup = braceleft;
rightKerningGroup = braceleft;
unicode = 007B;
userData = {
com.typemytype.robofont.mark = (
0.656,
1,
0.6,
1
);
};
},
{
glyphname = bracketleft;
lastChange = "2018-05-15 18:14:03 +0000";
layers = (
{
layerId = "B61D43DE-5272-4FF4-A680-608B6BF5ED9E";
paths = (
{
closed = 1;
nodes = (
"215 -93 LINE",
"215 761 LINE",
"196 737 LINE",
"342 737 LINE",
"342 810 LINE",
"105 810 LINE",
"105 -143 LINE",
"342 -143 LINE",
"342 -70 LINE",
"196 -70 LINE"
);
}
);
width = 386;
}
);
leftKerningGroup = bracketleft;
rightKerningGroup = bracketleft;
unicode = 005B;
userData = {
com.typemytype.robofont.mark = (
0.656,
1,
0.6,
1
);
};
},
{
glyphname = parenleft.cap;
lastChange = "2018-05-15 18:14:03 +0000";
layers = (
{
layerId = "B61D43DE-5272-4FF4-A680-608B6BF5ED9E";
paths = (
{
closed = 1;
nodes = (
"63 57 OFFCURVE",
"236 -104 OFFCURVE",
"322 -128 CURVE",
"366 -83 LINE",
"326 -56 OFFCURVE",
"189 46 OFFCURVE",
"189 351 CURVE SMOOTH",
"189 655 OFFCURVE",
"321 767 OFFCURVE",
"366 785 CURVE",
"322 830 LINE",
"236 815 OFFCURVE",
"63 644 OFFCURVE",
"63 351 CURVE SMOOTH"
);
}
);
width = 386;
}
);
leftKerningGroup = parenleft.cap;
rightKerningGroup = parenleft.cap;
},
{
glyphname = braceleft.cap;
lastChange = "2018-05-15 18:14:03 +0000";
layers = (
{
layerId = "B61D43DE-5272-4FF4-A680-608B6BF5ED9E";
paths = (
{
closed = 1;
nodes = (
"109 -59 OFFCURVE",
"203 -139 OFFCURVE",
"346 -120 CURVE",
"347 -56 LINE",
"226 -79 OFFCURVE",
"222 8 OFFCURVE",
"222 124 CURVE SMOOTH",
"222 213 LINE SMOOTH",
"222 305 OFFCURVE",
"167 344 OFFCURVE",
"133 353 CURVE",
"171 362 OFFCURVE",
"222 401 OFFCURVE",
"222 508 CURVE SMOOTH",
"222 585 LINE SMOOTH",
"222 702 OFFCURVE",
"225 789 OFFCURVE",
"346 765 CURVE",
"345 829 LINE",
"202 849 OFFCURVE",
"109 769 OFFCURVE",
"109 650 CURVE SMOOTH",
"109 468 LINE SMOOTH",
"109 392 OFFCURVE",
"46 392 OFFCURVE",
"18 392 CURVE",
"18 316 LINE",
"46 316 OFFCURVE",
"109 315 OFFCURVE",
"109 234 CURVE SMOOTH",
"109 60 LINE"
);
}
);
width = 386;
}
);
leftKerningGroup = braceleft.cap;
rightKerningGroup = braceleft.cap;
},
{
glyphname = bracketleft.cap;
lastChange = "2018-05-15 18:14:03 +0000";
layers = (
{
layerId = "B61D43DE-5272-4FF4-A680-608B6BF5ED9E";
paths = (
{
closed = 1;
nodes = (
"215 -73 LINE",
"215 780 LINE",
"196 757 LINE",
"342 757 LINE",
"342 830 LINE",
"105 830 LINE",
"105 -123 LINE",
"342 -123 LINE",
"342 -50 LINE",
"196 -51 LINE"
);
}
);
width = 386;
}
);
leftKerningGroup = bracketleft.cap;
rightKerningGroup = bracketleft.cap;
},
{
glyphname = hyphen;
lastChange = "2018-05-15 18:14:03 +0000";
layers = (
{
layerId = "B61D43DE-5272-4FF4-A680-608B6BF5ED9E";
paths = (
{
closed = 1;
nodes = (
"381 246 LINE",
"381 344 LINE",
"62 344 LINE",
"62 246 LINE"
);
}
);
width = 443;
}
);
leftKerningGroup = hyphen;
rightKerningGroup = hyphen;
unicode = 002D;
userData = {
com.typemytype.robofont.mark = (
0.656,
1,
0.6,
1
);
};
},
{
glyphname = softhyphen;
lastChange = "2018-05-15 18:14:03 +0000";
layers = (
{
layerId = "B61D43DE-5272-4FF4-A680-608B6BF5ED9E";
paths = (
{
closed = 1;
nodes = (
"381 246 LINE",
"381 344 LINE",
"62 344 LINE",
"62 246 LINE"
);
}
);
width = 443;
}
);
leftKerningGroup = hyphen;
rightKerningGroup = hyphen;
unicode = 00AD;
userData = {
com.typemytype.robofont.mark = (
0.656,
1,
0.6,
1
);
};
},
{
glyphname = endash;
lastChange = "2018-05-15 18:14:03 +0000";
layers = (
{
layerId = "B61D43DE-5272-4FF4-A680-608B6BF5ED9E";
paths = (
{
closed = 1;
nodes = (
"575 246 LINE",
"575 344 LINE",
"62 344 LINE",
"62 246 LINE"
);
}
);
width = 637;
}
);
leftKerningGroup = hyphen;
rightKerningGroup = hyphen;
unicode = 2013;
userData = {
com.typemytype.robofont.mark = (
0.656,
1,
0.6,
1
);
};
},
{
glyphname = emdash;
lastChange = "2018-05-15 18:14:03 +0000";
layers = (
{
layerId = "B61D43DE-5272-4FF4-A680-608B6BF5ED9E";
paths = (
{
closed = 1;
nodes = (
"879 246 LINE",
"879 344 LINE",
"62 344 LINE",
"62 246 LINE"
);
}
);
width = 941;
}
);
leftKerningGroup = hyphen;
rightKerningGroup = hyphen;
unicode = 2014;
userData = {
com.typemytype.robofont.mark = (
0.656,
1,
0.6,
1
);
};
},
{
color = 4;
glyphname = figuredash;
lastChange = "2018-05-15 18:48:16 +0000";
layers = (
{
layerId = "B61D43DE-5272-4FF4-A680-608B6BF5ED9E";
paths = (
{
closed = 1;
nodes = (
"575 246 LINE",
"575 344 LINE",
"62 344 LINE",
"62 246 LINE"
);
}
);
width = 637;
}
);
leftKerningGroup = figuredash;
rightKerningGroup = figuredash;
unicode = 2012;
userData = {
com.typemytype.robofont.mark = (
0.967,
0.6,
1,
1
);
};
},
{
glyphname = underscore;
lastChange = "2018-05-15 18:14:03 +0000";
layers = (
{
layerId = "B61D43DE-5272-4FF4-A680-608B6BF5ED9E";
paths = (
{
closed = 1;
nodes = (
"-12 -173 LINE",
"502 -173 LINE",
"502 -105 LINE",
"-12 -105 LINE"
);
}
);
width = 490;
}
);
leftKerningGroup = underscore;
rightKerningGroup = underscore;
unicode = 005F;
userData = {
com.typemytype.robofont.mark = (
0.656,
1,
0.6,
1
);
};
},
{
color = 0;
glyphname = uni2010;
lastChange = "2018-05-15 18:50:46 +0000";
layers = (
{
layerId = "B61D43DE-5272-4FF4-A680-608B6BF5ED9E";
paths = (
{
closed = 1;
nodes = (
"381 246 LINE",
"381 344 LINE",
"62 344 LINE",
"62 246 LINE"
);
}
);
width = 443;
}
);
leftKerningGroup = uni2010;
rightKerningGroup = uni2010;
unicode = 2010;
userData = {
com.typemytype.robofont.mark = (
0.6,
0.609,
1,
1
);
};
},
{
color = 0;
glyphname = uni2015;
lastChange = "2018-05-15 18:51:02 +0000";
layers = (
{
layerId = "B61D43DE-5272-4FF4-A680-608B6BF5ED9E";
paths = (
{
closed = 1;
nodes = (
"381 246 LINE",
"381 344 LINE",
"62 344 LINE",
"62 246 LINE"
);
}
);
width = 443;
}
);
leftKerningGroup = uni2015;
rightKerningGroup = uni2015;
unicode = 2015;
userData = {
com.typemytype.robofont.mark = (
0.967,
0.6,
1,
1
);
};
},
{
glyphname = hyphen.cap;
lastChange = "2018-05-15 18:14:03 +0000";
layers = (
{
layerId = "B61D43DE-5272-4FF4-A680-608B6BF5ED9E";
paths = (
{
closed = 1;
nodes = (
"381 295 LINE",
"381 393 LINE",
"62 393 LINE",
"62 295 LINE"
);
}
);
width = 443;
}
);
leftKerningGroup = hyphen.cap;
rightKerningGroup = hyphen.cap;
},
